<svg width="416" height="124" viewBox="0 0 416 124" fill="none" xmlns="http://www.w3.org/2000/svg">
<rect width="416" height="124" rx="8" fill="white"/>
<path d="M25.68 26.08C25.3707 25.4293 24.9227 24.928 24.336 24.576C23.7493 24.2133 23.0667 24.032 22.288 24.032C21.5093 24.032 20.8053 24.2133 20.176 24.576C19.5573 24.928 19.0667 25.44 18.704 26.112C18.352 26.7733 18.176 27.5413 18.176 28.416C18.176 29.2907 18.352 30.0587 18.704 30.72C19.0667 31.3813 19.5573 31.8933 20.176 32.256C20.8053 32.608 21.5093 32.784 22.288 32.784C23.376 32.784 24.272 32.4587 24.976 31.808C25.68 31.1573 26.0907 30.2773 26.208 29.168H21.76V27.984H27.76V29.104C27.6747 30.0213 27.3867 30.864 26.896 31.632C26.4053 32.3893 25.76 32.992 24.96 33.44C24.16 33.8773 23.2693 34.096 22.288 34.096C21.2533 34.096 20.3093 33.856 19.456 33.376C18.6027 32.8853 17.9253 32.208 17.424 31.344C16.9333 30.48 16.688 29.504 16.688 28.416C16.688 27.328 16.9333 26.352 17.424 25.488C17.9253 24.6133 18.6027 23.936 19.456 23.456C20.3093 22.9653 21.2533 22.72 22.288 22.72C23.472 22.72 24.5173 23.0133 25.424 23.6C26.3413 24.1867 27.008 25.0133 27.424 26.08H25.68ZM36.6851 29.28C36.6851 29.5573 36.6691 29.8507 36.6371 30.16H29.6291C29.6825 31.024 29.9758 31.7013 30.5091 32.192C31.0531 32.672 31.7091 32.912 32.4771 32.912C33.1065 32.912 33.6291 32.768 34.0451 32.48C34.4718 32.1813 34.7705 31.7867 34.9411 31.296H36.5091C36.2745 32.1387 35.8051 32.8267 35.1011 33.36C34.3971 33.8827 33.5225 34.144 32.4771 34.144C31.6451 34.144 30.8985 33.9573 30.2371 33.584C29.5865 33.2107 29.0745 32.6827 28.7011 32C28.3278 31.3067 28.1411 30.5067 28.1411 29.6C28.1411 28.6933 28.3225 27.8987 28.6851 27.216C29.0478 26.5333 29.5545 26.0107 30.2051 25.648C30.8665 25.2747 31.6238 25.088 32.4771 25.088C33.3091 25.088 34.0451 25.2693 34.6851 25.632C35.3251 25.9947 35.8158 26.496 36.1571 27.136C36.5091 27.7653 36.6851 28.48 36.6851 29.28ZM35.1811 28.976C35.1811 28.4213 35.0585 27.9467 34.8131 27.552C34.5678 27.1467 34.2318 26.8427 33.8051 26.64C33.3891 26.4267 32.9251 26.32 32.4131 26.32C31.6771 26.32 31.0478 26.5547 30.5251 27.024C30.0131 27.4933 29.7198 28.144 29.6451 28.976H35.1811ZM39.383 26.432V31.6C39.383 32.0267 39.4737 32.3307 39.655 32.512C39.8363 32.6827 40.151 32.768 40.599 32.768H41.671V34H40.359C39.5483 34 38.9403 33.8133 38.535 33.44C38.1297 33.0667 37.927 32.4533 37.927 31.6V26.432H36.791V25.232H37.927V23.024H39.383V25.232H41.671V26.432H39.383ZM47.1568 22.16V34H45.7008V22.16H47.1568ZM49.3903 23.808C49.1129 23.808 48.8783 23.712 48.6863 23.52C48.4943 23.328 48.3983 23.0933 48.3983 22.816C48.3983 22.5387 48.4943 22.304 48.6863 22.112C48.8783 21.92 49.1129 21.824 49.3903 21.824C49.6569 21.824 49.8809 21.92 50.0623 22.112C50.2543 22.304 50.3503 22.5387 50.3503 22.816C50.3503 23.0933 50.2543 23.328 50.0623 23.52C49.8809 23.712 49.6569 23.808 49.3903 23.808ZM50.0943 25.232V34H48.6383V25.232H50.0943ZM55.8478 25.072C56.9144 25.072 57.7784 25.3973 58.4398 26.048C59.1011 26.688 59.4318 27.616 59.4318 28.832V34H57.9918V29.04C57.9918 28.1653 57.7731 27.4987 57.3358 27.04C56.8984 26.5707 56.3011 26.336 55.5438 26.336C54.7758 26.336 54.1624 26.576 53.7038 27.056C53.2558 27.536 53.0318 28.2347 53.0318 29.152V34H51.5758V25.232H53.0318V26.48C53.3198 26.032 53.7091 25.6853 54.1998 25.44C54.7011 25.1947 55.2504 25.072 55.8478 25.072ZM65.7061 34L62.2661 30.128V34H60.8101V22.16H62.2661V29.12L65.6421 25.232H67.6741L63.5461 29.6L67.6901 34H65.7061Z" fill="#262A2C"/>
<path fill-rule="evenodd" clip-rule="evenodd" d="M391 21H385C381.141 21 378 24.141 378 28C378 31.859 381.141 35 385 35H391C394.859 35 398 31.859 398 28C398 24.141 394.859 21 391 21" fill="#009934"/>
<path fill-rule="evenodd" clip-rule="evenodd" d="M391 33C388.243 33 386 30.7567 386 28C386 25.2433 388.243 23 391 23C393.757 23 396 25.2433 396 28C396 30.7567 393.757 33 391 33" fill="white"/>
<rect x="16" y="56" width="300" height="52" rx="4" fill="#E5F5EB"/>
<path d="M37.44 79.104C38.1013 79.104 38.6933 79.2427 39.216 79.52C39.7493 79.7973 40.1653 80.224 40.464 80.8C40.7733 81.3653 40.928 82.0587 40.928 82.88V88H39.824V83.008C39.824 82.0587 39.584 81.3333 39.104 80.832C38.6347 80.3307 37.9893 80.08 37.168 80.08C36.3253 80.08 35.6533 80.3467 35.152 80.88C34.6507 81.4133 34.4 82.1973 34.4 83.232V88H33.28V76.16H34.4V80.752C34.6773 80.2293 35.0827 79.824 35.616 79.536C36.16 79.248 36.768 79.104 37.44 79.104ZM43.861 80.208V85.632C43.861 86.1653 43.9623 86.5333 44.165 86.736C44.3677 86.9387 44.725 87.04 45.237 87.04H46.261V88H45.061C44.2717 88 43.685 87.8187 43.301 87.456C42.917 87.0827 42.725 86.4747 42.725 85.632V80.208H41.509V79.264H42.725V77.072H43.861V79.264H46.261V80.208H43.861ZM48.5641 80.208V85.632C48.5641 86.1653 48.6655 86.5333 48.8681 86.736C49.0708 86.9387 49.4281 87.04 49.9401 87.04H50.9641V88H49.7641C48.9748 88 48.3881 87.8187 48.0041 87.456C47.6201 87.0827 47.4281 86.4747 47.4281 85.632V80.208H46.2121V79.264H47.4281V77.072H48.5641V79.264H50.9641V80.208H48.5641ZM52.9153 81.184C53.1926 80.5973 53.6299 80.112 54.2273 79.728C54.8353 79.3333 55.5553 79.136 56.3873 79.136C57.1766 79.136 57.8859 79.3227 58.5153 79.696C59.1553 80.0587 59.6513 80.5813 60.0033 81.264C60.3659 81.936 60.5473 82.72 60.5473 83.616C60.5473 84.512 60.3659 85.3013 60.0033 85.984C59.6513 86.6667 59.1553 87.1947 58.5153 87.568C57.8859 87.9413 57.1766 88.128 56.3873 88.128C55.5659 88.128 54.8513 87.936 54.2433 87.552C53.6353 87.1573 53.1926 86.6667 52.9153 86.08V92.128H51.8113V79.264H52.9153V81.184ZM59.4113 83.616C59.4113 82.8907 59.2673 82.2667 58.9792 81.744C58.7019 81.2107 58.3179 80.8053 57.8273 80.528C57.3366 80.2507 56.7819 80.112 56.1633 80.112C55.5659 80.112 55.0166 80.256 54.5153 80.544C54.0246 80.832 53.6353 81.2427 53.3473 81.776C53.0593 82.3093 52.9153 82.928 52.9153 83.632C52.9153 84.336 53.0593 84.9547 53.3473 85.488C53.6353 86.0213 54.0246 86.432 54.5153 86.72C55.0166 87.008 55.5659 87.152 56.1633 87.152C56.7819 87.152 57.3366 87.0133 57.8273 86.736C58.3179 86.448 58.7019 86.0373 58.9792 85.504C59.2673 84.96 59.4113 84.3307 59.4113 83.616ZM64.6161 88.128C63.6135 88.128 62.7921 87.8987 62.1521 87.44C61.5228 86.9707 61.1708 86.336 61.0961 85.536H62.2481C62.3015 86.0267 62.5308 86.4267 62.9361 86.736C63.3521 87.0347 63.9068 87.184 64.6001 87.184C65.2081 87.184 65.6828 87.04 66.0241 86.752C66.3761 86.464 66.5521 86.1067 66.5521 85.68C66.5521 85.3813 66.4561 85.136 66.2641 84.944C66.0721 84.752 65.8268 84.6027 65.5281 84.496C65.2401 84.3787 64.8455 84.256 64.3441 84.128C63.6935 83.9573 63.1655 83.7867 62.7601 83.616C62.3548 83.4453 62.0081 83.1947 61.7201 82.864C61.4428 82.5227 61.3041 82.0693 61.3041 81.504C61.3041 81.0773 61.4321 80.6827 61.6881 80.32C61.9441 79.9573 62.3068 79.6693 62.7761 79.456C63.2455 79.2427 63.7788 79.136 64.3761 79.136C65.3148 79.136 66.0721 79.376 66.6481 79.856C67.2241 80.3253 67.5335 80.976 67.5761 81.808H66.4561C66.4241 81.296 66.2215 80.8853 65.8481 80.576C65.4855 80.256 64.9841 80.096 64.3441 80.096C63.7788 80.096 63.3201 80.2293 62.9681 80.496C62.6161 80.7627 62.4401 81.0933 62.4401 81.488C62.4401 81.8293 62.5415 82.112 62.7441 82.336C62.9575 82.5493 63.2188 82.72 63.5281 82.848C63.8375 82.9653 64.2535 83.0987 64.7761 83.248C65.4055 83.4187 65.9068 83.584 66.2801 83.744C66.6535 83.904 66.9735 84.1387 67.2401 84.448C67.5068 84.7573 67.6455 85.168 67.6561 85.68C67.6561 86.1493 67.5281 86.5707 67.2721 86.944C67.0161 87.3067 66.6588 87.5947 66.2001 87.808C65.7415 88.0213 65.2135 88.128 64.6161 88.128ZM68.9564 88.08C68.7217 88.08 68.5244 88 68.3644 87.84C68.215 87.68 68.1404 87.4827 68.1404 87.248C68.1404 87.0133 68.215 86.8213 68.3644 86.672C68.5244 86.512 68.7217 86.432 68.9564 86.432C69.1804 86.432 69.367 86.512 69.5164 86.672C69.6764 86.8213 69.7564 87.0133 69.7564 87.248C69.7564 87.4827 69.6764 87.68 69.5164 87.84C69.367 88 69.1804 88.08 68.9564 88.08ZM68.9564 81.12C68.7217 81.12 68.5244 81.04 68.3644 80.88C68.215 80.72 68.1404 80.5227 68.1404 80.288C68.1404 80.0533 68.215 79.8613 68.3644 79.712C68.5244 79.552 68.7217 79.472 68.9564 79.472C69.1804 79.472 69.367 79.552 69.5164 79.712C69.6764 79.8613 69.7564 80.0533 69.7564 80.288C69.7564 80.5227 69.6764 80.72 69.5164 80.88C69.367 81.04 69.1804 81.12 68.9564 81.12ZM75.6935 72.96L71.2775 90.656H70.1735L74.5575 72.96H75.6935ZM81.756 72.96L77.34 90.656H76.236L80.62 72.96H81.756ZM82.3305 83.632C82.3305 82.7253 82.5118 81.936 82.8745 81.264C83.2372 80.5813 83.7385 80.0587 84.3785 79.696C85.0185 79.3227 85.7492 79.136 86.5705 79.136C87.6478 79.136 88.5332 79.4027 89.2265 79.936C89.9305 80.4693 90.3838 81.1947 90.5865 82.112H89.3865C89.2372 81.4827 88.9118 80.992 88.4105 80.64C87.9198 80.2773 87.3065 80.096 86.5705 80.096C85.9838 80.096 85.4558 80.2293 84.9865 80.496C84.5172 80.7627 84.1438 81.1627 83.8665 81.696C83.5998 82.2187 83.4665 82.864 83.4665 83.632C83.4665 84.4 83.5998 85.0507 83.8665 85.584C84.1438 86.1173 84.5172 86.5173 84.9865 86.784C85.4558 87.0507 85.9838 87.184 86.5705 87.184C87.3065 87.184 87.9198 87.008 88.4105 86.656C88.9118 86.2933 89.2372 85.792 89.3865 85.152H90.5865C90.3838 86.048 89.9305 86.768 89.2265 87.312C88.5225 87.856 87.6372 88.128 86.5705 88.128C85.7492 88.128 85.0185 87.9467 84.3785 87.584C83.7385 87.2107 83.2372 86.688 82.8745 86.016C82.5118 85.3333 82.3305 84.5387 82.3305 83.632ZM92.775 76.16V88H91.655V76.16H92.775ZM98.1353 88.128C97.3139 88.128 96.5726 87.9467 95.9113 87.584C95.2606 87.2107 94.7433 86.688 94.3593 86.016C93.9859 85.3333 93.7993 84.5387 93.7993 83.632C93.7993 82.7253 93.9913 81.936 94.3753 81.264C94.7593 80.5813 95.2819 80.0587 95.9433 79.696C96.6046 79.3227 97.3459 79.136 98.1673 79.136C98.9886 79.136 99.7299 79.3227 100.391 79.696C101.063 80.0587 101.586 80.5813 101.959 81.264C102.343 81.936 102.535 82.7253 102.535 83.632C102.535 84.528 102.343 85.3173 101.959 86C101.575 86.6827 101.047 87.2107 100.375 87.584C99.7033 87.9467 98.9566 88.128 98.1353 88.128ZM98.1353 87.152C98.7113 87.152 99.2446 87.024 99.7353 86.768C100.226 86.5013 100.621 86.1067 100.919 85.584C101.229 85.0507 101.383 84.4 101.383 83.632C101.383 82.864 101.234 82.2187 100.935 81.696C100.637 81.1627 100.242 80.768 99.7513 80.512C99.2606 80.2453 98.7273 80.112 98.1513 80.112C97.5753 80.112 97.0419 80.2453 96.5513 80.512C96.0606 80.768 95.6659 81.1627 95.3673 81.696C95.0793 82.2187 94.9353 82.864 94.9353 83.632C94.9353 84.4 95.0793 85.0507 95.3673 85.584C95.6659 86.1067 96.0553 86.5013 96.5353 86.768C97.0259 87.024 97.5593 87.152 98.1353 87.152ZM111.145 79.264V88H110.025V86.464C109.769 87.008 109.374 87.424 108.841 87.712C108.308 88 107.71 88.144 107.049 88.144C106.004 88.144 105.15 87.824 104.489 87.184C103.828 86.5333 103.497 85.5947 103.497 84.368V79.264H104.601V84.24C104.601 85.1893 104.836 85.9147 105.305 86.416C105.785 86.9173 106.436 87.168 107.257 87.168C108.1 87.168 108.772 86.9013 109.273 86.368C109.774 85.8347 110.025 85.0507 110.025 84.016V79.264H111.145ZM112.19 83.616C112.19 82.72 112.371 81.936 112.734 81.264C113.097 80.5813 113.593 80.0587 114.222 79.696C114.862 79.3227 115.582 79.136 116.382 79.136C117.15 79.136 117.843 79.3227 118.462 79.696C119.081 80.0693 119.534 80.5547 119.822 81.152V76.16H120.942V88H119.822V86.048C119.555 86.656 119.118 87.1573 118.51 87.552C117.902 87.936 117.187 88.128 116.366 88.128C115.566 88.128 114.846 87.9413 114.206 87.568C113.577 87.1947 113.081 86.6667 112.718 85.984C112.366 85.3013 112.19 84.512 112.19 83.616ZM119.822 83.632C119.822 82.928 119.678 82.3093 119.39 81.776C119.102 81.2427 118.707 80.832 118.206 80.544C117.715 80.256 117.171 80.112 116.574 80.112C115.955 80.112 115.401 80.2507 114.91 80.528C114.419 80.8053 114.03 81.2107 113.742 81.744C113.465 82.2667 113.326 82.8907 113.326 83.616C113.326 84.3307 113.465 84.96 113.742 85.504C114.03 86.0373 114.419 86.448 114.91 86.736C115.401 87.0133 115.955 87.152 116.574 87.152C117.171 87.152 117.715 87.008 118.206 86.72C118.707 86.432 119.102 86.0213 119.39 85.488C119.678 84.9547 119.822 84.336 119.822 83.632ZM125.507 88.128C124.504 88.128 123.683 87.8987 123.043 87.44C122.413 86.9707 122.061 86.336 121.987 85.536H123.139C123.192 86.0267 123.421 86.4267 123.827 86.736C124.243 87.0347 124.797 87.184 125.491 87.184C126.099 87.184 126.573 87.04 126.915 86.752C127.267 86.464 127.443 86.1067 127.443 85.68C127.443 85.3813 127.347 85.136 127.155 84.944C126.963 84.752 126.717 84.6027 126.419 84.496C126.131 84.3787 125.736 84.256 125.235 84.128C124.584 83.9573 124.056 83.7867 123.651 83.616C123.245 83.4453 122.899 83.1947 122.611 82.864C122.333 82.5227 122.195 82.0693 122.195 81.504C122.195 81.0773 122.323 80.6827 122.579 80.32C122.835 79.9573 123.197 79.6693 123.667 79.456C124.136 79.2427 124.669 79.136 125.267 79.136C126.205 79.136 126.963 79.376 127.539 79.856C128.115 80.3253 128.424 80.976 128.467 81.808H127.347C127.315 81.296 127.112 80.8853 126.739 80.576C126.376 80.256 125.875 80.096 125.235 80.096C124.669 80.096 124.211 80.2293 123.859 80.496C123.507 80.7627 123.331 81.0933 123.331 81.488C123.331 81.8293 123.432 82.112 123.635 82.336C123.848 82.5493 124.109 82.72 124.419 82.848C124.728 82.9653 125.144 83.0987 125.667 83.248C126.296 83.4187 126.797 83.584 127.171 83.744C127.544 83.904 127.864 84.1387 128.131 84.448C128.397 84.7573 128.536 85.168 128.547 85.68C128.547 86.1493 128.419 86.5707 128.163 86.944C127.907 87.3067 127.549 87.5947 127.091 87.808C126.632 88.0213 126.104 88.128 125.507 88.128ZM136.855 79.264L131.671 92.112H130.503L132.199 87.952L128.615 79.264H129.847L132.823 86.72L135.703 79.264H136.855ZM140.382 88.128C139.379 88.128 138.558 87.8987 137.918 87.44C137.288 86.9707 136.936 86.336 136.862 85.536H138.014C138.067 86.0267 138.296 86.4267 138.702 86.736C139.118 87.0347 139.672 87.184 140.366 87.184C140.974 87.184 141.448 87.04 141.79 86.752C142.142 86.464 142.318 86.1067 142.318 85.68C142.318 85.3813 142.222 85.136 142.03 84.944C141.838 84.752 141.592 84.6027 141.294 84.496C141.006 84.3787 140.611 84.256 140.11 84.128C139.459 83.9573 138.931 83.7867 138.526 83.616C138.12 83.4453 137.774 83.1947 137.486 82.864C137.208 82.5227 137.07 82.0693 137.07 81.504C137.07 81.0773 137.198 80.6827 137.454 80.32C137.71 79.9573 138.072 79.6693 138.542 79.456C139.011 79.2427 139.544 79.136 140.142 79.136C141.08 79.136 141.838 79.376 142.414 79.856C142.99 80.3253 143.299 80.976 143.342 81.808H142.222C142.19 81.296 141.987 80.8853 141.614 80.576C141.251 80.256 140.75 80.096 140.11 80.096C139.544 80.096 139.086 80.2293 138.734 80.496C138.382 80.7627 138.206 81.0933 138.206 81.488C138.206 81.8293 138.307 82.112 138.51 82.336C138.723 82.5493 138.984 82.72 139.294 82.848C139.603 82.9653 140.019 83.0987 140.542 83.248C141.171 83.4187 141.672 83.584 142.046 83.744C142.419 83.904 142.739 84.1387 143.006 84.448C143.272 84.7573 143.411 85.168 143.422 85.68C143.422 86.1493 143.294 86.5707 143.038 86.944C142.782 87.3067 142.424 87.5947 141.966 87.808C141.507 88.0213 140.979 88.128 140.382 88.128ZM145.986 80.208V85.632C145.986 86.1653 146.087 86.5333 146.29 86.736C146.493 86.9387 146.85 87.04 147.362 87.04H148.386V88H147.186C146.397 88 145.81 87.8187 145.426 87.456C145.042 87.0827 144.85 86.4747 144.85 85.632V80.208H143.634V79.264H144.85V77.072H145.986V79.264H148.386V80.208H145.986ZM157.137 83.184C157.137 83.568 157.126 83.8613 157.105 84.064H149.857C149.889 84.7253 150.049 85.2907 150.337 85.76C150.625 86.2293 151.004 86.5867 151.473 86.832C151.942 87.0667 152.454 87.184 153.009 87.184C153.734 87.184 154.342 87.008 154.833 86.656C155.334 86.304 155.665 85.8293 155.825 85.232H157.009C156.796 86.0853 156.337 86.784 155.633 87.328C154.94 87.8613 154.065 88.128 153.009 88.128C152.188 88.128 151.452 87.9467 150.801 87.584C150.15 87.2107 149.638 86.688 149.265 86.016C148.902 85.3333 148.721 84.5387 148.721 83.632C148.721 82.7253 148.902 81.9307 149.265 81.248C149.628 80.5653 150.134 80.0427 150.785 79.68C151.436 79.3173 152.177 79.136 153.009 79.136C153.841 79.136 154.566 79.3173 155.185 79.68C155.814 80.0427 156.294 80.5333 156.625 81.152C156.966 81.76 157.137 82.4373 157.137 83.184ZM156.001 83.152C156.012 82.5013 155.878 81.9467 155.601 81.488C155.334 81.0293 154.966 80.6827 154.497 80.448C154.028 80.2133 153.516 80.096 152.961 80.096C152.129 80.096 151.42 80.3627 150.833 80.896C150.246 81.4293 149.921 82.1813 149.857 83.152H156.001ZM168.586 79.104C169.61 79.104 170.442 79.4293 171.082 80.08C171.733 80.72 172.058 81.6533 172.058 82.88V88H170.954V83.008C170.954 82.0587 170.725 81.3333 170.266 80.832C169.808 80.3307 169.184 80.08 168.394 80.08C167.573 80.08 166.917 80.352 166.426 80.896C165.936 81.44 165.69 82.2293 165.69 83.264V88H164.586V83.008C164.586 82.0587 164.357 81.3333 163.898 80.832C163.44 80.3307 162.81 80.08 162.01 80.08C161.189 80.08 160.533 80.352 160.042 80.896C159.552 81.44 159.306 82.2293 159.306 83.264V88H158.186V79.264H159.306V80.768C159.584 80.224 159.978 79.8133 160.49 79.536C161.002 79.248 161.573 79.104 162.202 79.104C162.96 79.104 163.621 79.2853 164.186 79.648C164.762 80.0107 165.178 80.544 165.434 81.248C165.669 80.5547 166.069 80.0267 166.634 79.664C167.21 79.2907 167.861 79.104 168.586 79.104ZM173.738 88.08C173.503 88.08 173.306 88 173.146 87.84C172.996 87.68 172.922 87.4827 172.922 87.248C172.922 87.0133 172.996 86.8213 173.146 86.672C173.306 86.512 173.503 86.432 173.738 86.432C173.962 86.432 174.148 86.512 174.298 86.672C174.458 86.8213 174.538 87.0133 174.538 87.248C174.538 87.4827 174.458 87.68 174.298 87.84C174.148 88 173.962 88.08 173.738 88.08ZM174.94 83.632C174.94 82.7253 175.121 81.936 175.484 81.264C175.847 80.5813 176.348 80.0587 176.988 79.696C177.628 79.3227 178.359 79.136 179.18 79.136C180.257 79.136 181.143 79.4027 181.836 79.936C182.54 80.4693 182.993 81.1947 183.196 82.112H181.996C181.847 81.4827 181.521 80.992 181.02 80.64C180.529 80.2773 179.916 80.096 179.18 80.096C178.593 80.096 178.065 80.2293 177.596 80.496C177.127 80.7627 176.753 81.1627 176.476 81.696C176.209 82.2187 176.076 82.864 176.076 83.632C176.076 84.4 176.209 85.0507 176.476 85.584C176.753 86.1173 177.127 86.5173 177.596 86.784C178.065 87.0507 178.593 87.184 179.18 87.184C179.916 87.184 180.529 87.008 181.02 86.656C181.521 86.2933 181.847 85.792 181.996 85.152H183.196C182.993 86.048 182.54 86.768 181.836 87.312C181.132 87.856 180.247 88.128 179.18 88.128C178.359 88.128 177.628 87.9467 176.988 87.584C176.348 87.2107 175.847 86.688 175.484 86.016C175.121 85.3333 174.94 84.5387 174.94 83.632ZM188.088 88.128C187.267 88.128 186.526 87.9467 185.864 87.584C185.214 87.2107 184.696 86.688 184.312 86.016C183.939 85.3333 183.752 84.5387 183.752 83.632C183.752 82.7253 183.944 81.936 184.328 81.264C184.712 80.5813 185.235 80.0587 185.896 79.696C186.558 79.3227 187.299 79.136 188.12 79.136C188.942 79.136 189.683 79.3227 190.344 79.696C191.016 80.0587 191.539 80.5813 191.912 81.264C192.296 81.936 192.488 82.7253 192.488 83.632C192.488 84.528 192.296 85.3173 191.912 86C191.528 86.6827 191 87.2107 190.328 87.584C189.656 87.9467 188.91 88.128 188.088 88.128ZM188.088 87.152C188.664 87.152 189.198 87.024 189.688 86.768C190.179 86.5013 190.574 86.1067 190.872 85.584C191.182 85.0507 191.336 84.4 191.336 83.632C191.336 82.864 191.187 82.2187 190.888 81.696C190.59 81.1627 190.195 80.768 189.704 80.512C189.214 80.2453 188.68 80.112 188.104 80.112C187.528 80.112 186.995 80.2453 186.504 80.512C186.014 80.768 185.619 81.1627 185.32 81.696C185.032 82.2187 184.888 82.864 184.888 83.632C184.888 84.4 185.032 85.0507 185.32 85.584C185.619 86.1067 186.008 86.5013 186.488 86.768C186.979 87.024 187.512 87.152 188.088 87.152ZM203.93 79.104C204.954 79.104 205.786 79.4293 206.426 80.08C207.077 80.72 207.402 81.6533 207.402 82.88V88H206.298V83.008C206.298 82.0587 206.069 81.3333 205.61 80.832C205.151 80.3307 204.527 80.08 203.738 80.08C202.917 80.08 202.261 80.352 201.77 80.896C201.279 81.44 201.034 82.2293 201.034 83.264V88H199.93V83.008C199.93 82.0587 199.701 81.3333 199.242 80.832C198.783 80.3307 198.154 80.08 197.354 80.08C196.533 80.08 195.877 80.352 195.386 80.896C194.895 81.44 194.65 82.2293 194.65 83.264V88H193.53V79.264H194.65V80.768C194.927 80.224 195.322 79.8133 195.834 79.536C196.346 79.248 196.917 79.104 197.546 79.104C198.303 79.104 198.965 79.2853 199.53 79.648C200.106 80.0107 200.522 80.544 200.778 81.248C201.013 80.5547 201.413 80.0267 201.978 79.664C202.554 79.2907 203.205 79.104 203.93 79.104ZM213.865 72.96L209.449 90.656H208.345L212.729 72.96H213.865ZM225.352 79.104C226.376 79.104 227.208 79.4293 227.848 80.08C228.499 80.72 228.824 81.6533 228.824 82.88V88H227.72V83.008C227.72 82.0587 227.491 81.3333 227.032 80.832C226.573 80.3307 225.949 80.08 225.16 80.08C224.339 80.08 223.683 80.352 223.192 80.896C222.701 81.44 222.456 82.2293 222.456 83.264V88H221.352V83.008C221.352 82.0587 221.123 81.3333 220.664 80.832C220.205 80.3307 219.576 80.08 218.776 80.08C217.955 80.08 217.299 80.352 216.808 80.896C216.317 81.44 216.072 82.2293 216.072 83.264V88H214.952V79.264H216.072V80.768C216.349 80.224 216.744 79.8133 217.256 79.536C217.768 79.248 218.339 79.104 218.968 79.104C219.725 79.104 220.387 79.2853 220.952 79.648C221.528 80.0107 221.944 80.544 222.2 81.248C222.435 80.5547 222.835 80.0267 223.4 79.664C223.976 79.2907 224.627 79.104 225.352 79.104ZM237.511 79.264L232.327 92.112H231.159L232.855 87.952L229.271 79.264H230.503L233.479 86.72L236.359 79.264H237.511ZM237.518 83.616C237.518 82.72 237.699 81.936 238.062 81.264C238.425 80.5813 238.921 80.0587 239.55 79.696C240.19 79.3227 240.91 79.136 241.71 79.136C242.478 79.136 243.171 79.3227 243.79 79.696C244.409 80.0693 244.862 80.5547 245.15 81.152V76.16H246.27V88H245.15V86.048C244.883 86.656 244.446 87.1573 243.838 87.552C243.23 87.936 242.515 88.128 241.694 88.128C240.894 88.128 240.174 87.9413 239.534 87.568C238.905 87.1947 238.409 86.6667 238.046 85.984C237.694 85.3013 237.518 84.512 237.518 83.616ZM245.15 83.632C245.15 82.928 245.006 82.3093 244.718 81.776C244.43 81.2427 244.035 80.832 243.534 80.544C243.043 80.256 242.499 80.112 241.902 80.112C241.283 80.112 240.729 80.2507 240.238 80.528C239.747 80.8053 239.358 81.2107 239.07 81.744C238.793 82.2667 238.654 82.8907 238.654 83.616C238.654 84.3307 238.793 84.96 239.07 85.504C239.358 86.0373 239.747 86.448 240.238 86.736C240.729 87.0133 241.283 87.152 241.902 87.152C242.499 87.152 243.043 87.008 243.534 86.72C244.035 86.432 244.43 86.0213 244.718 85.488C245.006 84.9547 245.15 84.336 245.15 83.632ZM247.315 83.616C247.315 82.72 247.491 81.936 247.843 81.264C248.206 80.5813 248.702 80.0587 249.331 79.696C249.971 79.3227 250.691 79.136 251.491 79.136C252.323 79.136 253.038 79.328 253.635 79.712C254.243 80.096 254.68 80.5867 254.947 81.184V79.264H256.067V88H254.947V86.064C254.67 86.6613 254.227 87.1573 253.619 87.552C253.022 87.936 252.307 88.128 251.475 88.128C250.686 88.128 249.971 87.9413 249.331 87.568C248.702 87.1947 248.206 86.6667 247.843 85.984C247.491 85.3013 247.315 84.512 247.315 83.616ZM254.947 83.632C254.947 82.928 254.803 82.3093 254.515 81.776C254.227 81.2427 253.832 80.832 253.331 80.544C252.84 80.256 252.296 80.112 251.699 80.112C251.08 80.112 250.526 80.2507 250.035 80.528C249.544 80.8053 249.155 81.2107 248.867 81.744C248.59 82.2667 248.451 82.8907 248.451 83.616C248.451 84.3307 248.59 84.96 248.867 85.504C249.155 86.0373 249.544 86.448 250.035 86.736C250.526 87.0133 251.08 87.152 251.699 87.152C252.296 87.152 252.84 87.008 253.331 86.72C253.832 86.432 254.227 86.0213 254.515 85.488C254.803 84.9547 254.947 84.336 254.947 83.632ZM259.08 80.208V85.632C259.08 86.1653 259.181 86.5333 259.384 86.736C259.586 86.9387 259.944 87.04 260.456 87.04H261.48V88H260.28C259.49 88 258.904 87.8187 258.52 87.456C258.136 87.0827 257.944 86.4747 257.944 85.632V80.208H256.728V79.264H257.944V77.072H259.08V79.264H261.48V80.208H259.08ZM261.815 83.616C261.815 82.72 261.991 81.936 262.343 81.264C262.706 80.5813 263.202 80.0587 263.831 79.696C264.471 79.3227 265.191 79.136 265.991 79.136C266.823 79.136 267.538 79.328 268.135 79.712C268.743 80.096 269.18 80.5867 269.447 81.184V79.264H270.567V88H269.447V86.064C269.17 86.6613 268.727 87.1573 268.119 87.552C267.522 87.936 266.807 88.128 265.975 88.128C265.186 88.128 264.471 87.9413 263.831 87.568C263.202 87.1947 262.706 86.6667 262.343 85.984C261.991 85.3013 261.815 84.512 261.815 83.616ZM269.447 83.632C269.447 82.928 269.303 82.3093 269.015 81.776C268.727 81.2427 268.332 80.832 267.831 80.544C267.34 80.256 266.796 80.112 266.199 80.112C265.58 80.112 265.026 80.2507 264.535 80.528C264.044 80.8053 263.655 81.2107 263.367 81.744C263.09 82.2667 262.951 82.8907 262.951 83.616C262.951 84.3307 263.09 84.96 263.367 85.504C263.655 86.0373 264.044 86.448 264.535 86.736C265.026 87.0133 265.58 87.152 266.199 87.152C266.796 87.152 267.34 87.008 267.831 86.72C268.332 86.432 268.727 86.0213 269.015 85.488C269.303 84.9547 269.447 84.336 269.447 83.632ZM277.1 72.96L272.684 90.656H271.58L275.964 72.96H277.1ZM278.378 88.08C278.144 88.08 277.946 88 277.786 87.84C277.637 87.68 277.562 87.4827 277.562 87.248C277.562 87.0133 277.637 86.8213 277.786 86.672C277.946 86.512 278.144 86.432 278.378 86.432C278.602 86.432 278.789 86.512 278.938 86.672C279.098 86.8213 279.178 87.0133 279.178 87.248C279.178 87.4827 279.098 87.68 278.938 87.84C278.789 88 278.602 88.08 278.378 88.08ZM280.285 88.08C280.05 88.08 279.853 88 279.693 87.84C279.543 87.68 279.469 87.4827 279.469 87.248C279.469 87.0133 279.543 86.8213 279.693 86.672C279.853 86.512 280.05 86.432 280.285 86.432C280.509 86.432 280.695 86.512 280.845 86.672C281.005 86.8213 281.085 87.0133 281.085 87.248C281.085 87.4827 281.005 87.68 280.845 87.84C280.695 88 280.509 88.08 280.285 88.08ZM282.191 88.08C281.956 88.08 281.759 88 281.599 87.84C281.449 87.68 281.375 87.4827 281.375 87.248C281.375 87.0133 281.449 86.8213 281.599 86.672C281.759 86.512 281.956 86.432 282.191 86.432C282.415 86.432 282.601 86.512 282.751 86.672C282.911 86.8213 282.991 87.0133 282.991 87.248C282.991 87.4827 282.911 87.68 282.751 87.84C282.601 88 282.415 88.08 282.191 88.08Z" fill="#009934"/>
<path d="M332.688 82.416C332.688 81.328 332.933 80.352 333.424 79.488C333.915 78.6133 334.581 77.9307 335.424 77.44C336.277 76.9493 337.221 76.704 338.256 76.704C339.472 76.704 340.533 76.9973 341.44 77.584C342.347 78.1707 343.008 79.0027 343.424 80.08H341.68C341.371 79.408 340.923 78.8907 340.336 78.528C339.76 78.1653 339.067 77.984 338.256 77.984C337.477 77.984 336.779 78.1653 336.16 78.528C335.541 78.8907 335.056 79.408 334.704 80.08C334.352 80.7413 334.176 81.52 334.176 82.416C334.176 83.3013 334.352 84.08 334.704 84.752C335.056 85.4133 335.541 85.9253 336.16 86.288C336.779 86.6507 337.477 86.832 338.256 86.832C339.067 86.832 339.76 86.656 340.336 86.304C340.923 85.9413 341.371 85.424 341.68 84.752H343.424C343.008 85.8187 342.347 86.6453 341.44 87.232C340.533 87.808 339.472 88.096 338.256 88.096C337.221 88.096 336.277 87.856 335.424 87.376C334.581 86.8853 333.915 86.208 333.424 85.344C332.933 84.48 332.688 83.504 332.688 82.416ZM348.415 88.144C347.594 88.144 346.847 87.9573 346.175 87.584C345.514 87.2107 344.991 86.6827 344.607 86C344.234 85.3067 344.047 84.5067 344.047 83.6C344.047 82.704 344.239 81.9147 344.623 81.232C345.018 80.5387 345.551 80.0107 346.223 79.648C346.895 79.2747 347.647 79.088 348.479 79.088C349.311 79.088 350.063 79.2747 350.735 79.648C351.407 80.0107 351.935 80.5333 352.319 81.216C352.714 81.8987 352.911 82.6933 352.911 83.6C352.911 84.5067 352.709 85.3067 352.303 86C351.909 86.6827 351.37 87.2107 350.687 87.584C350.005 87.9573 349.247 88.144 348.415 88.144ZM348.415 86.864C348.938 86.864 349.429 86.7413 349.887 86.496C350.346 86.2507 350.714 85.8827 350.991 85.392C351.279 84.9013 351.423 84.304 351.423 83.6C351.423 82.896 351.285 82.2987 351.007 81.808C350.73 81.3173 350.367 80.9547 349.919 80.72C349.471 80.4747 348.986 80.352 348.463 80.352C347.93 80.352 347.439 80.4747 346.991 80.72C346.554 80.9547 346.202 81.3173 345.935 81.808C345.669 82.2987 345.535 82.896 345.535 83.6C345.535 84.3147 345.663 84.9173 345.919 85.408C346.186 85.8987 346.538 86.2667 346.975 86.512C347.413 86.7467 347.893 86.864 348.415 86.864ZM355.282 80.848C355.57 80.3467 355.996 79.9307 356.562 79.6C357.138 79.2587 357.804 79.088 358.562 79.088C359.34 79.088 360.044 79.2747 360.674 79.648C361.314 80.0213 361.815 80.5493 362.178 81.232C362.54 81.904 362.722 82.688 362.722 83.584C362.722 84.4693 362.54 85.2587 362.178 85.952C361.815 86.6453 361.314 87.184 360.674 87.568C360.044 87.952 359.34 88.144 358.562 88.144C357.815 88.144 357.154 87.9787 356.578 87.648C356.012 87.3067 355.58 86.8853 355.282 86.384V92.16H353.826V79.232H355.282V80.848ZM361.234 83.584C361.234 82.9227 361.1 82.3467 360.834 81.856C360.567 81.3653 360.204 80.992 359.746 80.736C359.298 80.48 358.802 80.352 358.258 80.352C357.724 80.352 357.228 80.4853 356.77 80.752C356.322 81.008 355.959 81.3867 355.682 81.888C355.415 82.3787 355.282 82.9493 355.282 83.6C355.282 84.2613 355.415 84.8427 355.682 85.344C355.959 85.8347 356.322 86.2133 356.77 86.48C357.228 86.736 357.724 86.864 358.258 86.864C358.802 86.864 359.298 86.736 359.746 86.48C360.204 86.2133 360.567 85.8347 360.834 85.344C361.1 84.8427 361.234 84.256 361.234 83.584ZM371.19 79.232L365.91 92.128H364.406L366.134 87.904L362.598 79.232H364.214L366.966 86.336L369.686 79.232H371.19ZM376.376 86.816H380.28V88H374.92V76.848H376.376V86.816ZM381.578 77.808C381.3 77.808 381.066 77.712 380.874 77.52C380.682 77.328 380.586 77.0933 380.586 76.816C380.586 76.5387 380.682 76.304 380.874 76.112C381.066 75.92 381.3 75.824 381.578 75.824C381.844 75.824 382.068 75.92 382.25 76.112C382.442 76.304 382.538 76.5387 382.538 76.816C382.538 77.0933 382.442 77.328 382.25 77.52C382.068 77.712 381.844 77.808 381.578 77.808ZM382.282 79.232V88H380.826V79.232H382.282ZM388.035 79.072C389.102 79.072 389.966 79.3973 390.627 80.048C391.289 80.688 391.619 81.616 391.619 82.832V88H390.179V83.04C390.179 82.1653 389.961 81.4987 389.523 81.04C389.086 80.5707 388.489 80.336 387.731 80.336C386.963 80.336 386.35 80.576 385.891 81.056C385.443 81.536 385.219 82.2347 385.219 83.152V88H383.763V79.232H385.219V80.48C385.507 80.032 385.897 79.6853 386.387 79.44C386.889 79.1947 387.438 79.072 388.035 79.072ZM397.894 88L394.454 84.128V88H392.998V76.16H394.454V83.12L397.83 79.232H399.862L395.734 83.6L399.878 88H397.894Z" fill="#00AAFF"/>
</svg>
