<svg width="48" height="48" viewBox="0 0 48 48" fill="none" xmlns="http://www.w3.org/2000/svg">
<g clip-path="url(#clip0_94_1209)">
<path d="M48.0001 22.494C47.7108 17.8141 46.0584 13.321 43.2464 9.56888C40.4345 5.81671 36.5861 2.96941 32.1755 1.37802C27.7649 -0.213377 22.9851 -0.479304 18.4252 0.61302C13.8653 1.70534 9.72474 4.10817 6.51396 7.52527C3.30318 10.9424 1.16254 15.2244 0.355944 19.8433C-0.450654 24.4623 0.112053 29.2164 1.97469 33.5195C3.83733 37.8225 6.91848 41.4864 10.8383 44.0595C14.7581 46.6326 19.3452 48.0024 24.0341 48H38.0001C40.6514 47.9974 43.1934 46.943 45.0682 45.0682C46.943 43.1934 47.9974 40.6514 48.0001 38V22.494ZM44.0001 38C44.0001 39.5913 43.3679 41.1175 42.2427 42.2427C41.1175 43.3679 39.5914 44 38.0001 44H24.0341C21.2119 43.9987 18.4217 43.4027 15.8455 42.2506C13.2692 41.0986 10.9646 39.4165 9.08206 37.314C7.19041 35.2126 5.76992 32.731 4.91585 30.0356C4.06177 27.3402 3.79386 24.4934 4.13006 21.686C4.66093 17.2579 6.65044 13.1324 9.78494 9.95988C12.9194 6.78735 17.0207 4.74825 21.4421 4.16403C22.3045 4.05593 23.1728 4.00116 24.0421 4.00003C28.703 3.98731 33.2197 5.61583 36.8001 8.60003C38.8911 10.3379 40.6075 12.4823 41.8451 14.9033C43.0828 17.3242 43.8159 19.9713 44.0001 22.684V38Z" fill="#00AAFF"/>
<path d="M16 18H24C24.5304 18 25.0391 17.7893 25.4142 17.4142C25.7893 17.0391 26 16.5304 26 16C26 15.4696 25.7893 14.9609 25.4142 14.5858C25.0391 14.2107 24.5304 14 24 14H16C15.4696 14 14.9609 14.2107 14.5858 14.5858C14.2107 14.9609 14 15.4696 14 16C14 16.5304 14.2107 17.0391 14.5858 17.4142C14.9609 17.7893 15.4696 18 16 18Z" fill="#00AAFF"/>
<path d="M32 22H16C15.4696 22 14.9609 22.2107 14.5858 22.5858C14.2107 22.9609 14 23.4696 14 24C14 24.5304 14.2107 25.0391 14.5858 25.4142C14.9609 25.7893 15.4696 26 16 26H32C32.5304 26 33.0391 25.7893 33.4142 25.4142C33.7893 25.0391 34 24.5304 34 24C34 23.4696 33.7893 22.9609 33.4142 22.5858C33.0391 22.2107 32.5304 22 32 22Z" fill="#00AAFF"/>
<path d="M32 30H16C15.4696 30 14.9609 30.2107 14.5858 30.5858C14.2107 30.9609 14 31.4696 14 32C14 32.5304 14.2107 33.0391 14.5858 33.4142C14.9609 33.7893 15.4696 34 16 34H32C32.5304 34 33.0391 33.7893 33.4142 33.4142C33.7893 33.0391 34 32.5304 34 32C34 31.4696 33.7893 30.9609 33.4142 30.5858C33.0391 30.2107 32.5304 30 32 30Z" fill="#00AAFF"/>
</g>
<defs>
<clipPath id="clip0_94_1209">
<rect width="48" height="48" fill="white"/>
</clipPath>
</defs>
</svg>
