<svg width="375" height="301" viewBox="0 0 375 301" fill="none" xmlns="http://www.w3.org/2000/svg">
<g filter="url(#filter0_b_2_662)">
<rect width="375" height="301" rx="8" fill="#D5D9DF"/>
<g filter="url(#filter1_d_2_662)">
<rect x="3.62317" y="8" width="32.6087" height="45" rx="5" fill="white"/>
<path d="M19.4152 24.585C16.1559 24.585 14.0074 27.1606 14.0074 31.1523C14.0074 35.1318 16.1559 37.7197 19.3663 37.7197C21.1608 37.7197 22.6378 36.8286 23.4313 35.376H23.4801V41.7358H25.6041V24.8047H23.5778V26.9531H23.5289C22.7111 25.4883 21.2584 24.585 19.4152 24.585ZM19.7936 35.8521C17.5719 35.8521 16.1803 34.0454 16.1803 31.1523C16.1803 28.2471 17.5719 26.4526 19.7936 26.4526C21.9664 26.4526 23.4801 28.3203 23.4801 31.1523C23.4801 33.9844 21.9664 35.8521 19.7936 35.8521Z" fill="black"/>
</g>
<g filter="url(#filter2_d_2_662)">
<rect x="41.6666" y="8" width="31.7029" height="45" rx="5" fill="white"/>
<path d="M66.2482 24.8047H64.1486L61.6095 35.1318H61.5607L58.6798 24.8047H56.629L53.7604 35.1318H53.7115L51.1725 24.8047H49.0607L52.6129 37.5H54.7736L57.63 27.6733H57.6788L60.5475 37.5H62.7081L66.2482 24.8047Z" fill="black"/>
</g>
<g filter="url(#filter3_d_2_662)">
<rect x="78.8043" y="8" width="31.7029" height="45" rx="5" fill="white"/>
<path d="M98.1979 33.8623C97.8439 35.0586 96.6598 35.8765 95.0485 35.8765C92.7657 35.8765 91.3375 34.2773 91.3375 31.8481V31.7261H100.444V30.9204C100.444 27.0752 98.3322 24.585 94.902 24.585C91.3986 24.585 89.1525 27.2583 89.1525 31.2012C89.1525 35.1929 91.3619 37.7197 94.9996 37.7197C97.7706 37.7197 99.9191 36.084 100.285 33.8623H98.1979ZM94.8654 26.4282C96.8673 26.4282 98.1979 27.9419 98.2467 30.0659H91.3497C91.484 27.9541 92.8756 26.4282 94.8654 26.4282Z" fill="black"/>
</g>
<g filter="url(#filter4_d_2_662)">
<rect x="115.942" y="8" width="31.7029" height="45" rx="5" fill="white"/>
<path d="M129.464 37.5H131.588V29.5898C131.588 27.7954 132.662 26.6113 134.31 26.6113C134.823 26.6113 135.275 26.6724 135.445 26.7334V24.6704C135.275 24.646 134.957 24.585 134.591 24.585C133.102 24.585 131.93 25.4761 131.515 26.8799H131.466V24.8047H129.464V37.5Z" fill="black"/>
</g>
<g filter="url(#filter5_d_2_662)">
<rect x="153.08" y="8" width="31.7029" height="45" rx="5" fill="white"/>
<path d="M167.371 21.7407V24.8047H165.479V26.5503H167.371V34.2041C167.371 36.6455 168.274 37.5977 170.606 37.5977C171.106 37.5977 171.692 37.561 171.948 37.5V35.7178C171.802 35.7422 171.314 35.7788 171.069 35.7788C169.983 35.7788 169.495 35.2539 169.495 34.0942V26.5503H171.961V24.8047H169.495V21.7407H167.371Z" fill="black"/>
</g>
<g filter="url(#filter6_d_2_662)">
<rect x="190.217" y="8" width="31.7029" height="45" rx="5" fill="white"/>
<path d="M202.58 42.2485C204.875 42.2485 205.924 41.3574 207.011 38.3911L212.004 24.8047H209.77L206.254 35.376H206.217L202.702 24.8047H200.431L205.119 37.5122L204.826 38.4033C204.338 39.8804 203.678 40.4541 202.494 40.4541C202.226 40.4541 201.896 40.4419 201.664 40.3931V42.1753C201.896 42.2241 202.323 42.2485 202.58 42.2485Z" fill="black"/>
</g>
<g filter="url(#filter7_d_2_662)">
<rect x="227.355" y="8" width="31.7029" height="45" rx="5" fill="white"/>
<path d="M248.568 24.8047H246.443V32.2632C246.443 34.4238 245.198 35.8398 243.135 35.8398C241.17 35.8398 240.206 34.729 240.206 32.666V24.8047H238.082V33.0444C238.082 35.9253 239.705 37.7197 242.476 37.7197C244.429 37.7197 245.748 36.9019 246.505 35.437H246.553V37.5H248.568V24.8047Z" fill="black"/>
</g>
<g filter="url(#filter8_d_2_662)">
<rect x="264.493" y="8" width="31.7029" height="45" rx="5" fill="white"/>
<path d="M280.493 22.5464C281.237 22.5464 281.823 21.9482 281.823 21.2158C281.823 20.4712 281.237 19.8853 280.493 19.8853C279.76 19.8853 279.162 20.4712 279.162 21.2158C279.162 21.9482 279.76 22.5464 280.493 22.5464ZM279.431 37.5H281.555V24.8047H279.431V37.5Z" fill="black"/>
</g>
<g filter="url(#filter9_d_2_662)">
<rect x="301.63" y="8" width="31.7029" height="45" rx="5" fill="white"/>
<path d="M317.63 37.7197C321.134 37.7197 323.502 35.1929 323.502 31.1523C323.502 27.0996 321.134 24.585 317.63 24.585C314.115 24.585 311.747 27.0996 311.747 31.1523C311.747 35.1929 314.115 37.7197 317.63 37.7197ZM317.63 35.8521C315.384 35.8521 313.907 34.1431 313.907 31.1523C313.907 28.1616 315.384 26.4526 317.63 26.4526C319.876 26.4526 321.341 28.1616 321.341 31.1523C321.341 34.1431 319.876 35.8521 317.63 35.8521Z" fill="black"/>
</g>
<g filter="url(#filter10_d_2_662)">
<rect x="338.768" y="8" width="32.6087" height="45" rx="5" fill="white"/>
<path d="M355.939 24.585C354.096 24.585 352.619 25.5249 351.838 26.9531H351.789V24.8047H349.775V41.7358H351.899V35.437H351.948C352.705 36.8286 354.169 37.7197 355.988 37.7197C359.187 37.7197 361.372 35.1318 361.372 31.1523C361.372 27.1729 359.174 24.585 355.939 24.585ZM355.524 35.8521C353.352 35.8521 351.887 33.9844 351.887 31.1523C351.887 28.3325 353.352 26.4526 355.524 26.4526C357.783 26.4526 359.199 28.2837 359.199 31.1523C359.199 34.0332 357.783 35.8521 355.524 35.8521Z" fill="black"/>
</g>
<g filter="url(#filter11_d_2_662)">
<rect x="22.6449" y="64" width="32.6087" height="45" rx="5" fill="white"/>
<path d="M37.9608 93.7197C39.6698 93.7197 41.2811 92.7676 42.038 91.3149H42.0868V93.5H44.101V84.7231C44.101 82.1963 42.2211 80.585 39.2426 80.585C36.2396 80.585 34.3597 82.2695 34.2133 84.4668H36.264C36.5326 83.2217 37.558 82.4526 39.1937 82.4526C40.9515 82.4526 41.9769 83.3804 41.9769 84.9307V85.9927L38.3392 86.2002C35.4095 86.3711 33.7372 87.7383 33.7372 89.9111C33.7372 92.1938 35.434 93.7197 37.9608 93.7197ZM38.4369 91.9131C36.911 91.9131 35.8978 91.1196 35.8978 89.9111C35.8978 88.7148 36.8744 87.958 38.5834 87.8481L41.9769 87.6406V88.6782C41.9769 90.5093 40.4388 91.9131 38.4369 91.9131Z" fill="black"/>
</g>
<g filter="url(#filter12_d_2_662)">
<rect x="60.6884" y="64" width="31.7029" height="45" rx="5" fill="white"/>
<path d="M72.0253 84.3081C72.0253 86.1392 73.1849 87.25 75.5775 87.8237L77.5917 88.312C79.0443 88.666 79.5448 89.1909 79.5448 90.1064C79.5448 91.2539 78.4828 91.9863 76.7616 91.9863C75.0404 91.9863 74.0638 91.2905 73.8075 89.8379H71.6835C71.9276 92.2183 73.7831 93.7197 76.7616 93.7197C79.5936 93.7197 81.681 92.1572 81.681 89.9478C81.681 88.1289 80.7533 87.1279 78.1898 86.5054L76.1757 86.0171C74.7596 85.6753 74.1127 85.0771 74.1127 84.1982C74.1127 83.0874 75.1381 82.3184 76.6884 82.3184C78.2509 82.3184 79.2274 83.1362 79.3861 84.4668H81.4125C81.327 82.2207 79.4716 80.585 76.6884 80.585C73.9418 80.585 72.0253 82.1353 72.0253 84.3081Z" fill="black"/>
</g>
<g filter="url(#filter13_d_2_662)">
<rect x="97.826" y="64" width="31.7029" height="45" rx="5" fill="white"/>
<path d="M113.094 93.7197C114.925 93.7197 116.377 92.8164 117.195 91.3516H117.232V93.5H119.258V75.8853H117.134V82.8677H117.085C116.328 81.4761 114.864 80.585 113.045 80.585C109.847 80.585 107.661 83.1729 107.661 87.1523C107.661 91.1318 109.859 93.7197 113.094 93.7197ZM113.496 82.4526C115.682 82.4526 117.146 84.3203 117.146 87.1523C117.146 89.9966 115.682 91.8521 113.496 91.8521C111.25 91.8521 109.834 90.0332 109.834 87.1523C109.834 84.2837 111.25 82.4526 113.496 82.4526Z" fill="black"/>
</g>
<g filter="url(#filter14_d_2_662)">
<rect x="134.964" y="64" width="31.7029" height="45" rx="5" fill="white"/>
<path d="M149.23 93.5H151.354V82.5503H153.942V80.8047H151.342V79.4009C151.342 78.1436 151.891 77.5332 153.039 77.5332C153.393 77.5332 153.747 77.5698 154.003 77.6064V75.8853C153.698 75.8364 153.185 75.7876 152.709 75.7876C150.366 75.7876 149.23 76.9473 149.23 79.3887V80.8047H147.46V82.5503H149.23V93.5Z" fill="black"/>
</g>
<g filter="url(#filter15_d_2_662)">
<rect x="172.101" y="64" width="31.7029" height="45" rx="5" fill="white"/>
<path d="M187.845 98.2852C191.349 98.2852 193.582 96.271 193.582 93.2437V80.8047H191.556V82.9409H191.519C190.677 81.4639 189.188 80.585 187.393 80.585C184.11 80.585 181.986 83.124 181.986 87.1035C181.986 91.0464 184.11 93.5977 187.345 93.5977C189.127 93.5977 190.628 92.6943 191.41 91.3149H191.458V93.3169C191.458 95.209 190.128 96.4785 187.931 96.4785C186.344 96.4785 185.086 95.7095 184.671 94.5498H182.486C182.84 96.7104 185.05 98.2852 187.845 98.2852ZM187.772 91.73C185.587 91.73 184.159 89.9478 184.159 87.1035C184.159 84.2593 185.587 82.4526 187.772 82.4526C189.981 82.4526 191.458 84.3081 191.458 87.1035C191.458 89.8989 189.981 91.73 187.772 91.73Z" fill="black"/>
</g>
<g filter="url(#filter16_d_2_662)">
<rect x="209.239" y="64" width="31.7029" height="45" rx="5" fill="white"/>
<path d="M219.99 93.5H222.114V86.1025C222.114 83.9053 223.42 82.4648 225.532 82.4648C227.522 82.4648 228.535 83.6733 228.535 85.6875V93.5H230.659V85.2969C230.659 82.4648 228.974 80.585 226.191 80.585C224.263 80.585 222.871 81.415 222.163 82.8311H222.114V75.8853H219.99V93.5Z" fill="black"/>
</g>
<g filter="url(#filter17_d_2_662)">
<rect x="246.377" y="64" width="31.7029" height="45" rx="5" fill="white"/>
<path d="M262.365 78.5464C263.109 78.5464 263.695 77.9482 263.695 77.2158C263.695 76.4712 263.109 75.8853 262.365 75.8853C261.632 75.8853 261.034 76.4712 261.034 77.2158C261.034 77.9482 261.632 78.5464 262.365 78.5464ZM263.439 80.8047H261.315V94.147C261.315 95.563 260.814 96.0879 259.435 96.0879H259.105V97.8579C259.13 97.8701 259.472 97.8701 259.508 97.8701C262.218 97.8701 263.439 96.6982 263.439 94.1226V80.8047Z" fill="black"/>
</g>
<g filter="url(#filter18_d_2_662)">
<rect x="283.515" y="64" width="31.7029" height="45" rx="5" fill="white"/>
<path d="M297.061 88.7148L298.245 87.5918L302.957 93.5H305.423L299.746 86.2856L305.252 80.8047H302.676L297.061 86.4443V75.8853H294.937V93.5H297.061V88.7148Z" fill="black"/>
</g>
<g filter="url(#filter19_d_2_662)">
<rect x="320.652" y="64" width="32.6087" height="45" rx="5" fill="white"/>
<path d="M336.09 93.5H338.214V75.8853H336.09V93.5Z" fill="black"/>
</g>
<g filter="url(#filter20_d_2_662)">
<rect x="60.6884" y="120" width="31.7029" height="45" rx="5" fill="white"/>
<path d="M71.952 149.5H81.4247V147.754H74.4056V147.718L81.3881 138.355V136.805H71.9642V138.55H78.9833V138.587L71.952 147.986V149.5Z" fill="black"/>
</g>
<g filter="url(#filter21_d_2_662)">
<rect x="97.826" y="120" width="31.7029" height="45" rx="5" fill="white"/>
<path d="M113.826 144.666L116.866 149.5H119.222L114.998 143.067L119.283 136.805H116.914L113.899 141.565H113.85L110.799 136.805H108.431L112.679 143.152L108.357 149.5H110.713L113.777 144.666H113.826Z" fill="black"/>
</g>
<g filter="url(#filter22_d_2_662)">
<rect x="134.964" y="120" width="31.7029" height="45" rx="5" fill="white"/>
<path d="M156.628 140.967C156.359 138.685 154.467 136.585 151.293 136.585C147.79 136.585 145.458 139.148 145.458 143.152C145.458 147.242 147.802 149.72 151.318 149.72C154.199 149.72 156.323 147.938 156.652 145.411H154.565C154.199 146.937 153.063 147.852 151.33 147.852C149.133 147.852 147.619 146.106 147.619 143.152C147.619 140.271 149.108 138.453 151.306 138.453C153.173 138.453 154.247 139.588 154.553 140.967H156.628Z" fill="black"/>
</g>
<g filter="url(#filter23_d_2_662)">
<rect x="172.101" y="120" width="31.7029" height="45" rx="5" fill="white"/>
<path d="M193.851 136.805H191.641L188.126 147.242H188.077L184.574 136.805H182.34L187.015 149.5H189.188L193.851 136.805Z" fill="black"/>
</g>
<g filter="url(#filter24_d_2_662)">
<rect x="209.239" y="120" width="31.7029" height="45" rx="5" fill="white"/>
<path d="M225.996 149.72C229.243 149.72 231.391 147.144 231.391 143.152C231.391 139.173 229.231 136.585 226.033 136.585C224.238 136.585 222.761 137.476 221.968 138.929H221.919V131.885H219.795V149.5H221.821V147.352H221.87C222.688 148.816 224.141 149.72 225.996 149.72ZM225.581 138.453C227.827 138.453 229.219 140.271 229.219 143.152C229.219 146.058 227.827 147.852 225.581 147.852C223.432 147.852 221.907 145.984 221.907 143.152C221.907 140.333 223.432 138.453 225.581 138.453Z" fill="black"/>
</g>
<g filter="url(#filter25_d_2_662)">
<rect x="246.377" y="120" width="31.7029" height="45" rx="5" fill="white"/>
<path d="M257.164 149.5H259.288V142.029C259.288 139.881 260.595 138.465 262.597 138.465C264.55 138.465 265.514 139.588 265.514 141.639V149.5H267.638V141.26C267.638 138.379 266.027 136.585 263.244 136.585C261.278 136.585 259.923 137.464 259.215 138.831H259.166V136.805H257.164V149.5Z" fill="black"/>
</g>
<g filter="url(#filter26_d_2_662)">
<rect x="283.515" y="120" width="31.7029" height="45" rx="5" fill="white"/>
<path d="M290.848 149.5H292.972V141.541C292.972 139.783 294.192 138.465 295.877 138.465C297.452 138.465 298.477 139.466 298.477 140.992V149.5H300.601V141.431C300.601 139.71 301.785 138.465 303.47 138.465C305.142 138.465 306.106 139.49 306.106 141.224V149.5H308.23V140.735C308.23 138.221 306.607 136.585 304.092 136.585C302.31 136.585 300.821 137.488 300.113 139.002H300.064C299.515 137.464 298.233 136.585 296.499 136.585C294.79 136.585 293.496 137.488 292.898 138.831H292.849V136.805H290.848V149.5Z" fill="black"/>
</g>
<g filter="url(#filter27_d_2_662)">
<rect x="3.62317" y="120" width="40.7609" height="45" rx="5" fill="#B4BBC6"/>
<path fill-rule="evenodd" clip-rule="evenodd" d="M21.8614 134.524C22.5601 133.824 23.6878 133.827 24.3835 134.524L32.9353 143.1C33.3706 143.536 33.8263 144.23 33.527 144.96C33.2269 145.691 32.4144 145.859 31.8001 145.859H28.4809V150.218C28.4809 151.196 27.6811 152 26.6973 152H19.5477C18.567 152 17.764 151.207 17.764 150.218V145.859H14.4448C13.8305 145.859 13.0204 145.69 12.72 144.96C12.42 144.231 12.8734 143.537 13.3096 143.1L21.8614 134.524ZM23.301 135.61C23.2016 135.51 23.0433 135.51 22.9439 135.61L14.3922 144.185C14.3446 144.233 14.3053 144.277 14.2732 144.316C14.3225 144.321 14.3796 144.324 14.4448 144.324H19.295V150.218C19.295 150.35 19.403 150.465 19.5477 150.465H26.6973C26.838 150.465 26.9499 150.346 26.9499 150.218V144.324H31.8001C31.8654 144.324 31.9225 144.321 31.9719 144.316C31.9397 144.277 31.9003 144.233 31.8527 144.185L23.301 135.61Z" fill="black"/>
</g>
<g filter="url(#filter28_d_2_662)">
<rect x="330.616" y="120" width="40.7609" height="45" rx="5" fill="#B4BBC6"/>
<path fill-rule="evenodd" clip-rule="evenodd" d="M339.052 143.559C338.467 142.974 338.474 142.019 339.052 141.441L345.783 134.71C346.175 134.318 346.942 134 347.5 134L358.121 134C360.053 134 361.619 135.569 361.619 137.502V147.498C361.619 149.432 360.042 151 358.121 151L347.5 151C346.944 151 346.17 150.677 345.783 150.29L339.052 143.559ZM353.737 142.478L356.561 139.654C356.855 139.36 356.859 138.882 356.566 138.589C356.271 138.294 355.796 138.298 355.501 138.593L352.677 141.417L349.852 138.593C349.559 138.3 349.08 138.296 348.788 138.589C348.493 138.884 348.497 139.358 348.792 139.654L351.616 142.478L348.792 145.302C348.499 145.595 348.495 146.074 348.788 146.367C349.082 146.662 349.557 146.658 349.852 146.362L352.677 143.538L355.501 146.362C355.794 146.656 356.273 146.66 356.566 146.367C356.861 146.072 356.857 145.597 356.561 145.302L353.737 142.478ZM340.702 143.21C340.311 142.818 340.312 142.181 340.702 141.79L346.636 135.857C346.833 135.66 347.218 135.5 347.487 135.5L358.116 135.5C359.222 135.5 360.119 136.397 360.119 137.506V147.494C360.119 148.602 359.225 149.5 358.116 149.5L347.487 149.5C347.214 149.5 346.833 149.341 346.636 149.143L340.702 143.21Z" fill="black"/>
</g>
<g filter="url(#filter29_d_2_662)">
<rect x="283.515" y="176" width="88" height="45" rx="5" fill="#007AFF"/>
<path d="M315.592 204.648C316.756 204.648 317.756 204.094 318.288 203.156H318.413V204.5H319.694V192.734H318.35V197.406H318.233C317.756 196.484 316.764 195.93 315.592 195.93C313.452 195.93 312.053 197.648 312.053 200.289C312.053 202.938 313.436 204.648 315.592 204.648ZM315.905 197.141C317.428 197.141 318.381 198.359 318.381 200.289C318.381 202.234 317.436 203.438 315.905 203.438C314.366 203.438 313.444 202.258 313.444 200.289C313.444 198.328 314.374 197.141 315.905 197.141ZM325.444 204.648C327.843 204.648 329.327 202.992 329.327 200.289C329.327 197.578 327.843 195.93 325.444 195.93C323.046 195.93 321.561 197.578 321.561 200.289C321.561 202.992 323.046 204.648 325.444 204.648ZM325.444 203.438C323.85 203.438 322.952 202.281 322.952 200.289C322.952 198.289 323.85 197.141 325.444 197.141C327.038 197.141 327.936 198.289 327.936 200.289C327.936 202.281 327.038 203.438 325.444 203.438ZM331.116 204.5H332.46V199.516C332.46 198.039 333.327 197.141 334.671 197.141C336.015 197.141 336.655 197.859 336.655 199.375V204.5H337.999V199.047C337.999 197.047 336.945 195.93 335.054 195.93C333.765 195.93 332.945 196.477 332.523 197.406H332.398V196.078H331.116V204.5ZM345.718 202.32C345.367 203.062 344.632 203.461 343.546 203.461C342.117 203.461 341.187 202.406 341.117 200.742V200.68H347.171V200.164C347.171 197.547 345.789 195.93 343.515 195.93C341.203 195.93 339.718 197.648 339.718 200.297C339.718 202.961 341.179 204.648 343.515 204.648C345.359 204.648 346.671 203.758 347.062 202.32H345.718ZM343.5 197.117C344.835 197.117 345.726 198.102 345.757 199.594H341.117C341.218 198.102 342.156 197.117 343.5 197.117Z" fill="white"/>
</g>
<g filter="url(#filter30_d_2_662)">
<rect x="97.826" y="176" width="88" height="45" rx="5" fill="white"/>
<path d="M121.013 196.383C121.013 197.602 121.732 198.281 123.31 198.664L124.755 199.016C125.654 199.234 126.091 199.625 126.091 200.203C126.091 200.977 125.279 201.516 124.146 201.516C123.068 201.516 122.396 201.062 122.169 200.352H120.786C120.935 201.75 122.224 202.648 124.099 202.648C126.013 202.648 127.474 201.609 127.474 200.102C127.474 198.891 126.708 198.203 125.122 197.82L123.825 197.508C122.833 197.266 122.364 196.906 122.364 196.328C122.364 195.578 123.146 195.07 124.146 195.07C125.161 195.07 125.818 195.516 125.997 196.188H127.325C127.146 194.805 125.919 193.93 124.154 193.93C122.364 193.93 121.013 194.984 121.013 196.383ZM133.365 193.93C132.216 193.93 131.209 194.516 130.669 195.484H130.544V194.078H129.263V205.312H130.607V201.234H130.732C131.193 202.125 132.162 202.648 133.365 202.648C135.505 202.648 136.904 200.922 136.904 198.289C136.904 195.641 135.513 193.93 133.365 193.93ZM133.044 201.438C131.529 201.438 130.568 200.219 130.568 198.289C130.568 196.352 131.529 195.141 133.052 195.141C134.591 195.141 135.513 196.32 135.513 198.289C135.513 200.258 134.591 201.438 133.044 201.438ZM141.037 202.648C142.162 202.648 143.084 202.156 143.631 201.258H143.756V202.5H145.037V196.734C145.037 194.984 143.889 193.93 141.834 193.93C140.037 193.93 138.709 194.82 138.529 196.172H139.889C140.076 195.508 140.779 195.125 141.787 195.125C143.045 195.125 143.693 195.695 143.693 196.734V197.5L141.264 197.648C139.303 197.766 138.193 198.633 138.193 200.141C138.193 201.68 139.404 202.648 141.037 202.648ZM141.287 201.469C140.31 201.469 139.584 200.969 139.584 200.109C139.584 199.266 140.146 198.82 141.428 198.734L143.693 198.586V199.359C143.693 200.562 142.67 201.469 141.287 201.469ZM154.17 196.656C153.936 195.156 152.686 193.93 150.639 193.93C148.279 193.93 146.779 195.633 146.779 198.258C146.779 200.938 148.287 202.648 150.647 202.648C152.67 202.648 153.928 201.508 154.17 199.961H152.811C152.561 200.914 151.772 201.438 150.639 201.438C149.139 201.438 148.17 200.203 148.17 198.258C148.17 196.352 149.123 195.141 150.639 195.141C151.85 195.141 152.592 195.82 152.811 196.656H154.17ZM161.413 200.32C161.061 201.062 160.327 201.461 159.241 201.461C157.811 201.461 156.881 200.406 156.811 198.742V198.68H162.866V198.164C162.866 195.547 161.483 193.93 159.209 193.93C156.897 193.93 155.413 195.648 155.413 198.297C155.413 200.961 156.874 202.648 159.209 202.648C161.053 202.648 162.366 201.758 162.756 200.32H161.413ZM159.194 195.117C160.53 195.117 161.42 196.102 161.452 197.594H156.811C156.913 196.102 157.85 195.117 159.194 195.117Z" fill="black"/>
</g>
<g filter="url(#filter31_d_2_662)">
<rect x="191.123" y="176" width="40.7608" height="45" rx="5" fill="white"/>
<path d="M211.924 189.085C206.703 189.085 203.051 192.684 203.051 198.044C203.051 203.823 206.864 207.014 212.107 207.014C213.492 207.014 214.781 206.82 215.727 206.487V205.134C215.028 205.445 213.568 205.649 212.128 205.649C207.81 205.649 204.566 202.975 204.566 198.108C204.566 193.618 207.606 190.438 211.784 190.438C216.06 190.438 219.025 193.07 219.025 196.97C219.025 199.752 218.079 201.32 216.801 201.32C215.974 201.32 215.587 200.826 215.587 200.128V193.822H213.965V195.133H213.879C213.471 194.22 212.429 193.618 211.279 193.618C209.077 193.618 207.541 195.444 207.541 198.055C207.541 200.783 209.045 202.62 211.279 202.62C212.547 202.62 213.546 201.997 214.008 200.912H214.094C214.223 201.986 215.276 202.717 216.5 202.717C219.014 202.717 220.539 200.429 220.539 196.991C220.539 192.254 216.919 189.085 211.924 189.085ZM211.548 195.101C213.009 195.101 213.943 196.261 213.943 198.098C213.943 199.935 212.998 201.105 211.526 201.105C210.119 201.105 209.26 199.967 209.26 198.098C209.26 196.218 210.109 195.101 211.548 195.101Z" fill="black"/>
</g>
<g filter="url(#filter32_d_2_662)">
<rect x="237.319" y="176" width="40.7609" height="45" rx="5" fill="white"/>
<path d="M257.819 204.607C258.506 204.607 259.043 204.07 259.043 203.383C259.043 202.695 258.506 202.158 257.819 202.158C257.131 202.158 256.594 202.695 256.594 203.383C256.594 204.07 257.131 204.607 257.819 204.607Z" fill="black"/>
</g>
<g filter="url(#filter33_d_2_662)">
<rect x="3.62317" y="176" width="89" height="45" rx="5" fill="#B4BBC6"/>
<path d="M38.2963 203.5H39.7904V191.522H38.3046L35.1171 193.813V195.39L38.1635 193.182H38.2963V203.5ZM42.8854 194.9H44.3297C44.3297 193.481 45.2843 192.543 46.7203 192.543C48.1315 192.543 48.9865 193.489 48.9865 194.759C48.9865 195.813 48.5382 196.436 47.0109 198.088L42.9601 202.471V203.5H50.713V202.155H45.0353V202.022L47.7579 199.208C49.9161 196.976 50.5138 195.979 50.5138 194.602C50.5138 192.659 48.9117 191.24 46.8199 191.24C44.5289 191.24 42.8854 192.767 42.8854 194.9ZM55.3436 197.98H56.8294C58.5145 197.98 59.5521 198.843 59.5521 200.229C59.5521 201.574 58.4315 202.479 56.8543 202.479C55.3104 202.479 54.2313 201.674 54.0985 200.412H52.6541C52.762 202.446 54.4388 203.782 56.8709 203.782C59.2533 203.782 61.0877 202.28 61.0877 200.271C61.0877 198.603 60.0584 197.548 58.5062 197.299V197.167C59.7347 196.81 60.6312 195.855 60.6395 194.411C60.6478 192.734 59.2865 191.24 56.9207 191.24C54.4969 191.24 53.0111 192.676 52.8617 194.626H54.3143C54.4388 193.282 55.3768 192.543 56.8211 192.543C58.2655 192.543 59.1204 193.456 59.1204 194.577C59.1204 195.822 58.141 196.702 56.763 196.702H55.3436V197.98Z" fill="black"/>
</g>
<g opacity="0.8">
<path d="M34.8975 273.387C42.3525 273.387 48.5078 267.21 48.5078 259.755C48.5078 252.3 42.3418 246.123 34.8867 246.123C27.4209 246.123 21.2549 252.3 21.2549 259.755C21.2549 267.21 27.4316 273.387 34.8975 273.387ZM35.585 248.293C36.9277 248.712 38.1523 250.302 39.0117 252.536C37.9697 252.74 36.8203 252.858 35.585 252.891V248.293ZM30.751 252.536C31.6211 250.302 32.8457 248.712 34.1777 248.293V252.891C32.9424 252.858 31.793 252.74 30.751 252.536ZM26.9912 251.204C28.248 250.044 29.7734 249.152 31.4492 248.637C30.6328 249.539 29.9131 250.742 29.3545 252.192C28.4629 251.935 27.6787 251.602 26.9912 251.204ZM38.3135 248.637C40 249.152 41.5146 250.044 42.7715 251.204C42.084 251.602 41.2998 251.935 40.4082 252.192C39.8496 250.742 39.1299 249.539 38.3135 248.637ZM41.6973 259.035C41.6328 257.005 41.332 255.125 40.8486 253.492C41.9551 253.148 42.9434 252.729 43.749 252.225C45.3174 254.083 46.3271 256.446 46.4883 259.035H41.6973ZM23.2959 259.035C23.4463 256.446 24.4453 254.083 26.0244 252.225C26.8301 252.729 27.8076 253.148 28.9141 253.492C28.4307 255.125 28.1299 257.005 28.0762 259.035H23.2959ZM29.5156 259.035C29.5693 257.177 29.8594 255.404 30.3213 253.847C31.5137 254.094 32.8135 254.255 34.1777 254.298V259.035H29.5156ZM35.585 259.035V254.298C36.9492 254.255 38.2598 254.094 39.4521 253.847C39.9033 255.404 40.1934 257.177 40.2578 259.035H35.585ZM23.2852 260.442H28.0654C28.1191 262.505 28.4307 264.406 28.9141 266.061C27.8184 266.394 26.8516 266.812 26.0459 267.307C24.4561 265.448 23.4463 263.063 23.2852 260.442ZM29.5156 260.442H34.1777V265.255C32.8135 265.298 31.5137 265.448 30.3213 265.706C29.8594 264.138 29.5693 262.333 29.5156 260.442ZM35.585 265.255V260.442H40.2578C40.2041 262.333 39.9033 264.138 39.4521 265.706C38.2598 265.448 36.9492 265.298 35.585 265.255ZM40.8486 266.061C41.3428 264.406 41.6436 262.505 41.6973 260.442H46.4883C46.3379 263.063 45.3281 265.448 43.7275 267.317C42.9326 266.823 41.9551 266.394 40.8486 266.061ZM30.751 267.017C31.793 266.812 32.9424 266.694 34.1777 266.662V271.26C32.8457 270.841 31.6211 269.251 30.751 267.017ZM35.585 266.662C36.8203 266.694 37.9697 266.812 39.0117 267.017C38.1523 269.251 36.9277 270.841 35.585 271.26V266.662ZM27.0234 268.327C27.7002 267.94 28.4844 267.607 29.3545 267.35C29.9023 268.778 30.6006 269.96 31.3955 270.852C29.752 270.336 28.2588 269.455 27.0234 268.327ZM40.4082 267.35C41.2891 267.618 42.0732 267.94 42.75 268.327C41.5039 269.466 40.0107 270.347 38.3564 270.852C39.1621 269.971 39.8604 268.778 40.4082 267.35Z" fill="black"/>
</g>
<rect x="115" y="288" width="146" height="5" rx="2.5" fill="black"/>
</g>
<defs>
<filter id="filter0_b_2_662" x="-30" y="-30" width="435" height="361" filterUnits="userSpaceOnUse" color-interpolation-filters="sRGB">
<feFlood flood-opacity="0" result="BackgroundImageFix"/>
<feGaussianBlur in="BackgroundImage" stdDeviation="15"/>
<feComposite in2="SourceAlpha" operator="in" result="effect1_backgroundBlur_2_662"/>
<feBlend mode="normal" in="SourceGraphic" in2="effect1_backgroundBlur_2_662" result="shape"/>
</filter>
<filter id="filter1_d_2_662" x="3.62317" y="8" width="32.6086" height="46" filterUnits="userSpaceOnUse" color-interpolation-filters="sRGB">
<feFlood flood-opacity="0" result="BackgroundImageFix"/>
<feColorMatrix in="SourceAlpha" type="matrix" values="0 0 0 0 0 0 0 0 0 0 0 0 0 0 0 0 0 0 127 0" result="hardAlpha"/>
<feOffset dy="1"/>
<feColorMatrix type="matrix" values="0 0 0 0 0 0 0 0 0 0 0 0 0 0 0 0 0 0 0.35 0"/>
<feBlend mode="normal" in2="BackgroundImageFix" result="effect1_dropShadow_2_662"/>
<feBlend mode="normal" in="SourceGraphic" in2="effect1_dropShadow_2_662" result="shape"/>
</filter>
<filter id="filter2_d_2_662" x="41.6666" y="8" width="31.7029" height="46" filterUnits="userSpaceOnUse" color-interpolation-filters="sRGB">
<feFlood flood-opacity="0" result="BackgroundImageFix"/>
<feColorMatrix in="SourceAlpha" type="matrix" values="0 0 0 0 0 0 0 0 0 0 0 0 0 0 0 0 0 0 127 0" result="hardAlpha"/>
<feOffset dy="1"/>
<feColorMatrix type="matrix" values="0 0 0 0 0 0 0 0 0 0 0 0 0 0 0 0 0 0 0.35 0"/>
<feBlend mode="normal" in2="BackgroundImageFix" result="effect1_dropShadow_2_662"/>
<feBlend mode="normal" in="SourceGraphic" in2="effect1_dropShadow_2_662" result="shape"/>
</filter>
<filter id="filter3_d_2_662" x="78.8043" y="8" width="31.7029" height="46" filterUnits="userSpaceOnUse" color-interpolation-filters="sRGB">
<feFlood flood-opacity="0" result="BackgroundImageFix"/>
<feColorMatrix in="SourceAlpha" type="matrix" values="0 0 0 0 0 0 0 0 0 0 0 0 0 0 0 0 0 0 127 0" result="hardAlpha"/>
<feOffset dy="1"/>
<feColorMatrix type="matrix" values="0 0 0 0 0 0 0 0 0 0 0 0 0 0 0 0 0 0 0.35 0"/>
<feBlend mode="normal" in2="BackgroundImageFix" result="effect1_dropShadow_2_662"/>
<feBlend mode="normal" in="SourceGraphic" in2="effect1_dropShadow_2_662" result="shape"/>
</filter>
<filter id="filter4_d_2_662" x="115.942" y="8" width="31.7029" height="46" filterUnits="userSpaceOnUse" color-interpolation-filters="sRGB">
<feFlood flood-opacity="0" result="BackgroundImageFix"/>
<feColorMatrix in="SourceAlpha" type="matrix" values="0 0 0 0 0 0 0 0 0 0 0 0 0 0 0 0 0 0 127 0" result="hardAlpha"/>
<feOffset dy="1"/>
<feColorMatrix type="matrix" values="0 0 0 0 0 0 0 0 0 0 0 0 0 0 0 0 0 0 0.35 0"/>
<feBlend mode="normal" in2="BackgroundImageFix" result="effect1_dropShadow_2_662"/>
<feBlend mode="normal" in="SourceGraphic" in2="effect1_dropShadow_2_662" result="shape"/>
</filter>
<filter id="filter5_d_2_662" x="153.08" y="8" width="31.7029" height="46" filterUnits="userSpaceOnUse" color-interpolation-filters="sRGB">
<feFlood flood-opacity="0" result="BackgroundImageFix"/>
<feColorMatrix in="SourceAlpha" type="matrix" values="0 0 0 0 0 0 0 0 0 0 0 0 0 0 0 0 0 0 127 0" result="hardAlpha"/>
<feOffset dy="1"/>
<feColorMatrix type="matrix" values="0 0 0 0 0 0 0 0 0 0 0 0 0 0 0 0 0 0 0.35 0"/>
<feBlend mode="normal" in2="BackgroundImageFix" result="effect1_dropShadow_2_662"/>
<feBlend mode="normal" in="SourceGraphic" in2="effect1_dropShadow_2_662" result="shape"/>
</filter>
<filter id="filter6_d_2_662" x="190.217" y="8" width="31.7029" height="46" filterUnits="userSpaceOnUse" color-interpolation-filters="sRGB">
<feFlood flood-opacity="0" result="BackgroundImageFix"/>
<feColorMatrix in="SourceAlpha" type="matrix" values="0 0 0 0 0 0 0 0 0 0 0 0 0 0 0 0 0 0 127 0" result="hardAlpha"/>
<feOffset dy="1"/>
<feColorMatrix type="matrix" values="0 0 0 0 0 0 0 0 0 0 0 0 0 0 0 0 0 0 0.35 0"/>
<feBlend mode="normal" in2="BackgroundImageFix" result="effect1_dropShadow_2_662"/>
<feBlend mode="normal" in="SourceGraphic" in2="effect1_dropShadow_2_662" result="shape"/>
</filter>
<filter id="filter7_d_2_662" x="227.355" y="8" width="31.7029" height="46" filterUnits="userSpaceOnUse" color-interpolation-filters="sRGB">
<feFlood flood-opacity="0" result="BackgroundImageFix"/>
<feColorMatrix in="SourceAlpha" type="matrix" values="0 0 0 0 0 0 0 0 0 0 0 0 0 0 0 0 0 0 127 0" result="hardAlpha"/>
<feOffset dy="1"/>
<feColorMatrix type="matrix" values="0 0 0 0 0 0 0 0 0 0 0 0 0 0 0 0 0 0 0.35 0"/>
<feBlend mode="normal" in2="BackgroundImageFix" result="effect1_dropShadow_2_662"/>
<feBlend mode="normal" in="SourceGraphic" in2="effect1_dropShadow_2_662" result="shape"/>
</filter>
<filter id="filter8_d_2_662" x="264.493" y="8" width="31.7029" height="46" filterUnits="userSpaceOnUse" color-interpolation-filters="sRGB">
<feFlood flood-opacity="0" result="BackgroundImageFix"/>
<feColorMatrix in="SourceAlpha" type="matrix" values="0 0 0 0 0 0 0 0 0 0 0 0 0 0 0 0 0 0 127 0" result="hardAlpha"/>
<feOffset dy="1"/>
<feColorMatrix type="matrix" values="0 0 0 0 0 0 0 0 0 0 0 0 0 0 0 0 0 0 0.35 0"/>
<feBlend mode="normal" in2="BackgroundImageFix" result="effect1_dropShadow_2_662"/>
<feBlend mode="normal" in="SourceGraphic" in2="effect1_dropShadow_2_662" result="shape"/>
</filter>
<filter id="filter9_d_2_662" x="301.63" y="8" width="31.7029" height="46" filterUnits="userSpaceOnUse" color-interpolation-filters="sRGB">
<feFlood flood-opacity="0" result="BackgroundImageFix"/>
<feColorMatrix in="SourceAlpha" type="matrix" values="0 0 0 0 0 0 0 0 0 0 0 0 0 0 0 0 0 0 127 0" result="hardAlpha"/>
<feOffset dy="1"/>
<feColorMatrix type="matrix" values="0 0 0 0 0 0 0 0 0 0 0 0 0 0 0 0 0 0 0.35 0"/>
<feBlend mode="normal" in2="BackgroundImageFix" result="effect1_dropShadow_2_662"/>
<feBlend mode="normal" in="SourceGraphic" in2="effect1_dropShadow_2_662" result="shape"/>
</filter>
<filter id="filter10_d_2_662" x="338.768" y="8" width="32.6086" height="46" filterUnits="userSpaceOnUse" color-interpolation-filters="sRGB">
<feFlood flood-opacity="0" result="BackgroundImageFix"/>
<feColorMatrix in="SourceAlpha" type="matrix" values="0 0 0 0 0 0 0 0 0 0 0 0 0 0 0 0 0 0 127 0" result="hardAlpha"/>
<feOffset dy="1"/>
<feColorMatrix type="matrix" values="0 0 0 0 0 0 0 0 0 0 0 0 0 0 0 0 0 0 0.35 0"/>
<feBlend mode="normal" in2="BackgroundImageFix" result="effect1_dropShadow_2_662"/>
<feBlend mode="normal" in="SourceGraphic" in2="effect1_dropShadow_2_662" result="shape"/>
</filter>
<filter id="filter11_d_2_662" x="22.6449" y="64" width="32.6086" height="46" filterUnits="userSpaceOnUse" color-interpolation-filters="sRGB">
<feFlood flood-opacity="0" result="BackgroundImageFix"/>
<feColorMatrix in="SourceAlpha" type="matrix" values="0 0 0 0 0 0 0 0 0 0 0 0 0 0 0 0 0 0 127 0" result="hardAlpha"/>
<feOffset dy="1"/>
<feColorMatrix type="matrix" values="0 0 0 0 0 0 0 0 0 0 0 0 0 0 0 0 0 0 0.35 0"/>
<feBlend mode="normal" in2="BackgroundImageFix" result="effect1_dropShadow_2_662"/>
<feBlend mode="normal" in="SourceGraphic" in2="effect1_dropShadow_2_662" result="shape"/>
</filter>
<filter id="filter12_d_2_662" x="60.6884" y="64" width="31.7029" height="46" filterUnits="userSpaceOnUse" color-interpolation-filters="sRGB">
<feFlood flood-opacity="0" result="BackgroundImageFix"/>
<feColorMatrix in="SourceAlpha" type="matrix" values="0 0 0 0 0 0 0 0 0 0 0 0 0 0 0 0 0 0 127 0" result="hardAlpha"/>
<feOffset dy="1"/>
<feColorMatrix type="matrix" values="0 0 0 0 0 0 0 0 0 0 0 0 0 0 0 0 0 0 0.35 0"/>
<feBlend mode="normal" in2="BackgroundImageFix" result="effect1_dropShadow_2_662"/>
<feBlend mode="normal" in="SourceGraphic" in2="effect1_dropShadow_2_662" result="shape"/>
</filter>
<filter id="filter13_d_2_662" x="97.826" y="64" width="31.7029" height="46" filterUnits="userSpaceOnUse" color-interpolation-filters="sRGB">
<feFlood flood-opacity="0" result="BackgroundImageFix"/>
<feColorMatrix in="SourceAlpha" type="matrix" values="0 0 0 0 0 0 0 0 0 0 0 0 0 0 0 0 0 0 127 0" result="hardAlpha"/>
<feOffset dy="1"/>
<feColorMatrix type="matrix" values="0 0 0 0 0 0 0 0 0 0 0 0 0 0 0 0 0 0 0.35 0"/>
<feBlend mode="normal" in2="BackgroundImageFix" result="effect1_dropShadow_2_662"/>
<feBlend mode="normal" in="SourceGraphic" in2="effect1_dropShadow_2_662" result="shape"/>
</filter>
<filter id="filter14_d_2_662" x="134.964" y="64" width="31.7029" height="46" filterUnits="userSpaceOnUse" color-interpolation-filters="sRGB">
<feFlood flood-opacity="0" result="BackgroundImageFix"/>
<feColorMatrix in="SourceAlpha" type="matrix" values="0 0 0 0 0 0 0 0 0 0 0 0 0 0 0 0 0 0 127 0" result="hardAlpha"/>
<feOffset dy="1"/>
<feColorMatrix type="matrix" values="0 0 0 0 0 0 0 0 0 0 0 0 0 0 0 0 0 0 0.35 0"/>
<feBlend mode="normal" in2="BackgroundImageFix" result="effect1_dropShadow_2_662"/>
<feBlend mode="normal" in="SourceGraphic" in2="effect1_dropShadow_2_662" result="shape"/>
</filter>
<filter id="filter15_d_2_662" x="172.101" y="64" width="31.7029" height="46" filterUnits="userSpaceOnUse" color-interpolation-filters="sRGB">
<feFlood flood-opacity="0" result="BackgroundImageFix"/>
<feColorMatrix in="SourceAlpha" type="matrix" values="0 0 0 0 0 0 0 0 0 0 0 0 0 0 0 0 0 0 127 0" result="hardAlpha"/>
<feOffset dy="1"/>
<feColorMatrix type="matrix" values="0 0 0 0 0 0 0 0 0 0 0 0 0 0 0 0 0 0 0.35 0"/>
<feBlend mode="normal" in2="BackgroundImageFix" result="effect1_dropShadow_2_662"/>
<feBlend mode="normal" in="SourceGraphic" in2="effect1_dropShadow_2_662" result="shape"/>
</filter>
<filter id="filter16_d_2_662" x="209.239" y="64" width="31.7029" height="46" filterUnits="userSpaceOnUse" color-interpolation-filters="sRGB">
<feFlood flood-opacity="0" result="BackgroundImageFix"/>
<feColorMatrix in="SourceAlpha" type="matrix" values="0 0 0 0 0 0 0 0 0 0 0 0 0 0 0 0 0 0 127 0" result="hardAlpha"/>
<feOffset dy="1"/>
<feColorMatrix type="matrix" values="0 0 0 0 0 0 0 0 0 0 0 0 0 0 0 0 0 0 0.35 0"/>
<feBlend mode="normal" in2="BackgroundImageFix" result="effect1_dropShadow_2_662"/>
<feBlend mode="normal" in="SourceGraphic" in2="effect1_dropShadow_2_662" result="shape"/>
</filter>
<filter id="filter17_d_2_662" x="246.377" y="64" width="31.7029" height="46" filterUnits="userSpaceOnUse" color-interpolation-filters="sRGB">
<feFlood flood-opacity="0" result="BackgroundImageFix"/>
<feColorMatrix in="SourceAlpha" type="matrix" values="0 0 0 0 0 0 0 0 0 0 0 0 0 0 0 0 0 0 127 0" result="hardAlpha"/>
<feOffset dy="1"/>
<feColorMatrix type="matrix" values="0 0 0 0 0 0 0 0 0 0 0 0 0 0 0 0 0 0 0.35 0"/>
<feBlend mode="normal" in2="BackgroundImageFix" result="effect1_dropShadow_2_662"/>
<feBlend mode="normal" in="SourceGraphic" in2="effect1_dropShadow_2_662" result="shape"/>
</filter>
<filter id="filter18_d_2_662" x="283.515" y="64" width="31.7029" height="46" filterUnits="userSpaceOnUse" color-interpolation-filters="sRGB">
<feFlood flood-opacity="0" result="BackgroundImageFix"/>
<feColorMatrix in="SourceAlpha" type="matrix" values="0 0 0 0 0 0 0 0 0 0 0 0 0 0 0 0 0 0 127 0" result="hardAlpha"/>
<feOffset dy="1"/>
<feColorMatrix type="matrix" values="0 0 0 0 0 0 0 0 0 0 0 0 0 0 0 0 0 0 0.35 0"/>
<feBlend mode="normal" in2="BackgroundImageFix" result="effect1_dropShadow_2_662"/>
<feBlend mode="normal" in="SourceGraphic" in2="effect1_dropShadow_2_662" result="shape"/>
</filter>
<filter id="filter19_d_2_662" x="320.652" y="64" width="32.6086" height="46" filterUnits="userSpaceOnUse" color-interpolation-filters="sRGB">
<feFlood flood-opacity="0" result="BackgroundImageFix"/>
<feColorMatrix in="SourceAlpha" type="matrix" values="0 0 0 0 0 0 0 0 0 0 0 0 0 0 0 0 0 0 127 0" result="hardAlpha"/>
<feOffset dy="1"/>
<feColorMatrix type="matrix" values="0 0 0 0 0 0 0 0 0 0 0 0 0 0 0 0 0 0 0.35 0"/>
<feBlend mode="normal" in2="BackgroundImageFix" result="effect1_dropShadow_2_662"/>
<feBlend mode="normal" in="SourceGraphic" in2="effect1_dropShadow_2_662" result="shape"/>
</filter>
<filter id="filter20_d_2_662" x="60.6884" y="120" width="31.7029" height="46" filterUnits="userSpaceOnUse" color-interpolation-filters="sRGB">
<feFlood flood-opacity="0" result="BackgroundImageFix"/>
<feColorMatrix in="SourceAlpha" type="matrix" values="0 0 0 0 0 0 0 0 0 0 0 0 0 0 0 0 0 0 127 0" result="hardAlpha"/>
<feOffset dy="1"/>
<feColorMatrix type="matrix" values="0 0 0 0 0 0 0 0 0 0 0 0 0 0 0 0 0 0 0.35 0"/>
<feBlend mode="normal" in2="BackgroundImageFix" result="effect1_dropShadow_2_662"/>
<feBlend mode="normal" in="SourceGraphic" in2="effect1_dropShadow_2_662" result="shape"/>
</filter>
<filter id="filter21_d_2_662" x="97.826" y="120" width="31.7029" height="46" filterUnits="userSpaceOnUse" color-interpolation-filters="sRGB">
<feFlood flood-opacity="0" result="BackgroundImageFix"/>
<feColorMatrix in="SourceAlpha" type="matrix" values="0 0 0 0 0 0 0 0 0 0 0 0 0 0 0 0 0 0 127 0" result="hardAlpha"/>
<feOffset dy="1"/>
<feColorMatrix type="matrix" values="0 0 0 0 0 0 0 0 0 0 0 0 0 0 0 0 0 0 0.35 0"/>
<feBlend mode="normal" in2="BackgroundImageFix" result="effect1_dropShadow_2_662"/>
<feBlend mode="normal" in="SourceGraphic" in2="effect1_dropShadow_2_662" result="shape"/>
</filter>
<filter id="filter22_d_2_662" x="134.964" y="120" width="31.7029" height="46" filterUnits="userSpaceOnUse" color-interpolation-filters="sRGB">
<feFlood flood-opacity="0" result="BackgroundImageFix"/>
<feColorMatrix in="SourceAlpha" type="matrix" values="0 0 0 0 0 0 0 0 0 0 0 0 0 0 0 0 0 0 127 0" result="hardAlpha"/>
<feOffset dy="1"/>
<feColorMatrix type="matrix" values="0 0 0 0 0 0 0 0 0 0 0 0 0 0 0 0 0 0 0.35 0"/>
<feBlend mode="normal" in2="BackgroundImageFix" result="effect1_dropShadow_2_662"/>
<feBlend mode="normal" in="SourceGraphic" in2="effect1_dropShadow_2_662" result="shape"/>
</filter>
<filter id="filter23_d_2_662" x="172.101" y="120" width="31.7029" height="46" filterUnits="userSpaceOnUse" color-interpolation-filters="sRGB">
<feFlood flood-opacity="0" result="BackgroundImageFix"/>
<feColorMatrix in="SourceAlpha" type="matrix" values="0 0 0 0 0 0 0 0 0 0 0 0 0 0 0 0 0 0 127 0" result="hardAlpha"/>
<feOffset dy="1"/>
<feColorMatrix type="matrix" values="0 0 0 0 0 0 0 0 0 0 0 0 0 0 0 0 0 0 0.35 0"/>
<feBlend mode="normal" in2="BackgroundImageFix" result="effect1_dropShadow_2_662"/>
<feBlend mode="normal" in="SourceGraphic" in2="effect1_dropShadow_2_662" result="shape"/>
</filter>
<filter id="filter24_d_2_662" x="209.239" y="120" width="31.7029" height="46" filterUnits="userSpaceOnUse" color-interpolation-filters="sRGB">
<feFlood flood-opacity="0" result="BackgroundImageFix"/>
<feColorMatrix in="SourceAlpha" type="matrix" values="0 0 0 0 0 0 0 0 0 0 0 0 0 0 0 0 0 0 127 0" result="hardAlpha"/>
<feOffset dy="1"/>
<feColorMatrix type="matrix" values="0 0 0 0 0 0 0 0 0 0 0 0 0 0 0 0 0 0 0.35 0"/>
<feBlend mode="normal" in2="BackgroundImageFix" result="effect1_dropShadow_2_662"/>
<feBlend mode="normal" in="SourceGraphic" in2="effect1_dropShadow_2_662" result="shape"/>
</filter>
<filter id="filter25_d_2_662" x="246.377" y="120" width="31.7029" height="46" filterUnits="userSpaceOnUse" color-interpolation-filters="sRGB">
<feFlood flood-opacity="0" result="BackgroundImageFix"/>
<feColorMatrix in="SourceAlpha" type="matrix" values="0 0 0 0 0 0 0 0 0 0 0 0 0 0 0 0 0 0 127 0" result="hardAlpha"/>
<feOffset dy="1"/>
<feColorMatrix type="matrix" values="0 0 0 0 0 0 0 0 0 0 0 0 0 0 0 0 0 0 0.35 0"/>
<feBlend mode="normal" in2="BackgroundImageFix" result="effect1_dropShadow_2_662"/>
<feBlend mode="normal" in="SourceGraphic" in2="effect1_dropShadow_2_662" result="shape"/>
</filter>
<filter id="filter26_d_2_662" x="283.515" y="120" width="31.7029" height="46" filterUnits="userSpaceOnUse" color-interpolation-filters="sRGB">
<feFlood flood-opacity="0" result="BackgroundImageFix"/>
<feColorMatrix in="SourceAlpha" type="matrix" values="0 0 0 0 0 0 0 0 0 0 0 0 0 0 0 0 0 0 127 0" result="hardAlpha"/>
<feOffset dy="1"/>
<feColorMatrix type="matrix" values="0 0 0 0 0 0 0 0 0 0 0 0 0 0 0 0 0 0 0.35 0"/>
<feBlend mode="normal" in2="BackgroundImageFix" result="effect1_dropShadow_2_662"/>
<feBlend mode="normal" in="SourceGraphic" in2="effect1_dropShadow_2_662" result="shape"/>
</filter>
<filter id="filter27_d_2_662" x="3.62317" y="120" width="40.7609" height="46" filterUnits="userSpaceOnUse" color-interpolation-filters="sRGB">
<feFlood flood-opacity="0" result="BackgroundImageFix"/>
<feColorMatrix in="SourceAlpha" type="matrix" values="0 0 0 0 0 0 0 0 0 0 0 0 0 0 0 0 0 0 127 0" result="hardAlpha"/>
<feOffset dy="1"/>
<feColorMatrix type="matrix" values="0 0 0 0 0 0 0 0 0 0 0 0 0 0 0 0 0 0 0.35 0"/>
<feBlend mode="normal" in2="BackgroundImageFix" result="effect1_dropShadow_2_662"/>
<feBlend mode="normal" in="SourceGraphic" in2="effect1_dropShadow_2_662" result="shape"/>
</filter>
<filter id="filter28_d_2_662" x="330.616" y="120" width="40.7609" height="46" filterUnits="userSpaceOnUse" color-interpolation-filters="sRGB">
<feFlood flood-opacity="0" result="BackgroundImageFix"/>
<feColorMatrix in="SourceAlpha" type="matrix" values="0 0 0 0 0 0 0 0 0 0 0 0 0 0 0 0 0 0 127 0" result="hardAlpha"/>
<feOffset dy="1"/>
<feColorMatrix type="matrix" values="0 0 0 0 0 0 0 0 0 0 0 0 0 0 0 0 0 0 0.35 0"/>
<feBlend mode="normal" in2="BackgroundImageFix" result="effect1_dropShadow_2_662"/>
<feBlend mode="normal" in="SourceGraphic" in2="effect1_dropShadow_2_662" result="shape"/>
</filter>
<filter id="filter29_d_2_662" x="283.515" y="176" width="88" height="46" filterUnits="userSpaceOnUse" color-interpolation-filters="sRGB">
<feFlood flood-opacity="0" result="BackgroundImageFix"/>
<feColorMatrix in="SourceAlpha" type="matrix" values="0 0 0 0 0 0 0 0 0 0 0 0 0 0 0 0 0 0 127 0" result="hardAlpha"/>
<feOffset dy="1"/>
<feColorMatrix type="matrix" values="0 0 0 0 0 0 0 0 0 0 0 0 0 0 0 0 0 0 0.35 0"/>
<feBlend mode="normal" in2="BackgroundImageFix" result="effect1_dropShadow_2_662"/>
<feBlend mode="normal" in="SourceGraphic" in2="effect1_dropShadow_2_662" result="shape"/>
</filter>
<filter id="filter30_d_2_662" x="97.826" y="176" width="88" height="46" filterUnits="userSpaceOnUse" color-interpolation-filters="sRGB">
<feFlood flood-opacity="0" result="BackgroundImageFix"/>
<feColorMatrix in="SourceAlpha" type="matrix" values="0 0 0 0 0 0 0 0 0 0 0 0 0 0 0 0 0 0 127 0" result="hardAlpha"/>
<feOffset dy="1"/>
<feColorMatrix type="matrix" values="0 0 0 0 0 0 0 0 0 0 0 0 0 0 0 0 0 0 0.35 0"/>
<feBlend mode="normal" in2="BackgroundImageFix" result="effect1_dropShadow_2_662"/>
<feBlend mode="normal" in="SourceGraphic" in2="effect1_dropShadow_2_662" result="shape"/>
</filter>
<filter id="filter31_d_2_662" x="191.123" y="176" width="40.7609" height="46" filterUnits="userSpaceOnUse" color-interpolation-filters="sRGB">
<feFlood flood-opacity="0" result="BackgroundImageFix"/>
<feColorMatrix in="SourceAlpha" type="matrix" values="0 0 0 0 0 0 0 0 0 0 0 0 0 0 0 0 0 0 127 0" result="hardAlpha"/>
<feOffset dy="1"/>
<feColorMatrix type="matrix" values="0 0 0 0 0 0 0 0 0 0 0 0 0 0 0 0 0 0 0.35 0"/>
<feBlend mode="normal" in2="BackgroundImageFix" result="effect1_dropShadow_2_662"/>
<feBlend mode="normal" in="SourceGraphic" in2="effect1_dropShadow_2_662" result="shape"/>
</filter>
<filter id="filter32_d_2_662" x="237.319" y="176" width="40.7609" height="46" filterUnits="userSpaceOnUse" color-interpolation-filters="sRGB">
<feFlood flood-opacity="0" result="BackgroundImageFix"/>
<feColorMatrix in="SourceAlpha" type="matrix" values="0 0 0 0 0 0 0 0 0 0 0 0 0 0 0 0 0 0 127 0" result="hardAlpha"/>
<feOffset dy="1"/>
<feColorMatrix type="matrix" values="0 0 0 0 0 0 0 0 0 0 0 0 0 0 0 0 0 0 0.35 0"/>
<feBlend mode="normal" in2="BackgroundImageFix" result="effect1_dropShadow_2_662"/>
<feBlend mode="normal" in="SourceGraphic" in2="effect1_dropShadow_2_662" result="shape"/>
</filter>
<filter id="filter33_d_2_662" x="3.62317" y="176" width="89" height="46" filterUnits="userSpaceOnUse" color-interpolation-filters="sRGB">
<feFlood flood-opacity="0" result="BackgroundImageFix"/>
<feColorMatrix in="SourceAlpha" type="matrix" values="0 0 0 0 0 0 0 0 0 0 0 0 0 0 0 0 0 0 127 0" result="hardAlpha"/>
<feOffset dy="1"/>
<feColorMatrix type="matrix" values="0 0 0 0 0 0 0 0 0 0 0 0 0 0 0 0 0 0 0.35 0"/>
<feBlend mode="normal" in2="BackgroundImageFix" result="effect1_dropShadow_2_662"/>
<feBlend mode="normal" in="SourceGraphic" in2="effect1_dropShadow_2_662" result="shape"/>
</filter>
</defs>
</svg>
