<svg width="143" height="35" viewBox="0 0 143 35" fill="none" xmlns="http://www.w3.org/2000/svg">
<path d="M36.6034 31.2369C37.874 31.075 38.8004 30.4276 39.3827 29.2946C39.9916 28.1886 40.296 26.2733 40.296 23.5488V0.201172H45.4576V23.5488C45.4576 25.9496 45.2061 27.7705 44.7032 29.0114C44.2267 30.2793 43.3665 31.1695 42.1224 31.682C40.8783 32.1945 39.0386 32.4508 36.6034 32.4508V31.2369Z" fill="#555555"/>
<path fill-rule="evenodd" clip-rule="evenodd" d="M53.9511 27.3119C51.807 27.3119 50.1394 26.8263 48.9482 25.8552C47.7836 24.8571 47.2012 23.5218 47.2012 21.8493C47.2012 20.5005 47.5056 19.381 48.1144 18.4908C48.7497 17.6006 49.8482 16.9262 51.4099 16.4676C52.9717 16.009 55.1422 15.7797 57.9216 15.7797H58.5171C58.5171 13.4328 58.1995 11.7738 57.5642 10.8027C56.9289 9.80458 55.9893 9.30553 54.7452 9.30553C53.7128 9.30553 52.8658 9.5618 52.204 10.0743C51.5423 10.5869 51.0658 11.5445 50.7747 12.9473H48.5909C48.5909 12.0301 48.6438 11.2478 48.7497 10.6004C48.8821 9.95295 49.16 9.38645 49.5835 8.90089C50.4041 7.95673 52.3893 7.48466 55.5393 7.48466C58.1863 7.48466 60.198 8.19952 61.5744 9.62924C62.9773 11.032 63.6788 13.1496 63.6788 15.982V26.9073H60.3039L58.9142 25.0864H58.7157C58.3186 25.7068 57.6966 26.2329 56.8495 26.6645C56.029 27.0961 55.0628 27.3119 53.9511 27.3119ZM55.1422 25.2887C55.9363 25.2887 56.6245 25.019 57.2069 24.4794C57.8157 23.9399 58.2524 23.333 58.5171 22.6586V17.6006H57.9216C56.0422 17.6006 54.679 17.9513 53.832 18.6527C52.9849 19.3271 52.5614 20.3926 52.5614 21.8493C52.5614 22.9553 52.7864 23.805 53.2364 24.3985C53.6864 24.992 54.3216 25.2887 55.1422 25.2887Z" fill="#555555"/>
<path d="M70.1098 32.7341C69.2098 33.3005 68.0319 33.5838 66.576 33.5838V35H68.1642C69.6465 35 70.8774 34.6089 71.8568 33.8266C72.8362 33.0713 73.6964 31.6415 74.4376 29.5374L82.458 7.88929H80.3536L75.5096 20.9186L70.9436 10.7218C70.4671 9.72365 69.7789 8.94135 68.8789 8.37486C67.9789 7.78139 66.9466 7.48466 65.7819 7.48466H62.2879V8.29393C63.8761 8.50974 65.1069 9.58877 65.9804 11.531L73.1273 27.4738L72.2935 29.6588C71.7377 31.1425 71.0097 32.1676 70.1098 32.7341Z" fill="#555555"/>
<path fill-rule="evenodd" clip-rule="evenodd" d="M111.079 27.3119C109.147 27.3119 107.453 26.8803 105.997 26.0171C104.568 25.1269 103.469 23.9399 102.702 22.4563C101.934 20.9456 101.55 19.2596 101.55 17.3983C101.55 15.537 101.934 13.8644 102.702 12.3808C103.469 10.8701 104.568 9.68319 105.997 8.81996C107.453 7.92976 109.147 7.48466 111.079 7.48466C113.012 7.48466 114.693 7.92976 116.122 8.81996C117.578 9.68319 118.69 10.8701 119.457 12.3808C120.225 13.8644 120.609 15.537 120.609 17.3983C120.609 19.2596 120.225 20.9456 119.457 22.4563C118.69 23.9399 117.578 25.1269 116.122 26.0171C114.693 26.8803 113.012 27.3119 111.079 27.3119ZM111.079 25.491C112.429 25.491 113.462 24.7492 114.176 23.2655C114.891 21.7819 115.248 19.8261 115.248 17.3983C115.248 14.9705 114.891 13.0147 114.176 11.531C113.462 10.0474 112.429 9.30553 111.079 9.30553C109.729 9.30553 108.697 10.0474 107.982 11.531C107.268 13.0147 106.91 14.9705 106.91 17.3983C106.91 19.8261 107.268 21.7819 107.982 23.2655C108.697 24.7492 109.729 25.491 111.079 25.491Z" fill="#555555"/>
<path fill-rule="evenodd" clip-rule="evenodd" d="M129.501 27.3119C130.587 27.3119 131.526 27.0961 132.32 26.6645C133.114 26.2329 133.697 25.7069 134.067 25.0864H134.266L135.656 26.9073H139.03V5.46146C139.03 4.0857 139.216 3.0741 139.586 2.42668C139.957 1.75228 140.698 1.41508 141.81 1.41508H142.207V0.201172H137.442C136.489 0.201172 135.761 0.363027 135.258 0.686738C134.756 1.01045 134.398 1.54996 134.186 2.30529C133.975 3.03364 133.869 4.0857 133.869 5.46146V8.69857C132.598 7.88929 131.209 7.48466 129.7 7.48466C126.947 7.48466 124.843 8.41532 123.387 10.2767C121.904 12.111 121.163 14.4849 121.163 17.3983C121.163 20.3117 121.891 22.699 123.347 24.5604C124.776 26.3947 126.828 27.3119 129.501 27.3119ZM130.295 25.491C128.998 25.491 128.045 24.7627 127.437 23.306C126.828 21.8493 126.523 19.8801 126.523 17.3983C126.523 12.0031 127.847 9.30553 130.494 9.30553C131.606 9.30553 132.731 9.71016 133.869 10.5194V22.8609C133.551 23.5892 133.075 24.2097 132.439 24.7222C131.804 25.2348 131.089 25.491 130.295 25.491Z" fill="#555555"/>
<path fill-rule="evenodd" clip-rule="evenodd" d="M98.8733 24.5604C97.4174 26.3947 95.3528 27.3119 92.6793 27.3119C91.6205 27.3119 90.6941 27.0961 89.9 26.6645C89.0794 26.2329 88.4838 25.7069 88.1132 25.0864H87.9147L86.525 26.9073H83.1501V5.46147C83.1501 4.0857 83.256 3.03364 83.4677 2.30529C83.6795 1.54996 84.0368 1.01045 84.5398 0.686738C85.0427 0.363027 85.7706 0.201172 86.7236 0.201172H91.4882V1.41509H91.0911C89.9794 1.41509 89.2382 1.75228 88.8676 2.42668C88.497 3.0741 88.3118 4.0857 88.3118 5.46147V8.69857C89.5823 7.88929 90.972 7.48466 92.4808 7.48466C95.2337 7.48466 97.3513 8.41532 98.8336 10.2767C100.289 12.111 101.017 14.4849 101.017 17.3983C101.017 20.3117 100.303 22.699 98.8733 24.5604ZM89.7411 24.6818C90.3235 25.2213 91.0382 25.491 91.8852 25.491C93.2087 25.491 94.1749 24.7762 94.7837 23.3465C95.366 21.8898 95.6572 19.907 95.6572 17.3983C95.6572 12.0031 94.3337 9.30553 91.6867 9.30553C90.522 9.30553 89.397 9.71016 88.3118 10.5194V22.8609C88.6559 23.5353 89.1323 24.1423 89.7411 24.6818Z" fill="#555555"/>
<path fill-rule="evenodd" clip-rule="evenodd" d="M24.324 22.5294C21.426 19.8467 19.6118 16.0099 19.6118 11.7493C19.6118 9.65693 20.0494 7.66673 20.838 5.86524C21.6443 5.7281 22.473 5.65667 23.3183 5.65667C25.4958 5.65667 27.5626 6.13054 29.4212 6.98077C27.3122 5.29658 24.7289 4.18129 21.9038 3.86735C21.9591 3.78063 22.0152 3.69452 22.0723 3.60905C19.5418 1.3636 16.2111 0 12.562 0C11.1343 0 9.75534 0.208724 8.454 0.597321C10.5436 3.13442 11.7985 6.38479 11.7985 9.92826C11.7985 16.3881 7.62801 21.8738 1.83263 23.8398C4.45863 26.8017 8.2923 28.6685 12.562 28.6685C17.4312 28.6685 21.7334 26.2406 24.324 22.5294ZM19.5325 5.14355C19.5325 5.90812 18.9127 6.52793 18.1481 6.52793C17.3836 6.52793 16.7637 5.90812 16.7637 5.14355C16.7637 4.37897 17.3836 3.75916 18.1481 3.75916C18.9127 3.75916 19.5325 4.37897 19.5325 5.14355Z" fill="#2098D4"/>
<path d="M0.999852 32.4646C1.28009 32.4523 1.56164 32.4321 1.84425 32.4036C9.91467 31.5908 15.7981 24.3896 14.9853 16.3191C14.6868 13.3553 13.5267 10.6865 11.7784 8.53589L0.999852 32.4646Z" fill="#33ABE7"/>
<path d="M7.14796 34.4195C7.41687 34.3393 7.6851 34.251 7.95235 34.1545C15.5814 31.3994 19.5325 22.9814 16.7774 15.3524C15.7656 12.5506 13.9899 10.2449 11.7701 8.58521L7.14796 34.4195Z" fill="#42B9F4"/>
<path d="M11.7648 34.8641C12.0154 34.7378 12.2638 34.6037 12.5099 34.4616C19.5345 30.406 21.9412 21.4237 17.8856 14.3992C16.3962 11.8194 14.2422 9.8624 11.7648 8.61963V34.8641Z" fill="#55C6FF"/>
</svg>
