<svg width="368" height="432" viewBox="0 0 368 432" fill="none" xmlns="http://www.w3.org/2000/svg">
<g filter="url(#filter0_d_62_320)">
<rect width="336" height="232" transform="translate(16 124)" fill="white"/>
<g clip-path="url(#clip0_62_320)">
<path d="M39.824 144.816V145.744H36.72V156H35.6V145.744H32.48V144.816H39.824Z" fill="#919394"/>
<path d="M47.7925 147.264L42.6085 160.112H41.4405L43.1365 155.952L39.5525 147.264H40.7845L43.7605 154.72L46.6405 147.264H47.7925Z" fill="#919394"/>
<path d="M49.4153 149.184C49.6926 148.597 50.1299 148.112 50.7273 147.728C51.3353 147.333 52.0553 147.136 52.8873 147.136C53.6766 147.136 54.3859 147.323 55.0153 147.696C55.6553 148.059 56.1513 148.581 56.5033 149.264C56.8659 149.936 57.0473 150.72 57.0473 151.616C57.0473 152.512 56.8659 153.301 56.5033 153.984C56.1513 154.667 55.6553 155.195 55.0153 155.568C54.3859 155.941 53.6766 156.128 52.8873 156.128C52.0659 156.128 51.3513 155.936 50.7433 155.552C50.1353 155.157 49.6926 154.667 49.4153 154.08V160.128H48.3113V147.264H49.4153V149.184ZM55.9113 151.616C55.9113 150.891 55.7673 150.267 55.4793 149.744C55.2019 149.211 54.8179 148.805 54.3273 148.528C53.8366 148.251 53.2819 148.112 52.6633 148.112C52.0659 148.112 51.5166 148.256 51.0153 148.544C50.5246 148.832 50.1353 149.243 49.8473 149.776C49.5593 150.309 49.4153 150.928 49.4153 151.632C49.4153 152.336 49.5593 152.955 49.8473 153.488C50.1353 154.021 50.5246 154.432 51.0153 154.72C51.5166 155.008 52.0659 155.152 52.6633 155.152C53.2819 155.152 53.8366 155.013 54.3273 154.736C54.8179 154.448 55.2019 154.037 55.4793 153.504C55.7673 152.96 55.9113 152.331 55.9113 151.616Z" fill="#919394"/>
<path d="M66.0121 151.184C66.0121 151.568 66.0015 151.861 65.9801 152.064H58.7321C58.7641 152.725 58.9241 153.291 59.2121 153.76C59.5001 154.229 59.8788 154.587 60.3481 154.832C60.8175 155.067 61.3295 155.184 61.8841 155.184C62.6095 155.184 63.2175 155.008 63.7081 154.656C64.2095 154.304 64.5401 153.829 64.7001 153.232H65.8841C65.6708 154.085 65.2121 154.784 64.5081 155.328C63.8148 155.861 62.9401 156.128 61.8841 156.128C61.0628 156.128 60.3268 155.947 59.6761 155.584C59.0255 155.211 58.5135 154.688 58.1401 154.016C57.7775 153.333 57.5961 152.539 57.5961 151.632C57.5961 150.725 57.7775 149.931 58.1401 149.248C58.5028 148.565 59.0095 148.043 59.6601 147.68C60.3108 147.317 61.0521 147.136 61.8841 147.136C62.7161 147.136 63.4415 147.317 64.0601 147.68C64.6895 148.043 65.1695 148.533 65.5001 149.152C65.8415 149.76 66.0121 150.437 66.0121 151.184ZM64.8761 151.152C64.8868 150.501 64.7535 149.947 64.4761 149.488C64.2095 149.029 63.8415 148.683 63.3721 148.448C62.9028 148.213 62.3908 148.096 61.8361 148.096C61.0041 148.096 60.2948 148.363 59.7081 148.896C59.1215 149.429 58.7961 150.181 58.7321 151.152H64.8761Z" fill="#919394"/>
</g>
<path d="M36.672 192.112C35.936 192.112 35.2853 191.984 34.72 191.728C34.1653 191.472 33.728 191.115 33.408 190.656C33.088 190.197 32.9173 189.685 32.896 189.12H34.08C34.1333 189.664 34.3733 190.144 34.8 190.56C35.2267 190.965 35.8507 191.168 36.672 191.168C37.4293 191.168 38.0267 190.976 38.464 190.592C38.912 190.197 39.136 189.701 39.136 189.104C39.136 188.624 39.0133 188.24 38.768 187.952C38.5227 187.653 38.2187 187.435 37.856 187.296C37.4933 187.147 36.992 186.987 36.352 186.816C35.6053 186.613 35.0133 186.416 34.576 186.224C34.1387 186.032 33.7653 185.733 33.456 185.328C33.1467 184.923 32.992 184.373 32.992 183.68C32.992 183.104 33.1413 182.592 33.44 182.144C33.7387 181.685 34.16 181.328 34.704 181.072C35.248 180.816 35.872 180.688 36.576 180.688C37.6107 180.688 38.4427 180.944 39.072 181.456C39.712 181.957 40.08 182.608 40.176 183.408H38.96C38.8853 182.949 38.6347 182.544 38.208 182.192C37.7813 181.829 37.2053 181.648 36.48 181.648C35.808 181.648 35.248 181.829 34.8 182.192C34.352 182.544 34.128 183.029 34.128 183.648C34.128 184.117 34.2507 184.496 34.496 184.784C34.7413 185.072 35.0453 185.291 35.408 185.44C35.7813 185.589 36.2827 185.749 36.912 185.92C37.6373 186.123 38.224 186.325 38.672 186.528C39.12 186.72 39.4987 187.019 39.808 187.424C40.1173 187.829 40.272 188.373 40.272 189.056C40.272 189.579 40.1333 190.075 39.856 190.544C39.5787 191.013 39.168 191.392 38.624 191.68C38.08 191.968 37.4293 192.112 36.672 192.112Z" fill="#919394"/>
<path d="M41.9963 181.616C41.7723 181.616 41.5803 181.536 41.4203 181.376C41.2603 181.216 41.1803 181.019 41.1803 180.784C41.1803 180.549 41.2603 180.357 41.4203 180.208C41.5803 180.048 41.7723 179.968 41.9963 179.968C42.2203 179.968 42.4123 180.048 42.5723 180.208C42.7323 180.357 42.8123 180.549 42.8123 180.784C42.8123 181.019 42.7323 181.216 42.5723 181.376C42.4123 181.536 42.2203 181.616 41.9963 181.616ZM42.5563 183.264V192H41.4363V183.264H42.5563Z" fill="#919394"/>
<path d="M44.6845 191.072H49.2605V192H43.4045V191.072L47.9005 184.192H43.4845V183.264H49.1805V184.192L44.6845 191.072Z" fill="#919394"/>
<path d="M58.059 187.184C58.059 187.568 58.0483 187.861 58.027 188.064H50.779C50.811 188.725 50.971 189.291 51.259 189.76C51.547 190.229 51.9257 190.587 52.395 190.832C52.8643 191.067 53.3763 191.184 53.931 191.184C54.6563 191.184 55.2643 191.008 55.755 190.656C56.2563 190.304 56.587 189.829 56.747 189.232H57.931C57.7177 190.085 57.259 190.784 56.555 191.328C55.8617 191.861 54.987 192.128 53.931 192.128C53.1097 192.128 52.3737 191.947 51.723 191.584C51.0723 191.211 50.5603 190.688 50.187 190.016C49.8243 189.333 49.643 188.539 49.643 187.632C49.643 186.725 49.8243 185.931 50.187 185.248C50.5497 184.565 51.0563 184.043 51.707 183.68C52.3577 183.317 53.099 183.136 53.931 183.136C54.763 183.136 55.4883 183.317 56.107 183.68C56.7363 184.043 57.2163 184.533 57.547 185.152C57.8883 185.76 58.059 186.437 58.059 187.184ZM56.923 187.152C56.9337 186.501 56.8003 185.947 56.523 185.488C56.2563 185.029 55.8883 184.683 55.419 184.448C54.9497 184.213 54.4377 184.096 53.883 184.096C53.051 184.096 52.3417 184.363 51.755 184.896C51.1683 185.429 50.843 186.181 50.779 187.152H56.923Z" fill="#919394"/>
<path d="M34.4 227.088H38.416V228H33.28V216.816H34.4V227.088Z" fill="#919394"/>
<path d="M42.8384 228.128C42.017 228.128 41.2757 227.947 40.6144 227.584C39.9637 227.211 39.4464 226.688 39.0624 226.016C38.689 225.333 38.5024 224.539 38.5024 223.632C38.5024 222.725 38.6944 221.936 39.0784 221.264C39.4624 220.581 39.985 220.059 40.6464 219.696C41.3077 219.323 42.049 219.136 42.8704 219.136C43.6917 219.136 44.433 219.323 45.0944 219.696C45.7664 220.059 46.289 220.581 46.6624 221.264C47.0464 221.936 47.2384 222.725 47.2384 223.632C47.2384 224.528 47.0464 225.317 46.6624 226C46.2784 226.683 45.7504 227.211 45.0784 227.584C44.4064 227.947 43.6597 228.128 42.8384 228.128ZM42.8384 227.152C43.4144 227.152 43.9477 227.024 44.4384 226.768C44.929 226.501 45.3237 226.107 45.6224 225.584C45.9317 225.051 46.0864 224.4 46.0864 223.632C46.0864 222.864 45.937 222.219 45.6384 221.696C45.3397 221.163 44.945 220.768 44.4544 220.512C43.9637 220.245 43.4304 220.112 42.8544 220.112C42.2784 220.112 41.745 220.245 41.2544 220.512C40.7637 220.768 40.369 221.163 40.0704 221.696C39.7824 222.219 39.6384 222.864 39.6384 223.632C39.6384 224.4 39.7824 225.051 40.0704 225.584C40.369 226.107 40.7584 226.501 41.2384 226.768C41.729 227.024 42.2624 227.152 42.8384 227.152Z" fill="#919394"/>
<path d="M47.768 223.632C47.768 222.725 47.9493 221.936 48.312 221.264C48.6747 220.581 49.176 220.059 49.816 219.696C50.456 219.323 51.1867 219.136 52.008 219.136C53.0853 219.136 53.9707 219.403 54.664 219.936C55.368 220.469 55.8213 221.195 56.024 222.112H54.824C54.6747 221.483 54.3493 220.992 53.848 220.64C53.3573 220.277 52.744 220.096 52.008 220.096C51.4213 220.096 50.8933 220.229 50.424 220.496C49.9547 220.763 49.5813 221.163 49.304 221.696C49.0373 222.219 48.904 222.864 48.904 223.632C48.904 224.4 49.0373 225.051 49.304 225.584C49.5813 226.117 49.9547 226.517 50.424 226.784C50.8933 227.051 51.4213 227.184 52.008 227.184C52.744 227.184 53.3573 227.008 53.848 226.656C54.3493 226.293 54.6747 225.792 54.824 225.152H56.024C55.8213 226.048 55.368 226.768 54.664 227.312C53.96 227.856 53.0747 228.128 52.008 228.128C51.1867 228.128 50.456 227.947 49.816 227.584C49.176 227.211 48.6747 226.688 48.312 226.016C47.9493 225.333 47.768 224.539 47.768 223.632Z" fill="#919394"/>
<path d="M56.5805 223.616C56.5805 222.72 56.7565 221.936 57.1085 221.264C57.4712 220.581 57.9672 220.059 58.5965 219.696C59.2365 219.323 59.9565 219.136 60.7565 219.136C61.5885 219.136 62.3032 219.328 62.9005 219.712C63.5085 220.096 63.9458 220.587 64.2125 221.184V219.264H65.3325V228H64.2125V226.064C63.9352 226.661 63.4925 227.157 62.8845 227.552C62.2872 227.936 61.5725 228.128 60.7405 228.128C59.9512 228.128 59.2365 227.941 58.5965 227.568C57.9672 227.195 57.4712 226.667 57.1085 225.984C56.7565 225.301 56.5805 224.512 56.5805 223.616ZM64.2125 223.632C64.2125 222.928 64.0685 222.309 63.7805 221.776C63.4925 221.243 63.0978 220.832 62.5965 220.544C62.1058 220.256 61.5618 220.112 60.9645 220.112C60.3458 220.112 59.7912 220.251 59.3005 220.528C58.8098 220.805 58.4205 221.211 58.1325 221.744C57.8552 222.267 57.7165 222.891 57.7165 223.616C57.7165 224.331 57.8552 224.96 58.1325 225.504C58.4205 226.037 58.8098 226.448 59.3005 226.736C59.7912 227.013 60.3458 227.152 60.9645 227.152C61.5618 227.152 62.1058 227.008 62.5965 226.72C63.0978 226.432 63.4925 226.021 63.7805 225.488C64.0685 224.955 64.2125 224.336 64.2125 223.632Z" fill="#919394"/>
<path d="M68.3454 220.208V225.632C68.3454 226.165 68.4467 226.533 68.6494 226.736C68.852 226.939 69.2094 227.04 69.7214 227.04H70.7454V228H69.5454C68.756 228 68.1694 227.819 67.7854 227.456C67.4014 227.083 67.2094 226.475 67.2094 225.632V220.208H65.9934V219.264H67.2094V217.072H68.3454V219.264H70.7454V220.208H68.3454Z" fill="#919394"/>
<path d="M72.1525 217.616C71.9285 217.616 71.7365 217.536 71.5765 217.376C71.4165 217.216 71.3365 217.019 71.3365 216.784C71.3365 216.549 71.4165 216.357 71.5765 216.208C71.7365 216.048 71.9285 215.968 72.1525 215.968C72.3765 215.968 72.5685 216.048 72.7285 216.208C72.8885 216.357 72.9685 216.549 72.9685 216.784C72.9685 217.019 72.8885 217.216 72.7285 217.376C72.5685 217.536 72.3765 217.616 72.1525 217.616ZM72.7125 219.264V228H71.5925V219.264H72.7125Z" fill="#919394"/>
<path d="M78.0728 228.128C77.2514 228.128 76.5101 227.947 75.8488 227.584C75.1981 227.211 74.6807 226.688 74.2967 226.016C73.9234 225.333 73.7368 224.539 73.7368 223.632C73.7368 222.725 73.9288 221.936 74.3128 221.264C74.6968 220.581 75.2194 220.059 75.8807 219.696C76.5421 219.323 77.2834 219.136 78.1048 219.136C78.9261 219.136 79.6674 219.323 80.3288 219.696C81.0008 220.059 81.5234 220.581 81.8968 221.264C82.2808 221.936 82.4728 222.725 82.4728 223.632C82.4728 224.528 82.2808 225.317 81.8968 226C81.5128 226.683 80.9848 227.211 80.3128 227.584C79.6408 227.947 78.8941 228.128 78.0728 228.128ZM78.0728 227.152C78.6488 227.152 79.1821 227.024 79.6728 226.768C80.1634 226.501 80.5581 226.107 80.8568 225.584C81.1661 225.051 81.3208 224.4 81.3208 223.632C81.3208 222.864 81.1714 222.219 80.8727 221.696C80.5741 221.163 80.1794 220.768 79.6888 220.512C79.1981 220.245 78.6647 220.112 78.0887 220.112C77.5127 220.112 76.9794 220.245 76.4888 220.512C75.9981 220.768 75.6034 221.163 75.3047 221.696C75.0167 222.219 74.8727 222.864 74.8727 223.632C74.8727 224.4 75.0167 225.051 75.3047 225.584C75.6034 226.107 75.9928 226.501 76.4728 226.768C76.9634 227.024 77.4968 227.152 78.0728 227.152Z" fill="#919394"/>
<path d="M87.6104 219.104C88.6557 219.104 89.509 219.429 90.1704 220.08C90.8317 220.72 91.1624 221.653 91.1624 222.88V228H90.0584V223.008C90.0584 222.059 89.8184 221.333 89.3384 220.832C88.869 220.331 88.2237 220.08 87.4024 220.08C86.5597 220.08 85.8877 220.347 85.3864 220.88C84.885 221.413 84.6344 222.197 84.6344 223.232V228H83.5144V219.264H84.6344V220.752C84.9117 220.219 85.3117 219.813 85.8344 219.536C86.357 219.248 86.949 219.104 87.6104 219.104Z" fill="#919394"/>
<path d="M38.304 264.112C37.2693 264.112 36.3307 263.872 35.488 263.392C34.6453 262.901 33.9787 262.224 33.488 261.36C33.008 260.485 32.768 259.499 32.768 258.4C32.768 257.301 33.008 256.32 33.488 255.456C33.9787 254.581 34.6453 253.904 35.488 253.424C36.3307 252.933 37.2693 252.688 38.304 252.688C39.3493 252.688 40.2933 252.933 41.136 253.424C41.9787 253.904 42.64 254.581 43.12 255.456C43.6 256.32 43.84 257.301 43.84 258.4C43.84 259.499 43.6 260.485 43.12 261.36C42.64 262.224 41.9787 262.901 41.136 263.392C40.2933 263.872 39.3493 264.112 38.304 264.112ZM38.304 263.136C39.136 263.136 39.8827 262.944 40.544 262.56C41.2053 262.176 41.728 261.627 42.112 260.912C42.496 260.187 42.688 259.349 42.688 258.4C42.688 257.451 42.496 256.619 42.112 255.904C41.728 255.189 41.2053 254.64 40.544 254.256C39.8827 253.872 39.136 253.68 38.304 253.68C37.472 253.68 36.7253 253.872 36.064 254.256C35.4027 254.64 34.88 255.189 34.496 255.904C34.112 256.619 33.92 257.451 33.92 258.4C33.92 259.349 34.112 260.187 34.496 260.912C34.88 261.627 35.4027 262.176 36.064 262.56C36.7253 262.944 37.472 263.136 38.304 263.136Z" fill="#919394"/>
<path d="M56.4094 255.264L53.6734 264H52.5534L50.1374 256.672L47.7214 264H46.5854L43.8494 255.264H44.9854L47.1614 262.864L49.6094 255.264H50.7294L53.1454 262.88L55.3054 255.264H56.4094Z" fill="#919394"/>
<path d="M61.0322 255.104C62.0776 255.104 62.9309 255.429 63.5922 256.08C64.2536 256.72 64.5842 257.653 64.5842 258.88V264H63.4802V259.008C63.4802 258.059 63.2402 257.333 62.7602 256.832C62.2909 256.331 61.6456 256.08 60.8242 256.08C59.9816 256.08 59.3096 256.347 58.8082 256.88C58.3069 257.413 58.0562 258.197 58.0562 259.232V264H56.9362V255.264H58.0562V256.752C58.3336 256.219 58.7336 255.813 59.2562 255.536C59.7789 255.248 60.3709 255.104 61.0322 255.104Z" fill="#919394"/>
<path d="M73.9652 259.184C73.9652 259.568 73.9546 259.861 73.9332 260.064H66.6852C66.7172 260.725 66.8772 261.291 67.1652 261.76C67.4532 262.229 67.8319 262.587 68.3012 262.832C68.7706 263.067 69.2826 263.184 69.8372 263.184C70.5626 263.184 71.1706 263.008 71.6612 262.656C72.1626 262.304 72.4932 261.829 72.6532 261.232H73.8372C73.6239 262.085 73.1652 262.784 72.4612 263.328C71.7679 263.861 70.8932 264.128 69.8372 264.128C69.0159 264.128 68.2799 263.947 67.6292 263.584C66.9786 263.211 66.4666 262.688 66.0932 262.016C65.7306 261.333 65.5492 260.539 65.5492 259.632C65.5492 258.725 65.7306 257.931 66.0932 257.248C66.4559 256.565 66.9626 256.043 67.6132 255.68C68.2639 255.317 69.0052 255.136 69.8372 255.136C70.6692 255.136 71.3946 255.317 72.0132 255.68C72.6426 256.043 73.1226 256.533 73.4532 257.152C73.7946 257.76 73.9652 258.437 73.9652 259.184ZM72.8292 259.152C72.8399 258.501 72.7066 257.947 72.4292 257.488C72.1626 257.029 71.7946 256.683 71.3252 256.448C70.8559 256.213 70.3439 256.096 69.7892 256.096C68.9572 256.096 68.2479 256.363 67.6612 256.896C67.0746 257.429 66.7492 258.181 66.6852 259.152H72.8292Z" fill="#919394"/>
<path d="M76.1344 256.816C76.3797 256.272 76.753 255.851 77.2544 255.552C77.7664 255.253 78.3904 255.104 79.1264 255.104V256.272H78.8224C78.0117 256.272 77.361 256.491 76.8704 256.928C76.3797 257.365 76.1344 258.096 76.1344 259.12V264H75.0144V255.264H76.1344V256.816Z" fill="#919394"/>
<path d="M44.208 288.96V300H43.088V291.184L39.152 300H38.336L34.4 291.216V300H33.28V288.96H34.464L38.736 298.528L43.008 288.96H44.208Z" fill="#919394"/>
<path d="M49.5727 300.128C48.7514 300.128 48.0101 299.947 47.3487 299.584C46.6981 299.211 46.1807 298.688 45.7967 298.016C45.4234 297.333 45.2367 296.539 45.2367 295.632C45.2367 294.725 45.4287 293.936 45.8127 293.264C46.1967 292.581 46.7194 292.059 47.3807 291.696C48.0421 291.323 48.7834 291.136 49.6047 291.136C50.4261 291.136 51.1674 291.323 51.8287 291.696C52.5007 292.059 53.0234 292.581 53.3967 293.264C53.7807 293.936 53.9727 294.725 53.9727 295.632C53.9727 296.528 53.7807 297.317 53.3967 298C53.0127 298.683 52.4847 299.211 51.8127 299.584C51.1407 299.947 50.3941 300.128 49.5727 300.128ZM49.5727 299.152C50.1487 299.152 50.6821 299.024 51.1727 298.768C51.6634 298.501 52.0581 298.107 52.3567 297.584C52.6661 297.051 52.8207 296.4 52.8207 295.632C52.8207 294.864 52.6714 294.219 52.3727 293.696C52.0741 293.163 51.6794 292.768 51.1887 292.512C50.6981 292.245 50.1647 292.112 49.5887 292.112C49.0127 292.112 48.4794 292.245 47.9887 292.512C47.4981 292.768 47.1034 293.163 46.8047 293.696C46.5167 294.219 46.3727 294.864 46.3727 295.632C46.3727 296.4 46.5167 297.051 46.8047 297.584C47.1034 298.107 47.4927 298.501 47.9727 298.768C48.4634 299.024 48.9967 299.152 49.5727 299.152Z" fill="#919394"/>
<path d="M54.5024 295.616C54.5024 294.72 54.6837 293.936 55.0464 293.264C55.409 292.581 55.905 292.059 56.5344 291.696C57.1744 291.323 57.8944 291.136 58.6944 291.136C59.4624 291.136 60.1557 291.323 60.7744 291.696C61.393 292.069 61.8464 292.555 62.1344 293.152V288.16H63.2544V300H62.1344V298.048C61.8677 298.656 61.4304 299.157 60.8224 299.552C60.2144 299.936 59.4997 300.128 58.6784 300.128C57.8784 300.128 57.1584 299.941 56.5184 299.568C55.889 299.195 55.393 298.667 55.0304 297.984C54.6784 297.301 54.5024 296.512 54.5024 295.616ZM62.1344 295.632C62.1344 294.928 61.9904 294.309 61.7024 293.776C61.4144 293.243 61.0197 292.832 60.5184 292.544C60.0277 292.256 59.4837 292.112 58.8864 292.112C58.2677 292.112 57.713 292.251 57.2224 292.528C56.7317 292.805 56.3424 293.211 56.0544 293.744C55.777 294.267 55.6384 294.891 55.6384 295.616C55.6384 296.331 55.777 296.96 56.0544 297.504C56.3424 298.037 56.7317 298.448 57.2224 298.736C57.713 299.013 58.2677 299.152 58.8864 299.152C59.4837 299.152 60.0277 299.008 60.5184 298.72C61.0197 298.432 61.4144 298.021 61.7024 297.488C61.9904 296.955 62.1344 296.336 62.1344 295.632Z" fill="#919394"/>
<path d="M65.3713 289.616C65.1473 289.616 64.9552 289.536 64.7952 289.376C64.6352 289.216 64.5552 289.019 64.5552 288.784C64.5552 288.549 64.6352 288.357 64.7952 288.208C64.9552 288.048 65.1473 287.968 65.3713 287.968C65.5953 287.968 65.7873 288.048 65.9473 288.208C66.1073 288.357 66.1872 288.549 66.1872 288.784C66.1872 289.019 66.1073 289.216 65.9473 289.376C65.7873 289.536 65.5953 289.616 65.3713 289.616ZM65.9313 291.264V300H64.8112V291.264H65.9313Z" fill="#919394"/>
<path d="M70.9075 292.208H68.8755V300H67.7555V292.208H66.5395V291.264H67.7555V290.656C67.7555 289.707 67.9955 289.008 68.4755 288.56C68.9662 288.112 69.7555 287.888 70.8435 287.888V288.848C70.1182 288.848 69.6062 288.987 69.3075 289.264C69.0195 289.541 68.8755 290.005 68.8755 290.656V291.264H70.9075V292.208Z" fill="#919394"/>
<path d="M72.2306 289.616C72.0066 289.616 71.8146 289.536 71.6546 289.376C71.4946 289.216 71.4146 289.019 71.4146 288.784C71.4146 288.549 71.4946 288.357 71.6546 288.208C71.8146 288.048 72.0066 287.968 72.2306 287.968C72.4546 287.968 72.6466 288.048 72.8066 288.208C72.9666 288.357 73.0466 288.549 73.0466 288.784C73.0466 289.019 72.9666 289.216 72.8066 289.376C72.6466 289.536 72.4546 289.616 72.2306 289.616ZM72.7906 291.264V300H71.6706V291.264H72.7906Z" fill="#919394"/>
<path d="M82.2309 295.184C82.2309 295.568 82.2202 295.861 82.1989 296.064H74.9509C74.9829 296.725 75.1429 297.291 75.4309 297.76C75.7189 298.229 76.0975 298.587 76.5669 298.832C77.0362 299.067 77.5482 299.184 78.1029 299.184C78.8282 299.184 79.4362 299.008 79.9269 298.656C80.4282 298.304 80.7589 297.829 80.9189 297.232H82.1029C81.8895 298.085 81.4309 298.784 80.7269 299.328C80.0335 299.861 79.1589 300.128 78.1029 300.128C77.2815 300.128 76.5455 299.947 75.8949 299.584C75.2442 299.211 74.7322 298.688 74.3589 298.016C73.9962 297.333 73.8149 296.539 73.8149 295.632C73.8149 294.725 73.9962 293.931 74.3589 293.248C74.7215 292.565 75.2282 292.043 75.8789 291.68C76.5295 291.317 77.2709 291.136 78.1029 291.136C78.9349 291.136 79.6602 291.317 80.2789 291.68C80.9082 292.043 81.3882 292.533 81.7189 293.152C82.0602 293.76 82.2309 294.437 82.2309 295.184ZM81.0949 295.152C81.1055 294.501 80.9722 293.947 80.6949 293.488C80.4282 293.029 80.0602 292.683 79.5909 292.448C79.1215 292.213 78.6095 292.096 78.0549 292.096C77.2229 292.096 76.5135 292.363 75.9269 292.896C75.3402 293.429 75.0149 294.181 74.9509 295.152H81.0949Z" fill="#919394"/>
<path d="M82.768 295.616C82.768 294.72 82.9493 293.936 83.312 293.264C83.6747 292.581 84.1707 292.059 84.8 291.696C85.44 291.323 86.16 291.136 86.96 291.136C87.728 291.136 88.4213 291.323 89.04 291.696C89.6587 292.069 90.112 292.555 90.4 293.152V288.16H91.52V300H90.4V298.048C90.1333 298.656 89.696 299.157 89.088 299.552C88.48 299.936 87.7653 300.128 86.944 300.128C86.144 300.128 85.424 299.941 84.784 299.568C84.1547 299.195 83.6587 298.667 83.296 297.984C82.944 297.301 82.768 296.512 82.768 295.616ZM90.4 295.632C90.4 294.928 90.256 294.309 89.968 293.776C89.68 293.243 89.2853 292.832 88.784 292.544C88.2933 292.256 87.7493 292.112 87.152 292.112C86.5333 292.112 85.9787 292.251 85.488 292.528C84.9973 292.805 84.608 293.211 84.32 293.744C84.0427 294.267 83.904 294.891 83.904 295.616C83.904 296.331 84.0427 296.96 84.32 297.504C84.608 298.037 84.9973 298.448 85.488 298.736C85.9787 299.013 86.5333 299.152 87.152 299.152C87.7493 299.152 88.2933 299.008 88.784 298.72C89.2853 298.432 89.68 298.021 89.968 297.488C90.256 296.955 90.4 296.336 90.4 295.632Z" fill="#919394"/>
<path d="M32.768 330.4C32.768 329.301 33.008 328.32 33.488 327.456C33.968 326.581 34.624 325.904 35.456 325.424C36.288 324.933 37.216 324.688 38.24 324.688C39.488 324.688 40.5547 324.987 41.44 325.584C42.336 326.171 42.9867 327.003 43.392 328.08H42.08C41.76 327.323 41.2693 326.731 40.608 326.304C39.9573 325.877 39.168 325.664 38.24 325.664C37.4187 325.664 36.6773 325.856 36.016 326.24C35.3653 326.624 34.8533 327.179 34.48 327.904C34.1067 328.619 33.92 329.451 33.92 330.4C33.92 331.349 34.1067 332.181 34.48 332.896C34.8533 333.611 35.3653 334.16 36.016 334.544C36.6773 334.928 37.4187 335.12 38.24 335.12C39.168 335.12 39.9573 334.912 40.608 334.496C41.2693 334.069 41.76 333.483 42.08 332.736H43.392C42.9867 333.803 42.336 334.629 41.44 335.216C40.544 335.803 39.4773 336.096 38.24 336.096C37.216 336.096 36.288 335.856 35.456 335.376C34.624 334.885 33.968 334.208 33.488 333.344C33.008 332.48 32.768 331.499 32.768 330.4Z" fill="#919394"/>
<path d="M45.7437 328.816C45.9891 328.272 46.3624 327.851 46.8637 327.552C47.3757 327.253 47.9997 327.104 48.7357 327.104V328.272H48.4317C47.6211 328.272 46.9704 328.491 46.4797 328.928C45.9891 329.365 45.7437 330.096 45.7437 331.12V336H44.6237V327.264H45.7437V328.816Z" fill="#919394"/>
<path d="M57.3246 331.184C57.3246 331.568 57.314 331.861 57.2926 332.064H50.0446C50.0766 332.725 50.2366 333.291 50.5246 333.76C50.8126 334.229 51.1913 334.587 51.6606 334.832C52.13 335.067 52.642 335.184 53.1966 335.184C53.922 335.184 54.53 335.008 55.0206 334.656C55.522 334.304 55.8526 333.829 56.0126 333.232H57.1966C56.9833 334.085 56.5246 334.784 55.8206 335.328C55.1273 335.861 54.2526 336.128 53.1966 336.128C52.3753 336.128 51.6393 335.947 50.9886 335.584C50.338 335.211 49.826 334.688 49.4526 334.016C49.09 333.333 48.9086 332.539 48.9086 331.632C48.9086 330.725 49.09 329.931 49.4526 329.248C49.8153 328.565 50.322 328.043 50.9726 327.68C51.6233 327.317 52.3646 327.136 53.1966 327.136C54.0286 327.136 54.754 327.317 55.3726 327.68C56.002 328.043 56.482 328.533 56.8126 329.152C57.154 329.76 57.3246 330.437 57.3246 331.184ZM56.1886 331.152C56.1993 330.501 56.066 329.947 55.7886 329.488C55.522 329.029 55.154 328.683 54.6846 328.448C54.2153 328.213 53.7033 328.096 53.1486 328.096C52.3166 328.096 51.6073 328.363 51.0206 328.896C50.434 329.429 50.1086 330.181 50.0446 331.152H56.1886Z" fill="#919394"/>
<path d="M57.8617 331.616C57.8617 330.72 58.0377 329.936 58.3897 329.264C58.7524 328.581 59.2484 328.059 59.8777 327.696C60.5177 327.323 61.2377 327.136 62.0377 327.136C62.8697 327.136 63.5844 327.328 64.1817 327.712C64.7897 328.096 65.2271 328.587 65.4937 329.184V327.264H66.6137V336H65.4937V334.064C65.2164 334.661 64.7737 335.157 64.1657 335.552C63.5684 335.936 62.8537 336.128 62.0217 336.128C61.2324 336.128 60.5177 335.941 59.8777 335.568C59.2484 335.195 58.7524 334.667 58.3897 333.984C58.0377 333.301 57.8617 332.512 57.8617 331.616ZM65.4937 331.632C65.4937 330.928 65.3497 330.309 65.0617 329.776C64.7737 329.243 64.3791 328.832 63.8777 328.544C63.3871 328.256 62.8431 328.112 62.2457 328.112C61.6271 328.112 61.0724 328.251 60.5817 328.528C60.0911 328.805 59.7017 329.211 59.4137 329.744C59.1364 330.267 58.9977 330.891 58.9977 331.616C58.9977 332.331 59.1364 332.96 59.4137 333.504C59.7017 334.037 60.0911 334.448 60.5817 334.736C61.0724 335.013 61.6271 335.152 62.2457 335.152C62.8431 335.152 63.3871 335.008 63.8777 334.72C64.3791 334.432 64.7737 334.021 65.0617 333.488C65.3497 332.955 65.4937 332.336 65.4937 331.632Z" fill="#919394"/>
<path d="M69.6266 328.208V333.632C69.6266 334.165 69.728 334.533 69.9306 334.736C70.1333 334.939 70.4906 335.04 71.0026 335.04H72.0266V336H70.8266C70.0373 336 69.4506 335.819 69.0666 335.456C68.6826 335.083 68.4906 334.475 68.4906 333.632V328.208H67.2746V327.264H68.4906V325.072H69.6266V327.264H72.0266V328.208H69.6266Z" fill="#919394"/>
<path d="M80.7777 331.184C80.7777 331.568 80.7671 331.861 80.7457 332.064H73.4977C73.5297 332.725 73.6897 333.291 73.9777 333.76C74.2657 334.229 74.6444 334.587 75.1137 334.832C75.5831 335.067 76.0951 335.184 76.6497 335.184C77.3751 335.184 77.9831 335.008 78.4737 334.656C78.9751 334.304 79.3057 333.829 79.4657 333.232H80.6497C80.4364 334.085 79.9777 334.784 79.2737 335.328C78.5804 335.861 77.7057 336.128 76.6497 336.128C75.8284 336.128 75.0924 335.947 74.4417 335.584C73.7911 335.211 73.2791 334.688 72.9057 334.016C72.5431 333.333 72.3617 332.539 72.3617 331.632C72.3617 330.725 72.5431 329.931 72.9057 329.248C73.2684 328.565 73.7751 328.043 74.4257 327.68C75.0764 327.317 75.8177 327.136 76.6497 327.136C77.4817 327.136 78.2071 327.317 78.8257 327.68C79.4551 328.043 79.9351 328.533 80.2657 329.152C80.6071 329.76 80.7777 330.437 80.7777 331.184ZM79.6417 331.152C79.6524 330.501 79.5191 329.947 79.2417 329.488C78.9751 329.029 78.6071 328.683 78.1377 328.448C77.6684 328.213 77.1564 328.096 76.6017 328.096C75.7697 328.096 75.0604 328.363 74.4737 328.896C73.8871 329.429 73.5617 330.181 73.4977 331.152H79.6417Z" fill="#919394"/>
<path d="M81.3149 331.616C81.3149 330.72 81.4962 329.936 81.8589 329.264C82.2215 328.581 82.7175 328.059 83.3469 327.696C83.9869 327.323 84.7069 327.136 85.5069 327.136C86.2749 327.136 86.9682 327.323 87.5869 327.696C88.2055 328.069 88.6589 328.555 88.9469 329.152V324.16H90.0669V336H88.9469V334.048C88.6802 334.656 88.2429 335.157 87.6349 335.552C87.0269 335.936 86.3122 336.128 85.4909 336.128C84.6909 336.128 83.9709 335.941 83.3309 335.568C82.7015 335.195 82.2055 334.667 81.8429 333.984C81.4909 333.301 81.3149 332.512 81.3149 331.616ZM88.9469 331.632C88.9469 330.928 88.8029 330.309 88.5149 329.776C88.2269 329.243 87.8322 328.832 87.3309 328.544C86.8402 328.256 86.2962 328.112 85.6989 328.112C85.0802 328.112 84.5255 328.251 84.0349 328.528C83.5442 328.805 83.1549 329.211 82.8669 329.744C82.5895 330.267 82.4509 330.891 82.4509 331.616C82.4509 332.331 82.5895 332.96 82.8669 333.504C83.1549 334.037 83.5442 334.448 84.0349 334.736C84.5255 335.013 85.0802 335.152 85.6989 335.152C86.2962 335.152 86.8402 335.008 87.3309 334.72C87.8322 334.432 88.2269 334.021 88.5149 333.488C88.8029 332.955 88.9469 332.336 88.9469 331.632Z" fill="#919394"/>
<g clip-path="url(#clip1_62_320)">
<path d="M162.4 144.816V156H161.28V144.816H162.4Z" fill="#262A2C"/>
<path d="M174.336 147.104C175.36 147.104 176.192 147.429 176.832 148.08C177.483 148.72 177.808 149.653 177.808 150.88V156H176.704V151.008C176.704 150.059 176.475 149.333 176.016 148.832C175.558 148.331 174.934 148.08 174.144 148.08C173.323 148.08 172.667 148.352 172.176 148.896C171.686 149.44 171.44 150.229 171.44 151.264V156H170.336V151.008C170.336 150.059 170.107 149.333 169.648 148.832C169.19 148.331 168.56 148.08 167.76 148.08C166.939 148.08 166.283 148.352 165.792 148.896C165.302 149.44 165.056 150.229 165.056 151.264V156H163.936V147.264H165.056V148.768C165.334 148.224 165.728 147.813 166.24 147.536C166.752 147.248 167.323 147.104 167.952 147.104C168.71 147.104 169.371 147.285 169.936 147.648C170.512 148.011 170.928 148.544 171.184 149.248C171.419 148.555 171.819 148.027 172.384 147.664C172.96 147.291 173.611 147.104 174.336 147.104Z" fill="#262A2C"/>
<path d="M178.784 151.616C178.784 150.72 178.96 149.936 179.312 149.264C179.674 148.581 180.17 148.059 180.8 147.696C181.44 147.323 182.16 147.136 182.96 147.136C183.792 147.136 184.506 147.328 185.104 147.712C185.712 148.096 186.149 148.587 186.416 149.184V147.264H187.536V156H186.416V154.064C186.138 154.661 185.696 155.157 185.088 155.552C184.49 155.936 183.776 156.128 182.944 156.128C182.154 156.128 181.44 155.941 180.8 155.568C180.17 155.195 179.674 154.667 179.312 153.984C178.96 153.301 178.784 152.512 178.784 151.616ZM186.416 151.632C186.416 150.928 186.272 150.309 185.984 149.776C185.696 149.243 185.301 148.832 184.8 148.544C184.309 148.256 183.765 148.112 183.168 148.112C182.549 148.112 181.994 148.251 181.504 148.528C181.013 148.805 180.624 149.211 180.336 149.744C180.058 150.267 179.92 150.891 179.92 151.616C179.92 152.331 180.058 152.96 180.336 153.504C180.624 154.037 181.013 154.448 181.504 154.736C181.994 155.013 182.549 155.152 183.168 155.152C183.765 155.152 184.309 155.008 184.8 154.72C185.301 154.432 185.696 154.021 185.984 153.488C186.272 152.955 186.416 152.336 186.416 151.632Z" fill="#262A2C"/>
<path d="M192.756 147.136C193.578 147.136 194.293 147.328 194.901 147.712C195.509 148.096 195.946 148.581 196.213 149.168V147.264H197.333V156.224C197.333 157.024 197.157 157.733 196.805 158.352C196.463 158.971 195.983 159.445 195.365 159.776C194.746 160.117 194.042 160.288 193.252 160.288C192.132 160.288 191.199 160.021 190.452 159.488C189.716 158.955 189.258 158.229 189.076 157.312H190.18C190.372 157.92 190.735 158.405 191.268 158.768C191.812 159.131 192.474 159.312 193.252 159.312C193.818 159.312 194.324 159.189 194.772 158.944C195.22 158.709 195.572 158.357 195.828 157.888C196.084 157.419 196.213 156.864 196.213 156.224V154.064C195.935 154.661 195.492 155.157 194.884 155.552C194.287 155.936 193.578 156.128 192.756 156.128C191.956 156.128 191.236 155.941 190.596 155.568C189.967 155.195 189.471 154.667 189.108 153.984C188.756 153.301 188.58 152.512 188.58 151.616C188.58 150.72 188.756 149.936 189.108 149.264C189.471 148.581 189.967 148.059 190.596 147.696C191.236 147.323 191.956 147.136 192.756 147.136ZM196.213 151.632C196.213 150.928 196.069 150.309 195.781 149.776C195.493 149.243 195.098 148.832 194.597 148.544C194.106 148.256 193.562 148.112 192.964 148.112C192.346 148.112 191.791 148.251 191.3 148.528C190.81 148.805 190.42 149.211 190.132 149.744C189.855 150.267 189.716 150.891 189.716 151.616C189.716 152.331 189.855 152.96 190.132 153.504C190.42 154.037 190.81 154.448 191.3 154.736C191.791 155.013 192.346 155.152 192.964 155.152C193.562 155.152 194.106 155.008 194.597 154.72C195.098 154.432 195.493 154.021 195.781 153.488C196.069 152.955 196.213 152.336 196.213 151.632Z" fill="#262A2C"/>
<path d="M206.793 151.184C206.793 151.568 206.783 151.861 206.761 152.064H199.513C199.545 152.725 199.705 153.291 199.993 153.76C200.281 154.229 200.66 154.587 201.129 154.832C201.599 155.067 202.111 155.184 202.665 155.184C203.391 155.184 203.999 155.008 204.489 154.656C204.991 154.304 205.321 153.829 205.481 153.232H206.665C206.452 154.085 205.993 154.784 205.289 155.328C204.596 155.861 203.721 156.128 202.665 156.128C201.844 156.128 201.108 155.947 200.457 155.584C199.807 155.211 199.295 154.688 198.921 154.016C198.559 153.333 198.377 152.539 198.377 151.632C198.377 150.725 198.559 149.931 198.921 149.248C199.284 148.565 199.791 148.043 200.441 147.68C201.092 147.317 201.833 147.136 202.665 147.136C203.497 147.136 204.223 147.317 204.841 147.68C205.471 148.043 205.951 148.533 206.281 149.152C206.623 149.76 206.793 150.437 206.793 151.184ZM205.657 151.152C205.668 150.501 205.535 149.947 205.257 149.488C204.991 149.029 204.623 148.683 204.153 148.448C203.684 148.213 203.172 148.096 202.617 148.096C201.785 148.096 201.076 148.363 200.489 148.896C199.903 149.429 199.577 150.181 199.513 151.152H205.657Z" fill="#262A2C"/>
</g>
<path d="M160.496 181.536V180.528H163.216V192H162.08V181.536H160.496Z" fill="#262A2C"/>
<path d="M164.712 186.16C164.712 184.325 164.995 182.901 165.56 181.888C166.125 180.875 167.139 180.368 168.6 180.368C170.061 180.368 171.075 180.875 171.64 181.888C172.205 182.901 172.488 184.325 172.488 186.16C172.488 188.027 172.205 189.472 171.64 190.496C171.075 191.52 170.061 192.032 168.6 192.032C167.128 192.032 166.109 191.52 165.544 190.496C164.989 189.472 164.712 188.027 164.712 186.16ZM171.384 186.16C171.384 185.168 171.315 184.331 171.176 183.648C171.037 182.965 170.765 182.416 170.36 182C169.955 181.584 169.368 181.376 168.6 181.376C167.832 181.376 167.245 181.584 166.84 182C166.435 182.416 166.163 182.965 166.024 183.648C165.885 184.331 165.816 185.168 165.816 186.16C165.816 187.184 165.885 188.043 166.024 188.736C166.163 189.419 166.435 189.968 166.84 190.384C167.245 190.8 167.832 191.008 168.6 191.008C169.368 191.008 169.955 190.8 170.36 190.384C170.765 189.968 171.037 189.419 171.176 188.736C171.315 188.043 171.384 187.184 171.384 186.16Z" fill="#262A2C"/>
<path d="M188.13 180.96V192H187.01V183.184L183.074 192H182.258L178.322 183.216V192H177.202V180.96H178.386L182.658 190.528L186.93 180.96H188.13Z" fill="#262A2C"/>
<path d="M194.903 186.224C195.532 186.341 196.065 186.661 196.503 187.184C196.94 187.707 197.159 188.315 197.159 189.008C197.159 189.573 197.015 190.085 196.727 190.544C196.449 190.992 196.039 191.349 195.495 191.616C194.951 191.872 194.3 192 193.543 192H189.671V180.816H193.431C194.561 180.816 195.42 181.077 196.007 181.6C196.604 182.123 196.903 182.8 196.903 183.632C196.903 184.325 196.716 184.891 196.343 185.328C195.969 185.755 195.489 186.053 194.903 186.224ZM190.791 185.76H193.399C194.156 185.76 194.737 185.584 195.143 185.232C195.559 184.869 195.767 184.373 195.767 183.744C195.767 183.125 195.559 182.64 195.143 182.288C194.737 181.936 194.14 181.76 193.351 181.76H190.791V185.76ZM193.463 191.056C194.273 191.056 194.903 190.864 195.351 190.48C195.809 190.096 196.039 189.568 196.039 188.896C196.039 188.224 195.799 187.691 195.319 187.296C194.849 186.891 194.215 186.688 193.415 186.688H190.791V191.056H193.463Z" fill="#262A2C"/>
<g clip-path="url(#clip2_62_320)">
<path d="M172.208 216.96V228H171.088V219.184L167.152 228H166.336L162.4 219.216V228H161.28V216.96H162.464L166.736 226.528L171.008 216.96H172.208Z" fill="#262A2C"/>
<path d="M180.949 219.264L175.765 232.112H174.597L176.293 227.952L172.709 219.264H173.941L176.917 226.72L179.797 219.264H180.949Z" fill="#262A2C"/>
<path d="M190.906 216.816V217.744H185.978V221.92H190.138V222.848H185.978V228H184.858V216.816H190.906Z" fill="#262A2C"/>
<path d="M192.309 217.616C192.085 217.616 191.893 217.536 191.733 217.376C191.573 217.216 191.493 217.019 191.493 216.784C191.493 216.549 191.573 216.357 191.733 216.208C191.893 216.048 192.085 215.968 192.309 215.968C192.533 215.968 192.725 216.048 192.885 216.208C193.045 216.357 193.125 216.549 193.125 216.784C193.125 217.019 193.045 217.216 192.885 217.376C192.725 217.536 192.533 217.616 192.309 217.616ZM192.869 219.264V228H191.749V219.264H192.869Z" fill="#262A2C"/>
<path d="M195.525 216.16V228H194.405V216.16H195.525Z" fill="#262A2C"/>
<path d="M204.965 223.184C204.965 223.568 204.955 223.861 204.933 224.064H197.685C197.717 224.725 197.877 225.291 198.165 225.76C198.453 226.229 198.832 226.587 199.301 226.832C199.771 227.067 200.283 227.184 200.837 227.184C201.563 227.184 202.171 227.008 202.661 226.656C203.163 226.304 203.493 225.829 203.653 225.232H204.837C204.624 226.085 204.165 226.784 203.461 227.328C202.768 227.861 201.893 228.128 200.837 228.128C200.016 228.128 199.28 227.947 198.629 227.584C197.979 227.211 197.467 226.688 197.093 226.016C196.731 225.333 196.549 224.539 196.549 223.632C196.549 222.725 196.731 221.931 197.093 221.248C197.456 220.565 197.963 220.043 198.613 219.68C199.264 219.317 200.005 219.136 200.837 219.136C201.669 219.136 202.395 219.317 203.013 219.68C203.643 220.043 204.123 220.533 204.453 221.152C204.795 221.76 204.965 222.437 204.965 223.184ZM203.829 223.152C203.84 222.501 203.707 221.947 203.429 221.488C203.163 221.029 202.795 220.683 202.325 220.448C201.856 220.213 201.344 220.096 200.789 220.096C199.957 220.096 199.248 220.363 198.661 220.896C198.075 221.429 197.749 222.181 197.685 223.152H203.829Z" fill="#262A2C"/>
<path d="M209.022 228.128C208.02 228.128 207.198 227.899 206.558 227.44C205.929 226.971 205.577 226.336 205.502 225.536H206.654C206.708 226.027 206.937 226.427 207.342 226.736C207.758 227.035 208.313 227.184 209.006 227.184C209.614 227.184 210.089 227.04 210.43 226.752C210.782 226.464 210.958 226.107 210.958 225.68C210.958 225.381 210.862 225.136 210.67 224.944C210.478 224.752 210.233 224.603 209.934 224.496C209.646 224.379 209.252 224.256 208.75 224.128C208.1 223.957 207.572 223.787 207.166 223.616C206.761 223.445 206.414 223.195 206.126 222.864C205.849 222.523 205.71 222.069 205.71 221.504C205.71 221.077 205.838 220.683 206.094 220.32C206.35 219.957 206.713 219.669 207.182 219.456C207.652 219.243 208.185 219.136 208.782 219.136C209.721 219.136 210.478 219.376 211.054 219.856C211.63 220.325 211.94 220.976 211.982 221.808H210.862C210.83 221.296 210.628 220.885 210.254 220.576C209.892 220.256 209.39 220.096 208.75 220.096C208.185 220.096 207.726 220.229 207.374 220.496C207.022 220.763 206.846 221.093 206.846 221.488C206.846 221.829 206.948 222.112 207.15 222.336C207.364 222.549 207.625 222.72 207.934 222.848C208.244 222.965 208.66 223.099 209.182 223.248C209.812 223.419 210.313 223.584 210.686 223.744C211.06 223.904 211.38 224.139 211.646 224.448C211.913 224.757 212.052 225.168 212.062 225.68C212.062 226.149 211.934 226.571 211.678 226.944C211.422 227.307 211.065 227.595 210.606 227.808C210.148 228.021 209.62 228.128 209.022 228.128Z" fill="#262A2C"/>
</g>
<path d="M171.68 255.104C172.704 255.104 173.536 255.429 174.176 256.08C174.827 256.72 175.152 257.653 175.152 258.88V264H174.048V259.008C174.048 258.059 173.819 257.333 173.36 256.832C172.901 256.331 172.277 256.08 171.488 256.08C170.667 256.08 170.011 256.352 169.52 256.896C169.029 257.44 168.784 258.229 168.784 259.264V264H167.68V259.008C167.68 258.059 167.451 257.333 166.992 256.832C166.533 256.331 165.904 256.08 165.104 256.08C164.283 256.08 163.627 256.352 163.136 256.896C162.645 257.44 162.4 258.229 162.4 259.264V264H161.28V255.264H162.4V256.768C162.677 256.224 163.072 255.813 163.584 255.536C164.096 255.248 164.667 255.104 165.296 255.104C166.053 255.104 166.715 255.285 167.28 255.648C167.856 256.011 168.272 256.544 168.528 257.248C168.763 256.555 169.163 256.027 169.728 255.664C170.304 255.291 170.955 255.104 171.68 255.104Z" fill="#262A2C"/>
<path d="M184.543 259.184C184.543 259.568 184.533 259.861 184.511 260.064H177.263C177.295 260.725 177.455 261.291 177.743 261.76C178.031 262.229 178.41 262.587 178.879 262.832C179.349 263.067 179.861 263.184 180.415 263.184C181.141 263.184 181.749 263.008 182.239 262.656C182.741 262.304 183.071 261.829 183.231 261.232H184.415C184.202 262.085 183.743 262.784 183.039 263.328C182.346 263.861 181.471 264.128 180.415 264.128C179.594 264.128 178.858 263.947 178.207 263.584C177.557 263.211 177.045 262.688 176.671 262.016C176.309 261.333 176.127 260.539 176.127 259.632C176.127 258.725 176.309 257.931 176.671 257.248C177.034 256.565 177.541 256.043 178.191 255.68C178.842 255.317 179.583 255.136 180.415 255.136C181.247 255.136 181.973 255.317 182.591 255.68C183.221 256.043 183.701 256.533 184.031 257.152C184.373 257.76 184.543 258.437 184.543 259.184ZM183.407 259.152C183.418 258.501 183.285 257.947 183.007 257.488C182.741 257.029 182.373 256.683 181.903 256.448C181.434 256.213 180.922 256.096 180.367 256.096C179.535 256.096 178.826 256.363 178.239 256.896C177.653 257.429 177.327 258.181 177.263 259.152H183.407Z" fill="#262A2C"/>
<path d="M166.448 288.816V297.28C166.448 298.133 166.187 298.821 165.664 299.344C165.141 299.856 164.443 300.112 163.568 300.112C162.661 300.112 161.936 299.84 161.392 299.296C160.859 298.741 160.592 297.995 160.592 297.056H161.728C161.739 297.664 161.888 298.16 162.176 298.544C162.475 298.928 162.939 299.12 163.568 299.12C164.165 299.12 164.608 298.944 164.896 298.592C165.184 298.24 165.328 297.803 165.328 297.28V288.816H166.448Z" fill="#262A2C"/>
<path d="M175.832 291.264V300H174.712V298.464C174.456 299.008 174.062 299.424 173.528 299.712C172.995 300 172.398 300.144 171.736 300.144C170.691 300.144 169.838 299.824 169.176 299.184C168.515 298.533 168.184 297.595 168.184 296.368V291.264H169.288V296.24C169.288 297.189 169.523 297.915 169.992 298.416C170.472 298.917 171.123 299.168 171.944 299.168C172.787 299.168 173.459 298.901 173.96 298.368C174.462 297.835 174.712 297.051 174.712 296.016V291.264H175.832Z" fill="#262A2C"/>
<path d="M178.509 288.16V300H177.389V288.16H178.509Z" fill="#262A2C"/>
<path d="M182.7 297.28V296.432L188.524 288.592H189.852V296.304H191.564V297.28H189.852V300H188.748V297.28H182.7ZM188.796 289.824L183.996 296.304H188.796V289.824Z" fill="#262A2C"/>
<path d="M193.273 298.144L191.609 302.336H190.841L192.025 298.144H193.273Z" fill="#262A2C"/>
<path d="M196.941 299.12C198.904 297.648 200.418 296.331 201.485 295.168C202.562 293.995 203.101 292.848 203.101 291.728C203.101 290.992 202.914 290.405 202.541 289.968C202.178 289.52 201.581 289.296 200.749 289.296C199.938 289.296 199.309 289.552 198.861 290.064C198.424 290.565 198.178 291.237 198.125 292.08H197.037C197.101 290.896 197.464 289.979 198.125 289.328C198.797 288.667 199.672 288.336 200.749 288.336C201.784 288.336 202.621 288.629 203.261 289.216C203.901 289.792 204.221 290.613 204.221 291.68C204.221 292.971 203.682 294.224 202.605 295.44C201.538 296.645 200.221 297.824 198.653 298.976H204.573V299.92H196.941V299.12Z" fill="#262A2C"/>
<path d="M205.321 294.16C205.321 292.325 205.604 290.901 206.169 289.888C206.735 288.875 207.748 288.368 209.209 288.368C210.671 288.368 211.684 288.875 212.249 289.888C212.815 290.901 213.097 292.325 213.097 294.16C213.097 296.027 212.815 297.472 212.249 298.496C211.684 299.52 210.671 300.032 209.209 300.032C207.737 300.032 206.719 299.52 206.153 298.496C205.599 297.472 205.321 296.027 205.321 294.16ZM211.993 294.16C211.993 293.168 211.924 292.331 211.785 291.648C211.647 290.965 211.375 290.416 210.969 290C210.564 289.584 209.977 289.376 209.209 289.376C208.441 289.376 207.855 289.584 207.449 290C207.044 290.416 206.772 290.965 206.633 291.648C206.495 292.331 206.425 293.168 206.425 294.16C206.425 295.184 206.495 296.043 206.633 296.736C206.772 297.419 207.044 297.968 207.449 298.384C207.855 298.8 208.441 299.008 209.209 299.008C209.977 299.008 210.564 298.8 210.969 298.384C211.375 297.968 211.647 297.419 211.785 296.736C211.924 296.043 211.993 295.184 211.993 294.16Z" fill="#262A2C"/>
<path d="M213.957 299.12C215.919 297.648 217.434 296.331 218.501 295.168C219.578 293.995 220.117 292.848 220.117 291.728C220.117 290.992 219.93 290.405 219.557 289.968C219.194 289.52 218.597 289.296 217.765 289.296C216.954 289.296 216.325 289.552 215.877 290.064C215.439 290.565 215.194 291.237 215.141 292.08H214.053C214.117 290.896 214.479 289.979 215.141 289.328C215.813 288.667 216.687 288.336 217.765 288.336C218.799 288.336 219.637 288.629 220.277 289.216C220.917 289.792 221.237 290.613 221.237 291.68C221.237 292.971 220.698 294.224 219.621 295.44C218.554 296.645 217.237 297.824 215.669 298.976H221.589V299.92H213.957V299.12Z" fill="#262A2C"/>
<path d="M222.113 299.12C224.076 297.648 225.59 296.331 226.657 295.168C227.734 293.995 228.273 292.848 228.273 291.728C228.273 290.992 228.086 290.405 227.713 289.968C227.35 289.52 226.753 289.296 225.921 289.296C225.11 289.296 224.481 289.552 224.033 290.064C223.596 290.565 223.35 291.237 223.297 292.08H222.209C222.273 290.896 222.636 289.979 223.297 289.328C223.969 288.667 224.844 288.336 225.921 288.336C226.956 288.336 227.793 288.629 228.433 289.216C229.073 289.792 229.393 290.613 229.393 291.68C229.393 292.971 228.854 294.224 227.777 295.44C226.71 296.645 225.393 297.824 223.825 298.976H229.745V299.92H222.113V299.12Z" fill="#262A2C"/>
<path d="M167.328 324.816V325.744H162.4V329.92H166.56V330.848H162.4V336H161.28V324.816H167.328Z" fill="#262A2C"/>
<path d="M176.075 331.184C176.075 331.568 176.064 331.861 176.043 332.064H168.795C168.827 332.725 168.987 333.291 169.275 333.76C169.563 334.229 169.941 334.587 170.411 334.832C170.88 335.067 171.392 335.184 171.947 335.184C172.672 335.184 173.28 335.008 173.771 334.656C174.272 334.304 174.603 333.829 174.763 333.232H175.947C175.733 334.085 175.275 334.784 174.571 335.328C173.877 335.861 173.003 336.128 171.947 336.128C171.125 336.128 170.389 335.947 169.739 335.584C169.088 335.211 168.576 334.688 168.203 334.016C167.84 333.333 167.659 332.539 167.659 331.632C167.659 330.725 167.84 329.931 168.203 329.248C168.565 328.565 169.072 328.043 169.723 327.68C170.373 327.317 171.115 327.136 171.947 327.136C172.779 327.136 173.504 327.317 174.123 327.68C174.752 328.043 175.232 328.533 175.563 329.152C175.904 329.76 176.075 330.437 176.075 331.184ZM174.939 331.152C174.949 330.501 174.816 329.947 174.539 329.488C174.272 329.029 173.904 328.683 173.435 328.448C172.965 328.213 172.453 328.096 171.899 328.096C171.067 328.096 170.357 328.363 169.771 328.896C169.184 329.429 168.859 330.181 168.795 331.152H174.939Z" fill="#262A2C"/>
<path d="M178.228 329.2C178.516 328.592 178.958 328.096 179.556 327.712C180.164 327.328 180.878 327.136 181.7 327.136C182.5 327.136 183.214 327.323 183.844 327.696C184.473 328.059 184.964 328.581 185.316 329.264C185.678 329.936 185.86 330.72 185.86 331.616C185.86 332.512 185.678 333.301 185.316 333.984C184.964 334.667 184.468 335.195 183.828 335.568C183.198 335.941 182.489 336.128 181.7 336.128C180.868 336.128 180.148 335.941 179.54 335.568C178.942 335.184 178.505 334.688 178.228 334.08V336H177.124V324.16H178.228V329.2ZM184.724 331.616C184.724 330.891 184.58 330.267 184.292 329.744C184.014 329.211 183.63 328.805 183.14 328.528C182.649 328.251 182.094 328.112 181.476 328.112C180.878 328.112 180.329 328.256 179.828 328.544C179.337 328.832 178.948 329.243 178.66 329.776C178.372 330.309 178.228 330.928 178.228 331.632C178.228 332.336 178.372 332.955 178.66 333.488C178.948 334.021 179.337 334.432 179.828 334.72C180.329 335.008 180.878 335.152 181.476 335.152C182.094 335.152 182.649 335.013 183.14 334.736C183.63 334.448 184.014 334.037 184.292 333.504C184.58 332.96 184.724 332.331 184.724 331.616Z" fill="#262A2C"/>
<path d="M189.847 335.12C191.81 333.648 193.325 332.331 194.391 331.168C195.469 329.995 196.007 328.848 196.007 327.728C196.007 326.992 195.821 326.405 195.447 325.968C195.085 325.52 194.487 325.296 193.655 325.296C192.845 325.296 192.215 325.552 191.767 326.064C191.33 326.565 191.085 327.237 191.031 328.08H189.943C190.007 326.896 190.37 325.979 191.031 325.328C191.703 324.667 192.578 324.336 193.655 324.336C194.69 324.336 195.527 324.629 196.167 325.216C196.807 325.792 197.127 326.613 197.127 327.68C197.127 328.971 196.589 330.224 195.511 331.44C194.445 332.645 193.127 333.824 191.559 334.976H197.479V335.92H189.847V335.12Z" fill="#262A2C"/>
<path d="M199.492 334.144L197.827 338.336H197.06L198.243 334.144H199.492Z" fill="#262A2C"/>
<path d="M203.16 335.12C205.122 333.648 206.637 332.331 207.704 331.168C208.781 329.995 209.32 328.848 209.32 327.728C209.32 326.992 209.133 326.405 208.76 325.968C208.397 325.52 207.8 325.296 206.968 325.296C206.157 325.296 205.528 325.552 205.08 326.064C204.642 326.565 204.397 327.237 204.344 328.08H203.256C203.32 326.896 203.682 325.979 204.344 325.328C205.016 324.667 205.89 324.336 206.968 324.336C208.002 324.336 208.84 324.629 209.48 325.216C210.12 325.792 210.44 326.613 210.44 327.68C210.44 328.971 209.901 330.224 208.824 331.44C207.757 332.645 206.44 333.824 204.872 334.976H210.792V335.92H203.16V335.12Z" fill="#262A2C"/>
<path d="M211.54 330.16C211.54 328.325 211.823 326.901 212.388 325.888C212.953 324.875 213.967 324.368 215.428 324.368C216.889 324.368 217.903 324.875 218.468 325.888C219.033 326.901 219.316 328.325 219.316 330.16C219.316 332.027 219.033 333.472 218.468 334.496C217.903 335.52 216.889 336.032 215.428 336.032C213.956 336.032 212.937 335.52 212.372 334.496C211.817 333.472 211.54 332.027 211.54 330.16ZM218.212 330.16C218.212 329.168 218.143 328.331 218.004 327.648C217.865 326.965 217.593 326.416 217.188 326C216.783 325.584 216.196 325.376 215.428 325.376C214.66 325.376 214.073 325.584 213.668 326C213.263 326.416 212.991 326.965 212.852 327.648C212.713 328.331 212.644 329.168 212.644 330.16C212.644 331.184 212.713 332.043 212.852 332.736C212.991 333.419 213.263 333.968 213.668 334.384C214.073 334.8 214.66 335.008 215.428 335.008C216.196 335.008 216.783 334.8 217.188 334.384C217.593 333.968 217.865 333.419 218.004 332.736C218.143 332.043 218.212 331.184 218.212 330.16Z" fill="#262A2C"/>
<path d="M220.175 335.12C222.138 333.648 223.653 332.331 224.719 331.168C225.797 329.995 226.335 328.848 226.335 327.728C226.335 326.992 226.149 326.405 225.775 325.968C225.413 325.52 224.815 325.296 223.983 325.296C223.173 325.296 222.543 325.552 222.095 326.064C221.658 326.565 221.413 327.237 221.359 328.08H220.271C220.335 326.896 220.698 325.979 221.359 325.328C222.031 324.667 222.906 324.336 223.983 324.336C225.018 324.336 225.855 324.629 226.495 325.216C227.135 325.792 227.455 326.613 227.455 327.68C227.455 328.971 226.917 330.224 225.839 331.44C224.773 332.645 223.455 333.824 221.887 334.976H227.807V335.92H220.175V335.12Z" fill="#262A2C"/>
<path d="M228.332 335.12C230.294 333.648 231.809 332.331 232.876 331.168C233.953 329.995 234.492 328.848 234.492 327.728C234.492 326.992 234.305 326.405 233.932 325.968C233.569 325.52 232.972 325.296 232.14 325.296C231.329 325.296 230.7 325.552 230.252 326.064C229.814 326.565 229.569 327.237 229.516 328.08H228.428C228.492 326.896 228.854 325.979 229.516 325.328C230.188 324.667 231.062 324.336 232.14 324.336C233.174 324.336 234.012 324.629 234.652 325.216C235.292 325.792 235.612 326.613 235.612 327.68C235.612 328.971 235.073 330.224 233.996 331.44C232.929 332.645 231.612 333.824 230.044 334.976H235.964V335.92H228.332V335.12Z" fill="#262A2C"/>
<path d="M16 356H352V404C352 408.418 348.418 412 344 412H24C19.5817 412 16 408.418 16 404V356Z" fill="white"/>
<g clip-path="url(#clip3_62_320)">
<path d="M46 388C45.4829 388.001 44.9863 388.202 44.6153 388.563L42.642 387.575C42.6553 387.495 42.6635 387.414 42.6667 387.333C42.6635 387.252 42.6553 387.171 42.642 387.091L44.6153 386.104C44.9476 386.422 45.3797 386.616 45.8383 386.652C46.297 386.689 46.7542 386.565 47.1324 386.303C47.5107 386.041 47.7868 385.657 47.9141 385.215C48.0414 384.773 48.012 384.3 47.8309 383.877C47.6498 383.454 47.3282 383.107 46.9204 382.894C46.5126 382.68 46.0437 382.615 45.593 382.708C45.1424 382.801 44.7377 383.046 44.4474 383.403C44.1571 383.76 43.9991 384.207 44 384.667C44.0031 384.748 44.0114 384.829 44.0247 384.909L42.0513 385.896C41.7691 385.623 41.4126 385.439 41.0265 385.367C40.6404 385.295 40.2417 385.339 39.8801 385.492C39.5184 385.645 39.21 385.902 38.9931 386.229C38.7763 386.557 38.6606 386.941 38.6606 387.333C38.6606 387.726 38.7763 388.11 38.9931 388.438C39.21 388.765 39.5184 389.021 39.8801 389.175C40.2417 389.328 40.6404 389.371 41.0265 389.3C41.4126 389.228 41.7691 389.044 42.0513 388.771L44.0247 389.758C44.0114 389.838 44.0031 389.919 44 390C44 390.396 44.1173 390.782 44.3371 391.111C44.5568 391.44 44.8692 391.696 45.2346 391.848C45.6001 391.999 46.0022 392.039 46.3902 391.962C46.7781 391.884 47.1345 391.694 47.4142 391.414C47.6939 391.135 47.8844 390.778 47.9616 390.39C48.0387 390.002 47.9991 389.6 47.8478 389.235C47.6964 388.869 47.44 388.557 47.1111 388.337C46.7822 388.117 46.3956 388 46 388ZM46 384C46.1319 384 46.2607 384.039 46.3704 384.112C46.48 384.186 46.5655 384.29 46.6159 384.412C46.6664 384.533 46.6796 384.667 46.6539 384.797C46.6281 384.926 46.5646 385.045 46.4714 385.138C46.3782 385.231 46.2594 385.295 46.1301 385.321C46.0007 385.346 45.8667 385.333 45.7449 385.283C45.6231 385.232 45.5189 385.147 45.4457 385.037C45.3724 384.927 45.3333 384.799 45.3333 384.667C45.3333 384.49 45.4036 384.32 45.5286 384.195C45.6536 384.07 45.8232 384 46 384ZM40.6667 388C40.5348 388 40.4059 387.961 40.2963 387.888C40.1867 387.814 40.1012 387.71 40.0507 387.588C40.0003 387.467 39.9871 387.333 40.0128 387.203C40.0385 387.074 40.102 386.955 40.1953 386.862C40.2885 386.769 40.4073 386.705 40.5366 386.679C40.6659 386.654 40.8 386.667 40.9218 386.717C41.0436 386.768 41.1477 386.853 41.221 386.963C41.2942 387.073 41.3333 387.201 41.3333 387.333C41.3333 387.51 41.2631 387.68 41.1381 387.805C41.013 387.93 40.8435 388 40.6667 388ZM46 390.667C45.8681 390.667 45.7393 390.628 45.6296 390.554C45.52 390.481 45.4345 390.377 45.3841 390.255C45.3336 390.133 45.3204 389.999 45.3461 389.87C45.3719 389.741 45.4354 389.622 45.5286 389.529C45.6218 389.435 45.7406 389.372 45.8699 389.346C45.9993 389.32 46.1333 389.334 46.2551 389.384C46.3769 389.435 46.4811 389.52 46.5543 389.63C46.6276 389.739 46.6667 389.868 46.6667 390C46.6667 390.177 46.5964 390.346 46.4714 390.471C46.3464 390.596 46.1768 390.667 46 390.667ZM40 390.667C40 390.843 39.9298 391.013 39.8047 391.138C39.6797 391.263 39.5101 391.333 39.3333 391.333H35.786C34.8975 391.317 34.0413 390.997 33.3595 390.428C32.6778 389.858 32.2114 389.072 32.038 388.2C31.9245 387.45 32.049 386.683 32.394 386.007C32.739 385.331 33.2871 384.781 33.9613 384.433C33.3826 383.38 33.1937 382.157 33.428 380.979C33.6558 379.814 34.2659 378.758 35.1615 377.979C36.0572 377.2 37.1873 376.742 38.3727 376.677C39.5582 376.613 40.7313 376.946 41.7061 377.623C42.681 378.301 43.4019 379.284 43.7547 380.418C43.7883 380.533 43.8498 380.638 43.9338 380.723C44.0178 380.809 44.1216 380.872 44.236 380.908C44.3216 380.932 44.4015 380.973 44.471 381.028C44.5405 381.084 44.5982 381.153 44.6408 381.231C44.6833 381.309 44.7098 381.395 44.7187 381.483C44.7276 381.571 44.7187 381.661 44.6926 381.746C44.6664 381.831 44.6236 381.91 44.5665 381.978C44.5094 382.046 44.4392 382.102 44.3602 382.143C44.2811 382.183 44.1947 382.208 44.1061 382.214C44.0174 382.221 43.9283 382.21 43.844 382.182C43.5226 382.082 43.2304 381.905 42.993 381.667C42.7555 381.428 42.5798 381.135 42.4813 380.813C42.3209 380.279 42.0507 379.785 41.6879 379.362C41.3252 378.938 40.878 378.596 40.375 378.355C39.872 378.115 39.3244 377.982 38.7671 377.966C38.2099 377.95 37.6555 378.05 37.1394 378.261C36.6232 378.472 36.1568 378.788 35.77 379.189C35.3833 379.591 35.0847 380.069 34.8934 380.592C34.7021 381.116 34.6224 381.674 34.6594 382.23C34.6963 382.786 34.8491 383.328 35.108 383.822C35.273 384.13 35.31 384.491 35.2112 384.826C35.1124 385.161 34.8857 385.443 34.58 385.613C34.1509 385.835 33.8021 386.186 33.5827 386.616C33.3633 387.047 33.2842 387.535 33.3567 388.013C33.4801 388.568 33.7867 389.066 34.2273 389.427C34.6679 389.787 35.2169 389.989 35.786 390H39.3333C39.5101 390 39.6797 390.07 39.8047 390.195C39.9298 390.32 40 390.49 40 390.667Z" fill="black"/>
</g>
<path d="M61.6274 390.112C60.8914 390.112 60.23 389.984 59.6434 389.728C59.0674 389.461 58.614 389.099 58.2834 388.64C57.9527 388.171 57.782 387.632 57.7714 387.024H59.3234C59.3767 387.547 59.59 387.989 59.9634 388.352C60.3474 388.704 60.902 388.88 61.6274 388.88C62.3207 388.88 62.8647 388.709 63.2594 388.368C63.6647 388.016 63.8674 387.568 63.8674 387.024C63.8674 386.597 63.75 386.251 63.5154 385.984C63.2807 385.717 62.9874 385.515 62.6354 385.376C62.2834 385.237 61.8087 385.088 61.2114 384.928C60.4754 384.736 59.8834 384.544 59.4354 384.352C58.998 384.16 58.6194 383.861 58.2994 383.456C57.99 383.04 57.8354 382.485 57.8354 381.792C57.8354 381.184 57.99 380.645 58.2994 380.176C58.6087 379.707 59.0407 379.344 59.5954 379.088C60.1607 378.832 60.806 378.704 61.5314 378.704C62.5767 378.704 63.43 378.965 64.0914 379.488C64.7634 380.011 65.142 380.704 65.2274 381.568H63.6274C63.574 381.141 63.35 380.768 62.9554 380.448C62.5607 380.117 62.038 379.952 61.3874 379.952C60.7794 379.952 60.2834 380.112 59.8994 380.432C59.5154 380.741 59.3234 381.179 59.3234 381.744C59.3234 382.149 59.4354 382.48 59.6594 382.736C59.894 382.992 60.1767 383.189 60.5074 383.328C60.8487 383.456 61.3234 383.605 61.9314 383.776C62.6674 383.979 63.2594 384.181 63.7074 384.384C64.1554 384.576 64.5394 384.88 64.8594 385.296C65.1794 385.701 65.3394 386.256 65.3394 386.96C65.3394 387.504 65.1954 388.016 64.9074 388.496C64.6194 388.976 64.1927 389.365 63.6274 389.664C63.062 389.963 62.3954 390.112 61.6274 390.112Z" fill="#262A2C"/>
<path d="M70.834 381.072C71.4953 381.072 72.0927 381.216 72.626 381.504C73.1593 381.781 73.5753 382.203 73.874 382.768C74.1833 383.333 74.338 384.021 74.338 384.832V390H72.898V385.04C72.898 384.165 72.6793 383.499 72.242 383.04C71.8047 382.571 71.2073 382.336 70.45 382.336C69.682 382.336 69.0687 382.576 68.61 383.056C68.162 383.536 67.938 384.235 67.938 385.152V390H66.482V378.16H67.938V382.48C68.226 382.032 68.6207 381.685 69.122 381.44C69.634 381.195 70.2047 381.072 70.834 381.072Z" fill="#262A2C"/>
<path d="M75.1724 385.584C75.1724 384.688 75.3537 383.904 75.7164 383.232C76.079 382.549 76.575 382.021 77.2044 381.648C77.8444 381.275 78.5537 381.088 79.3324 381.088C80.1004 381.088 80.767 381.253 81.3324 381.584C81.8977 381.915 82.319 382.331 82.5964 382.832V381.232H84.0684V390H82.5964V388.368C82.3084 388.88 81.8764 389.307 81.3004 389.648C80.735 389.979 80.0737 390.144 79.3164 390.144C78.5377 390.144 77.8337 389.952 77.2044 389.568C76.575 389.184 76.079 388.645 75.7164 387.952C75.3537 387.259 75.1724 386.469 75.1724 385.584ZM82.5964 385.6C82.5964 384.939 82.463 384.363 82.1964 383.872C81.9297 383.381 81.567 383.008 81.1084 382.752C80.6604 382.485 80.1644 382.352 79.6204 382.352C79.0764 382.352 78.5804 382.48 78.1324 382.736C77.6844 382.992 77.327 383.365 77.0604 383.856C76.7937 384.347 76.6604 384.923 76.6604 385.584C76.6604 386.256 76.7937 386.843 77.0604 387.344C77.327 387.835 77.6844 388.213 78.1324 388.48C78.5804 388.736 79.0764 388.864 79.6204 388.864C80.1644 388.864 80.6604 388.736 81.1084 388.48C81.567 388.213 81.9297 387.835 82.1964 387.344C82.463 386.843 82.5964 386.261 82.5964 385.6Z" fill="#262A2C"/>
<path d="M86.9849 382.656C87.2409 382.155 87.6035 381.765 88.0729 381.488C88.5529 381.211 89.1342 381.072 89.8169 381.072V382.576H89.4329C87.8009 382.576 86.9849 383.461 86.9849 385.232V390H85.5289V381.232H86.9849V382.656Z" fill="#262A2C"/>
<path d="M98.4976 385.28C98.4976 385.557 98.4816 385.851 98.4496 386.16H91.4416C91.495 387.024 91.7883 387.701 92.3216 388.192C92.8656 388.672 93.5216 388.912 94.2896 388.912C94.919 388.912 95.4416 388.768 95.8576 388.48C96.2843 388.181 96.583 387.787 96.7536 387.296H98.3216C98.087 388.139 97.6176 388.827 96.9136 389.36C96.2096 389.883 95.335 390.144 94.2896 390.144C93.4576 390.144 92.711 389.957 92.0496 389.584C91.399 389.211 90.887 388.683 90.5136 388C90.1403 387.307 89.9536 386.507 89.9536 385.6C89.9536 384.693 90.135 383.899 90.4976 383.216C90.8603 382.533 91.367 382.011 92.0176 381.648C92.679 381.275 93.4363 381.088 94.2896 381.088C95.1216 381.088 95.8576 381.269 96.4976 381.632C97.1376 381.995 97.6283 382.496 97.9696 383.136C98.3216 383.765 98.4976 384.48 98.4976 385.28ZM96.9936 384.976C96.9936 384.421 96.871 383.947 96.6256 383.552C96.3803 383.147 96.0443 382.843 95.6176 382.64C95.2016 382.427 94.7376 382.32 94.2256 382.32C93.4896 382.32 92.8603 382.555 92.3376 383.024C91.8256 383.493 91.5323 384.144 91.4576 384.976H96.9936Z" fill="#262A2C"/>
<path d="M98.8755 385.584C98.8755 384.688 99.0568 383.904 99.4195 383.232C99.7822 382.549 100.278 382.021 100.908 381.648C101.548 381.275 102.262 381.088 103.052 381.088C103.734 381.088 104.369 381.248 104.956 381.568C105.542 381.877 105.99 382.288 106.3 382.8V378.16H107.772V390H106.3V388.352C106.012 388.875 105.585 389.307 105.02 389.648C104.454 389.979 103.793 390.144 103.036 390.144C102.257 390.144 101.548 389.952 100.908 389.568C100.278 389.184 99.7822 388.645 99.4195 387.952C99.0568 387.259 98.8755 386.469 98.8755 385.584ZM106.3 385.6C106.3 384.939 106.166 384.363 105.9 383.872C105.633 383.381 105.27 383.008 104.812 382.752C104.364 382.485 103.868 382.352 103.324 382.352C102.78 382.352 102.284 382.48 101.836 382.736C101.388 382.992 101.03 383.365 100.764 383.856C100.497 384.347 100.364 384.923 100.364 385.584C100.364 386.256 100.497 386.843 100.764 387.344C101.03 387.835 101.388 388.213 101.836 388.48C102.284 388.736 102.78 388.864 103.324 388.864C103.868 388.864 104.364 388.736 104.812 388.48C105.27 388.213 105.633 387.835 105.9 387.344C106.166 386.843 106.3 386.261 106.3 385.6Z" fill="#262A2C"/>
<path d="M16 20C16 15.5817 19.5817 12 24 12H344C348.418 12 352 15.5817 352 20V68H16V20Z" fill="white"/>
<path d="M35.008 38.432V43.6C35.008 44.0267 35.0987 44.3307 35.28 44.512C35.4613 44.6827 35.776 44.768 36.224 44.768H37.296V46H35.984C35.1733 46 34.5653 45.8134 34.16 45.44C33.7547 45.0667 33.552 44.4534 33.552 43.6V38.432H32.416V37.232H33.552V35.024H35.008V37.232H37.296V38.432H35.008Z" fill="#262A2C"/>
<path d="M41.8841 46.144C41.0628 46.144 40.3161 45.9574 39.6441 45.584C38.9828 45.2107 38.4601 44.6827 38.0761 44C37.7028 43.3067 37.5161 42.5067 37.5161 41.6C37.5161 40.704 37.7081 39.9147 38.0921 39.232C38.4868 38.5387 39.0201 38.0107 39.6921 37.648C40.3641 37.2747 41.1161 37.088 41.9481 37.088C42.7801 37.088 43.5321 37.2747 44.2041 37.648C44.8761 38.0107 45.4041 38.5334 45.7881 39.216C46.1828 39.8987 46.3801 40.6934 46.3801 41.6C46.3801 42.5067 46.1775 43.3067 45.7721 44C45.3775 44.6827 44.8388 45.2107 44.1561 45.584C43.4735 45.9574 42.7161 46.144 41.8841 46.144ZM41.8841 44.864C42.4068 44.864 42.8975 44.7414 43.3561 44.496C43.8148 44.2507 44.1828 43.8827 44.4601 43.392C44.7481 42.9014 44.8921 42.304 44.8921 41.6C44.8921 40.896 44.7535 40.2987 44.4761 39.808C44.1988 39.3174 43.8361 38.9547 43.3881 38.72C42.9401 38.4747 42.4548 38.352 41.9321 38.352C41.3988 38.352 40.9081 38.4747 40.4601 38.72C40.0228 38.9547 39.6708 39.3174 39.4041 39.808C39.1375 40.2987 39.0041 40.896 39.0041 41.6C39.0041 42.3147 39.1321 42.9174 39.3881 43.408C39.6548 43.8987 40.0068 44.2667 40.4441 44.512C40.8815 44.7467 41.3615 44.864 41.8841 44.864Z" fill="#262A2C"/>
<path d="M46.7505 41.6C46.7505 40.6934 46.9318 39.904 47.2945 39.232C47.6572 38.5494 48.1585 38.0214 48.7985 37.648C49.4492 37.2747 50.1905 37.088 51.0225 37.088C52.0998 37.088 52.9852 37.3494 53.6785 37.872C54.3825 38.3947 54.8465 39.12 55.0705 40.048H53.5025C53.3532 39.5147 53.0598 39.0934 52.6225 38.784C52.1958 38.4747 51.6625 38.32 51.0225 38.32C50.1905 38.32 49.5185 38.608 49.0065 39.184C48.4945 39.7494 48.2385 40.5547 48.2385 41.6C48.2385 42.656 48.4945 43.472 49.0065 44.048C49.5185 44.624 50.1905 44.912 51.0225 44.912C51.6625 44.912 52.1958 44.7627 52.6225 44.464C53.0492 44.1654 53.3425 43.7387 53.5025 43.184H55.0705C54.8358 44.08 54.3665 44.8 53.6625 45.344C52.9585 45.8774 52.0785 46.144 51.0225 46.144C50.1905 46.144 49.4492 45.9574 48.7985 45.584C48.1585 45.2107 47.6572 44.6827 47.2945 44C46.9318 43.3174 46.7505 42.5174 46.7505 41.6Z" fill="#262A2C"/>
<path d="M59.8372 46.144C59.0159 46.144 58.2692 45.9574 57.5972 45.584C56.9359 45.2107 56.4132 44.6827 56.0292 44C55.6559 43.3067 55.4692 42.5067 55.4692 41.6C55.4692 40.704 55.6612 39.9147 56.0452 39.232C56.4399 38.5387 56.9733 38.0107 57.6453 37.648C58.3173 37.2747 59.0693 37.088 59.9013 37.088C60.7333 37.088 61.4852 37.2747 62.1572 37.648C62.8292 38.0107 63.3572 38.5334 63.7412 39.216C64.1359 39.8987 64.3333 40.6934 64.3333 41.6C64.3333 42.5067 64.1306 43.3067 63.7253 44C63.3306 44.6827 62.7919 45.2107 62.1093 45.584C61.4266 45.9574 60.6692 46.144 59.8372 46.144ZM59.8372 44.864C60.3599 44.864 60.8506 44.7414 61.3092 44.496C61.7679 44.2507 62.1359 43.8827 62.4132 43.392C62.7012 42.9014 62.8452 42.304 62.8452 41.6C62.8452 40.896 62.7066 40.2987 62.4293 39.808C62.1519 39.3174 61.7893 38.9547 61.3413 38.72C60.8933 38.4747 60.4079 38.352 59.8853 38.352C59.3519 38.352 58.8613 38.4747 58.4132 38.72C57.9759 38.9547 57.6239 39.3174 57.3573 39.808C57.0906 40.2987 56.9573 40.896 56.9573 41.6C56.9573 42.3147 57.0852 42.9174 57.3412 43.408C57.6079 43.8987 57.9599 44.2667 58.3973 44.512C58.8346 44.7467 59.3146 44.864 59.8372 44.864Z" fill="#262A2C"/>
<path d="M67.0236 38.432V43.6C67.0236 44.0267 67.1143 44.3307 67.2956 44.512C67.477 44.6827 67.7916 44.768 68.2396 44.768H69.3116V46H67.9996C67.189 46 66.581 45.8134 66.1756 45.44C65.7703 45.0667 65.5676 44.4534 65.5676 43.6V38.432H64.4316V37.232H65.5676V35.024H67.0236V37.232H69.3116V38.432H67.0236Z" fill="#262A2C"/>
<path d="M73.8997 46.144C73.0784 46.144 72.3318 45.9574 71.6598 45.584C70.9984 45.2107 70.4758 44.6827 70.0918 44C69.7184 43.3067 69.5317 42.5067 69.5317 41.6C69.5317 40.704 69.7237 39.9147 70.1077 39.232C70.5024 38.5387 71.0357 38.0107 71.7077 37.648C72.3797 37.2747 73.1317 37.088 73.9637 37.088C74.7957 37.088 75.5477 37.2747 76.2197 37.648C76.8917 38.0107 77.4197 38.5334 77.8037 39.216C78.1984 39.8987 78.3958 40.6934 78.3958 41.6C78.3958 42.5067 78.1931 43.3067 77.7878 44C77.3931 44.6827 76.8544 45.2107 76.1717 45.584C75.4891 45.9574 74.7317 46.144 73.8997 46.144ZM73.8997 44.864C74.4224 44.864 74.9131 44.7414 75.3717 44.496C75.8304 44.2507 76.1984 43.8827 76.4757 43.392C76.7637 42.9014 76.9077 42.304 76.9077 41.6C76.9077 40.896 76.7691 40.2987 76.4917 39.808C76.2144 39.3174 75.8518 38.9547 75.4038 38.72C74.9558 38.4747 74.4704 38.352 73.9478 38.352C73.4144 38.352 72.9238 38.4747 72.4757 38.72C72.0384 38.9547 71.6864 39.3174 71.4198 39.808C71.1531 40.2987 71.0197 40.896 71.0197 41.6C71.0197 42.3147 71.1478 42.9174 71.4038 43.408C71.6704 43.8987 72.0224 44.2667 72.4598 44.512C72.8971 44.7467 73.3771 44.864 73.8997 44.864Z" fill="#262A2C"/>
<path d="M87.0861 37.232V46H85.6301V44.704C85.3528 45.152 84.9635 45.504 84.4621 45.76C83.9715 46.0054 83.4275 46.128 82.8301 46.128C82.1475 46.128 81.5341 45.9894 80.9901 45.712C80.4461 45.424 80.0141 44.9974 79.6941 44.432C79.3848 43.8667 79.2301 43.1787 79.2301 42.368V37.232H80.6701V42.176C80.6701 43.04 80.8888 43.7067 81.3261 44.176C81.7635 44.6347 82.3608 44.864 83.1181 44.864C83.8968 44.864 84.5101 44.624 84.9581 44.144C85.4061 43.664 85.6301 42.9654 85.6301 42.048V37.232H87.0861Z" fill="#262A2C"/>
<path d="M88.0005 41.6C88.0005 40.6934 88.1818 39.904 88.5445 39.232C88.9072 38.5494 89.4085 38.0214 90.0485 37.648C90.6992 37.2747 91.4405 37.088 92.2725 37.088C93.3498 37.088 94.2352 37.3494 94.9285 37.872C95.6325 38.3947 96.0965 39.12 96.3205 40.048H94.7525C94.6032 39.5147 94.3098 39.0934 93.8725 38.784C93.4458 38.4747 92.9125 38.32 92.2725 38.32C91.4405 38.32 90.7685 38.608 90.2565 39.184C89.7445 39.7494 89.4885 40.5547 89.4885 41.6C89.4885 42.656 89.7445 43.472 90.2565 44.048C90.7685 44.624 91.4405 44.912 92.2725 44.912C92.9125 44.912 93.4458 44.7627 93.8725 44.464C94.2992 44.1654 94.5925 43.7387 94.7525 43.184H96.3205C96.0858 44.08 95.6165 44.8 94.9125 45.344C94.2085 45.8774 93.3285 46.144 92.2725 46.144C91.4405 46.144 90.6992 45.9574 90.0485 45.584C89.4085 45.2107 88.9072 44.6827 88.5445 44C88.1818 43.3174 88.0005 42.5174 88.0005 41.6Z" fill="#262A2C"/>
<path d="M96.7193 41.584C96.7193 40.688 96.9006 39.904 97.2633 39.232C97.6259 38.5494 98.1219 38.0214 98.7513 37.648C99.3913 37.2747 100.101 37.088 100.879 37.088C101.647 37.088 102.314 37.2534 102.879 37.584C103.445 37.9147 103.866 38.3307 104.143 38.832V37.232H105.615V46H104.143V44.368C103.855 44.88 103.423 45.3067 102.847 45.648C102.282 45.9787 101.621 46.144 100.863 46.144C100.085 46.144 99.3806 45.952 98.7513 45.568C98.1219 45.184 97.6259 44.6454 97.2633 43.952C96.9006 43.2587 96.7193 42.4694 96.7193 41.584ZM104.143 41.6C104.143 40.9387 104.01 40.3627 103.743 39.872C103.477 39.3814 103.114 39.008 102.655 38.752C102.207 38.4854 101.711 38.352 101.167 38.352C100.623 38.352 100.127 38.48 99.6793 38.736C99.2313 38.992 98.8739 39.3654 98.6073 39.856C98.3406 40.3467 98.2073 40.9227 98.2073 41.584C98.2073 42.256 98.3406 42.8427 98.6073 43.344C98.8739 43.8347 99.2313 44.2134 99.6793 44.48C100.127 44.736 100.623 44.864 101.167 44.864C101.711 44.864 102.207 44.736 102.655 44.48C103.114 44.2134 103.477 43.8347 103.743 43.344C104.01 42.8427 104.143 42.2614 104.143 41.6Z" fill="#262A2C"/>
<path d="M111.348 37.072C112.414 37.072 113.278 37.3974 113.94 38.048C114.601 38.688 114.932 39.616 114.932 40.832V46H113.492V41.04C113.492 40.1654 113.273 39.4987 112.836 39.04C112.398 38.5707 111.801 38.336 111.044 38.336C110.276 38.336 109.662 38.576 109.204 39.056C108.756 39.536 108.532 40.2347 108.532 41.152V46H107.076V37.232H108.532V38.48C108.82 38.032 109.209 37.6854 109.7 37.44C110.201 37.1947 110.75 37.072 111.348 37.072Z" fill="#262A2C"/>
<path d="M116.774 46.096C116.497 46.096 116.262 46 116.07 45.808C115.878 45.616 115.782 45.3814 115.782 45.104C115.782 44.8267 115.878 44.592 116.07 44.4C116.262 44.208 116.497 44.112 116.774 44.112C117.041 44.112 117.265 44.208 117.446 44.4C117.638 44.592 117.734 44.8267 117.734 45.104C117.734 45.3814 117.638 45.616 117.446 45.808C117.265 46 117.041 46.096 116.774 46.096Z" fill="#262A2C"/>
<path d="M120.126 38.848C120.414 38.3467 120.84 37.9307 121.406 37.6C121.982 37.2587 122.648 37.088 123.406 37.088C124.184 37.088 124.888 37.2747 125.518 37.648C126.158 38.0214 126.659 38.5494 127.021 39.232C127.384 39.904 127.565 40.688 127.565 41.584C127.565 42.4694 127.384 43.2587 127.021 43.952C126.659 44.6454 126.158 45.184 125.518 45.568C124.888 45.952 124.184 46.144 123.406 46.144C122.659 46.144 121.998 45.9787 121.422 45.648C120.856 45.3067 120.424 44.8854 120.126 44.384V50.16H118.67V37.232H120.126V38.848ZM126.077 41.584C126.077 40.9227 125.944 40.3467 125.677 39.856C125.411 39.3654 125.048 38.992 124.59 38.736C124.142 38.48 123.646 38.352 123.102 38.352C122.568 38.352 122.072 38.4854 121.614 38.752C121.166 39.008 120.803 39.3867 120.525 39.888C120.259 40.3787 120.126 40.9494 120.126 41.6C120.126 42.2614 120.259 42.8427 120.525 43.344C120.803 43.8347 121.166 44.2134 121.614 44.48C122.072 44.736 122.568 44.864 123.102 44.864C123.646 44.864 124.142 44.736 124.59 44.48C125.048 44.2134 125.411 43.8347 125.677 43.344C125.944 42.8427 126.077 42.256 126.077 41.584Z" fill="#262A2C"/>
<path d="M132.754 37.072C133.821 37.072 134.685 37.3974 135.346 38.048C136.007 38.688 136.338 39.616 136.338 40.832V46H134.898V41.04C134.898 40.1654 134.679 39.4987 134.242 39.04C133.805 38.5707 133.207 38.336 132.45 38.336C131.682 38.336 131.069 38.576 130.61 39.056C130.162 39.536 129.938 40.2347 129.938 41.152V46H128.482V37.232H129.938V38.48C130.226 38.032 130.615 37.6854 131.106 37.44C131.607 37.1947 132.157 37.072 132.754 37.072Z" fill="#262A2C"/>
<path d="M141.332 37.088C142.09 37.088 142.751 37.2534 143.316 37.584C143.892 37.9147 144.319 38.3307 144.596 38.832V37.232H146.068V46.192C146.068 46.992 145.898 47.7014 145.556 48.32C145.215 48.9494 144.724 49.44 144.084 49.792C143.455 50.144 142.719 50.32 141.876 50.32C140.724 50.32 139.764 50.048 138.996 49.504C138.228 48.96 137.775 48.2187 137.636 47.28H139.076C139.236 47.8134 139.567 48.24 140.068 48.56C140.57 48.8907 141.172 49.056 141.876 49.056C142.676 49.056 143.327 48.8054 143.828 48.304C144.34 47.8027 144.596 47.0987 144.596 46.192V44.352C144.308 44.864 143.882 45.2907 143.316 45.632C142.751 45.9734 142.09 46.144 141.332 46.144C140.554 46.144 139.844 45.952 139.204 45.568C138.575 45.184 138.079 44.6454 137.716 43.952C137.354 43.2587 137.172 42.4694 137.172 41.584C137.172 40.688 137.354 39.904 137.716 39.232C138.079 38.5494 138.575 38.0214 139.204 37.648C139.844 37.2747 140.554 37.088 141.332 37.088ZM144.596 41.6C144.596 40.9387 144.463 40.3627 144.196 39.872C143.93 39.3814 143.567 39.008 143.108 38.752C142.66 38.4854 142.164 38.352 141.62 38.352C141.076 38.352 140.58 38.48 140.132 38.736C139.684 38.992 139.327 39.3654 139.06 39.856C138.794 40.3467 138.66 40.9227 138.66 41.584C138.66 42.256 138.794 42.8427 139.06 43.344C139.327 43.8347 139.684 44.2134 140.132 44.48C140.58 44.736 141.076 44.864 141.62 44.864C142.164 44.864 142.66 44.736 143.108 44.48C143.567 44.2134 143.93 43.8347 144.196 43.344C144.463 42.8427 144.596 42.2614 144.596 41.6Z" fill="#262A2C"/>
<path d="M319.414 36.1953C319.289 36.3203 319.219 36.4899 319.219 36.6666C319.219 36.8434 319.289 37.013 319.414 37.138L321.609 39.3333L314.667 39.338C314.49 39.338 314.32 39.4082 314.195 39.5332C314.07 39.6583 314 39.8278 314 40.0046C314 40.1815 314.07 40.351 314.195 40.4761C314.32 40.6011 314.49 40.6713 314.667 40.6713L321.609 40.6666L319.414 42.862C319.35 42.9235 319.3 42.997 319.265 43.0784C319.23 43.1597 319.211 43.2472 319.21 43.3357C319.21 43.4242 319.227 43.512 319.26 43.5939C319.294 43.6759 319.343 43.7503 319.406 43.8129C319.468 43.8755 319.543 43.925 319.625 43.9585C319.707 43.992 319.794 44.0089 319.883 44.0081C319.971 44.0074 320.059 43.989 320.14 43.954C320.222 43.9191 320.295 43.8683 320.357 43.8046L322.747 41.4146C322.933 41.2289 323.08 41.0084 323.181 40.7658C323.281 40.5231 323.333 40.263 323.333 40.0003C323.333 39.7376 323.281 39.4775 323.181 39.2349C323.08 38.9922 322.933 38.7717 322.747 38.586L320.357 36.1953C320.232 36.0703 320.062 36.0001 319.885 36.0001C319.709 36.0001 319.539 36.0703 319.414 36.1953V36.1953Z" fill="black"/>
<path d="M324.667 34.6667L324.667 45.3333C324.667 45.7015 324.965 46 325.333 46C325.702 46 326 45.7015 326 45.3333L326 34.6667C326 34.2985 325.702 34 325.333 34C324.965 34 324.667 34.2985 324.667 34.6667Z" fill="black"/>
<line x1="16" y1="67.5" x2="352" y2="67.5" stroke="#E9EAEA"/>
<rect width="336" height="56" transform="translate(16 68)" fill="white"/>
<g clip-path="url(#clip4_62_320)">
<path d="M40 88C38.4177 88 36.871 88.4692 35.5554 89.3482C34.2398 90.2273 33.2145 91.4767 32.609 92.9385C32.0035 94.4003 31.845 96.0089 32.1537 97.5607C32.4624 99.1126 33.2243 100.538 34.3431 101.657C35.462 102.776 36.8874 103.538 38.4393 103.846C39.9911 104.155 41.5997 103.997 43.0615 103.391C44.5233 102.786 45.7727 101.76 46.6518 100.445C47.5308 99.129 48 97.5823 48 96C47.9977 93.879 47.1541 91.8455 45.6543 90.3457C44.1545 88.8459 42.121 88.0023 40 88V88ZM40 102.667C38.6815 102.667 37.3925 102.276 36.2962 101.543C35.1999 100.811 34.3454 99.7694 33.8408 98.5512C33.3362 97.333 33.2042 95.9926 33.4614 94.6994C33.7187 93.4062 34.3536 92.2183 35.286 91.286C36.2183 90.3536 37.4062 89.7187 38.6994 89.4614C39.9926 89.2042 41.333 89.3362 42.5512 89.8408C43.7694 90.3454 44.8106 91.1999 45.5431 92.2962C46.2757 93.3925 46.6667 94.6815 46.6667 96C46.6647 97.7675 45.9617 99.4621 44.7119 100.712C43.4621 101.962 41.7675 102.665 40 102.667V102.667Z" fill="black"/>
<path d="M40 94.6667H39.3333C39.1565 94.6667 38.987 94.7369 38.8619 94.8619C38.7369 94.987 38.6667 95.1565 38.6667 95.3334C38.6667 95.5102 38.7369 95.6797 38.8619 95.8048C38.987 95.9298 39.1565 96 39.3333 96H40V100C40 100.177 40.0702 100.346 40.1953 100.471C40.3203 100.596 40.4899 100.667 40.6667 100.667C40.8435 100.667 41.013 100.596 41.1381 100.471C41.2631 100.346 41.3333 100.177 41.3333 100V96C41.3333 95.6464 41.1929 95.3073 40.9428 95.0572C40.6928 94.8072 40.3536 94.6667 40 94.6667Z" fill="black"/>
<path d="M40 93.3333C40.5523 93.3333 41 92.8856 41 92.3333C41 91.781 40.5523 91.3333 40 91.3333C39.4477 91.3333 39 91.781 39 92.3333C39 92.8856 39.4477 93.3333 40 93.3333Z" fill="black"/>
</g>
<path d="M61.5946 90.848C62.8106 90.848 63.8613 91.0773 64.7466 91.536C65.6426 91.984 66.3253 92.6293 66.7946 93.472C67.2746 94.3146 67.5146 95.3066 67.5146 96.448C67.5146 97.5893 67.2746 98.5813 66.7946 99.424C66.3253 100.256 65.6426 100.896 64.7466 101.344C63.8613 101.781 62.8106 102 61.5946 102H58.1226V90.848H61.5946ZM61.5946 100.8C63.0346 100.8 64.1333 100.421 64.8906 99.664C65.648 98.896 66.0266 97.824 66.0266 96.448C66.0266 95.0613 65.6426 93.9786 64.8746 93.2C64.1173 92.4213 63.024 92.032 61.5946 92.032H59.5786V100.8H61.5946Z" fill="#262A2C"/>
<path d="M76.4351 97.28C76.4351 97.5573 76.4191 97.8506 76.3871 98.16H69.3791C69.4325 99.024 69.7258 99.7013 70.2591 100.192C70.8031 100.672 71.4591 100.912 72.2271 100.912C72.8565 100.912 73.3791 100.768 73.7951 100.48C74.2218 100.181 74.5205 99.7866 74.6911 99.296H76.2591C76.0245 100.139 75.5551 100.827 74.8511 101.36C74.1471 101.883 73.2725 102.144 72.2271 102.144C71.3951 102.144 70.6485 101.957 69.9871 101.584C69.3365 101.211 68.8245 100.683 68.4511 100C68.0778 99.3066 67.8911 98.5066 67.8911 97.6C67.8911 96.6933 68.0725 95.8986 68.4351 95.216C68.7978 94.5333 69.3045 94.0106 69.9551 93.648C70.6165 93.2746 71.3738 93.088 72.2271 93.088C73.0591 93.088 73.7951 93.2693 74.4351 93.632C75.0751 93.9946 75.5658 94.496 75.9071 95.136C76.2591 95.7653 76.4351 96.48 76.4351 97.28ZM74.9311 96.976C74.9311 96.4213 74.8085 95.9466 74.5631 95.552C74.3178 95.1466 73.9818 94.8426 73.5551 94.64C73.1391 94.4266 72.6751 94.32 72.1631 94.32C71.4271 94.32 70.7978 94.5546 70.2751 95.024C69.7631 95.4933 69.4698 96.144 69.3951 96.976H74.9311Z" fill="#262A2C"/>
<path d="M79.133 94.432V99.6C79.133 100.027 79.2237 100.331 79.405 100.512C79.5863 100.683 79.901 100.768 80.349 100.768H81.421V102H80.109C79.2983 102 78.6903 101.813 78.285 101.44C77.8797 101.067 77.677 100.453 77.677 99.6V94.432H76.541V93.232H77.677V91.024H79.133V93.232H81.421V94.432H79.133Z" fill="#262A2C"/>
<path d="M81.6411 97.584C81.6411 96.688 81.8225 95.904 82.1851 95.232C82.5478 94.5493 83.0438 94.0213 83.6731 93.648C84.3131 93.2746 85.0225 93.088 85.8011 93.088C86.5691 93.088 87.2358 93.2533 87.8011 93.584C88.3665 93.9146 88.7878 94.3306 89.0651 94.832V93.232H90.5371V102H89.0651V100.368C88.7771 100.88 88.3451 101.307 87.7691 101.648C87.2038 101.979 86.5425 102.144 85.7851 102.144C85.0065 102.144 84.3025 101.952 83.6731 101.568C83.0438 101.184 82.5478 100.645 82.1851 99.952C81.8225 99.2586 81.6411 98.4693 81.6411 97.584ZM89.0651 97.6C89.0651 96.9386 88.9318 96.3626 88.6651 95.872C88.3985 95.3813 88.0358 95.008 87.5771 94.752C87.1291 94.4853 86.6331 94.352 86.0891 94.352C85.5451 94.352 85.0491 94.48 84.6011 94.736C84.1531 94.992 83.7958 95.3653 83.5291 95.856C83.2625 96.3466 83.1291 96.9226 83.1291 97.584C83.1291 98.256 83.2625 98.8426 83.5291 99.344C83.7958 99.8346 84.1531 100.213 84.6011 100.48C85.0491 100.736 85.5451 100.864 86.0891 100.864C86.6331 100.864 87.1291 100.736 87.5771 100.48C88.0358 100.213 88.3985 99.8346 88.6651 99.344C88.9318 98.8426 89.0651 98.2613 89.0651 97.6Z" fill="#262A2C"/>
<path d="M92.7496 91.808C92.4723 91.808 92.2376 91.712 92.0456 91.52C91.8536 91.328 91.7576 91.0933 91.7576 90.816C91.7576 90.5386 91.8536 90.304 92.0456 90.112C92.2376 89.92 92.4723 89.824 92.7496 89.824C93.0163 89.824 93.2403 89.92 93.4216 90.112C93.6136 90.304 93.7096 90.5386 93.7096 90.816C93.7096 91.0933 93.6136 91.328 93.4216 91.52C93.2403 91.712 93.0163 91.808 92.7496 91.808ZM93.4536 93.232V102H91.9976V93.232H93.4536Z" fill="#262A2C"/>
<path d="M96.3911 90.16V102H94.9351V90.16H96.3911Z" fill="#262A2C"/>
<path d="M100.977 102.144C100.305 102.144 99.702 102.032 99.1686 101.808C98.6353 101.573 98.214 101.253 97.9046 100.848C97.5953 100.432 97.4246 99.9573 97.3926 99.424H98.8966C98.9393 99.8613 99.142 100.219 99.5046 100.496C99.878 100.773 100.363 100.912 100.961 100.912C101.515 100.912 101.953 100.789 102.273 100.544C102.593 100.299 102.753 99.9893 102.753 99.616C102.753 99.232 102.582 98.9493 102.241 98.768C101.899 98.576 101.371 98.3893 100.657 98.208C100.006 98.0373 99.4726 97.8666 99.0566 97.696C98.6513 97.5146 98.2993 97.2533 98.0006 96.912C97.7126 96.56 97.5686 96.1013 97.5686 95.536C97.5686 95.088 97.702 94.6773 97.9686 94.304C98.2353 93.9306 98.614 93.6373 99.1046 93.424C99.5953 93.2 100.155 93.088 100.785 93.088C101.755 93.088 102.539 93.3333 103.137 93.824C103.734 94.3146 104.054 94.9866 104.097 95.84H102.641C102.609 95.3813 102.422 95.0133 102.081 94.736C101.75 94.4586 101.302 94.32 100.737 94.32C100.214 94.32 99.798 94.432 99.4886 94.656C99.1793 94.88 99.0246 95.1733 99.0246 95.536C99.0246 95.824 99.1153 96.064 99.2966 96.256C99.4886 96.4373 99.7233 96.5866 100.001 96.704C100.289 96.8106 100.683 96.9333 101.185 97.072C101.814 97.2426 102.326 97.4133 102.721 97.584C103.115 97.744 103.451 97.9893 103.729 98.32C104.017 98.6506 104.166 99.0826 104.177 99.616C104.177 100.096 104.043 100.528 103.777 100.912C103.51 101.296 103.131 101.6 102.641 101.824C102.161 102.037 101.606 102.144 100.977 102.144Z" fill="#262A2C"/>
<line x1="16" y1="355.5" x2="352" y2="355.5" stroke="#E9EAEA"/>
</g>
<defs>
<filter id="filter0_d_62_320" x="0" y="0" width="368" height="432" filterUnits="userSpaceOnUse" color-interpolation-filters="sRGB">
<feFlood flood-opacity="0" result="BackgroundImageFix"/>
<feColorMatrix in="SourceAlpha" type="matrix" values="0 0 0 0 0 0 0 0 0 0 0 0 0 0 0 0 0 0 127 0" result="hardAlpha"/>
<feOffset dy="4"/>
<feGaussianBlur stdDeviation="8"/>
<feComposite in2="hardAlpha" operator="out"/>
<feColorMatrix type="matrix" values="0 0 0 0 0.441667 0 0 0 0 0.441667 0 0 0 0 1 0 0 0 0.16 0"/>
<feBlend mode="normal" in2="BackgroundImageFix" result="effect1_dropShadow_62_320"/>
<feBlend mode="normal" in="SourceGraphic" in2="effect1_dropShadow_62_320" result="shape"/>
</filter>
<clipPath id="clip0_62_320">
<rect width="112" height="20" fill="white" transform="translate(32 140)"/>
</clipPath>
<clipPath id="clip1_62_320">
<rect width="112" height="20" fill="white" transform="translate(160 140)"/>
</clipPath>
<clipPath id="clip2_62_320">
<rect width="112" height="20" fill="white" transform="translate(160 212)"/>
</clipPath>
<clipPath id="clip3_62_320">
<rect width="16" height="16" fill="white" transform="translate(32 376)"/>
</clipPath>
<clipPath id="clip4_62_320">
<rect width="16" height="16" fill="white" transform="translate(32 88)"/>
</clipPath>
</defs>
</svg>
