<svg width="108" height="128" viewBox="0 0 108 128" fill="none" xmlns="http://www.w3.org/2000/svg">
<path d="M28.77 76.1651L0.625 64.0501C6.775 61.2051 11.75 61.1051 16.565 60.6401C29.1 59.4351 29.24 59.4501 24.72 48.2351C19.615 35.5601 16.315 22.3851 13.29 9.11505C13.095 8.24505 12.745 7.42505 14.235 6.35505C26.735 18.6551 34.735 34.4251 45.53 49.6501C50.715 32.5251 51 15.1651 58.85 -0.194946C60.85 14.5301 63.01 29.2351 64.68 43.9901C65.295 49.4901 66.18 52.1151 72.61 49.5851C82.195 45.8151 92.505 44.6401 102.61 42.9251C104.33 42.6351 106.915 40.7851 107.855 43.5001C108.54 45.4701 106.325 47.0351 104.855 48.3451C97.455 54.9201 88.975 59.9501 80.215 64.3451C75.135 66.8901 74.255 69.2351 76.715 74.4151C81.675 84.8751 87.025 95.2001 90.64 106.26C91.17 107.895 92.685 109.89 90.915 111.155C89.355 112.275 87.525 110.7 86.05 109.775C81.465 106.9 77.7 103.07 74.135 99.0651C71.205 95.7751 68.51 92.275 64.945 89.465C60.79 102.825 58.13 115.3 56.945 128.195C52.88 119.54 51.12 110.285 48.84 101.225C47.625 96.3901 46.275 94.7251 40.84 96.4051C31.26 99.3251 21.34 101.17 11.52 103.265C9.725 103.65 7.14 104.71 5.955 102.74C4.665 100.58 6.375 98.4201 7.835 96.7401C14.13 89.5001 21.14 82.9701 28.77 76.1651Z" fill="#DFC01A"/>
</svg>
