<svg width="128" height="126" viewBox="0 0 128 126" fill="none" xmlns="http://www.w3.org/2000/svg">
<path d="M94 93.45C98.69 87.665 103.19 81.71 109.175 77.135C111.821 75.0114 114.799 73.339 117.99 72.185C124.835 69.885 128.455 72.785 127.585 79.915C126.905 85.475 124.825 90.635 122.585 95.69C118.845 104.07 114.205 111.92 107.485 118.29C98.06 127.23 90.44 127.79 79.65 120.67C77.345 119.145 75.065 117.595 72.445 116.615C69.4822 115.452 66.2592 115.115 63.12 115.64C49.035 118 36.905 113 25.205 105.71C14.5 99 7.74996 89.305 3.35996 77.95C-2.89004 61.78 0.134962 47.755 14.675 37.95C23.22 32.17 31.795 34.6 36.36 43.885C40.655 52.635 42.305 62.155 44.395 71.555C46.155 79.45 47.955 87.35 51.85 94.555C52.315 95.425 52.945 96.2 53.925 97.645C54.2736 95.5422 54.2499 93.3946 53.855 91.3C51.41 77.75 46.76 64.8 43.03 51.595C40.21 41.595 37.455 31.62 39.38 21.065C41.125 11.5 45.84 4.305 55.5 1.235C61.385 -0.630001 65.9 0.734999 69.59 5.735C75.59 13.875 78.28 23.285 79.405 33.195C80.97 46.95 77.905 60.35 76.115 73.84C75.31 79.93 74.23 85.985 73.395 92.07C73.245 93.175 72.83 95.07 74.215 95.265C75.6 95.46 75.66 93.52 75.815 92.365C76.815 84.74 77.615 77.09 78.715 69.485C80.385 57.885 83.8 46.745 88.215 35.935C90.984 29.0075 96.0672 23.2529 102.6 19.65C108.57 16.3 113.655 18.325 115.44 24.925C117.6 32.89 116.55 40.785 114.22 48.555C110.469 61.0374 105.041 72.9528 98.085 83.975C96.29 86.83 94.585 89.745 93.415 92.95C92.87 93.655 92.235 94.325 92.68 95.665L94 93.45Z" fill="#90C4D9"/>
</svg>
