<svg width="48" height="48" viewBox="0 0 48 48" fill="none" xmlns="http://www.w3.org/2000/svg">
<path d="M46 17.958C45.4696 17.958 44.9609 18.1687 44.5858 18.5438C44.2107 18.9189 44 19.4276 44 19.958V30H36C34.4087 30 32.8826 30.6321 31.7574 31.7574C30.6321 32.8826 30 34.4087 30 36V44H10C8.4087 44 6.88258 43.3679 5.75736 42.2426C4.63214 41.1174 4 39.5913 4 38V10C4 8.4087 4.63214 6.88258 5.75736 5.75736C6.88258 4.63214 8.4087 4 10 4H28.084C28.6144 4 29.1231 3.78929 29.4982 3.41421C29.8733 3.03914 30.084 2.53043 30.084 2C30.084 1.46957 29.8733 0.960859 29.4982 0.585787C29.1231 0.210714 28.6144 0 28.084 0L10 0C7.34881 0.00317572 4.80712 1.05776 2.93244 2.93244C1.05776 4.80712 0.00317572 7.34881 0 10L0 38C0.00317572 40.6512 1.05776 43.1929 2.93244 45.0676C4.80712 46.9422 7.34881 47.9968 10 48H32.686C33.9998 48.0038 35.3014 47.7469 36.5153 47.2443C37.7292 46.7417 38.8313 46.0034 39.758 45.072L45.07 39.756C46.0015 38.8297 46.7401 37.728 47.243 36.5144C47.7459 35.3009 48.0032 33.9996 48 32.686V19.958C48 19.4276 47.7893 18.9189 47.4142 18.5438C47.0391 18.1687 46.5304 17.958 46 17.958ZM36.93 42.244C36.126 43.046 35.1093 43.6012 34 43.844V36C34 35.4696 34.2107 34.9609 34.5858 34.5858C34.9609 34.2107 35.4696 34 36 34H43.85C43.6026 35.107 43.048 36.1219 42.25 36.928L36.93 42.244Z" fill="#00AAFF"/>
</svg>
