<svg width="36" height="20" viewBox="0 0 36 20" fill="none" xmlns="http://www.w3.org/2000/svg">
<path d="M18 0C13.2277 0.00529371 8.65243 1.90342 5.27792 5.27792C1.90342 8.65243 0.00529371 13.2277 0 18C0 18.5304 0.210714 19.0391 0.585786 19.4142C0.960859 19.7893 1.46957 20 2 20C2.53043 20 3.03914 19.7893 3.41421 19.4142C3.78929 19.0391 4 18.5304 4 18C4 14.287 5.475 10.726 8.1005 8.10051C10.726 5.475 14.287 4 18 4C21.713 4 25.274 5.475 27.8995 8.10051C30.525 10.726 32 14.287 32 18C32 18.5304 32.2107 19.0391 32.5858 19.4142C32.9609 19.7893 33.4696 20 34 20C34.5304 20 35.0391 19.7893 35.4142 19.4142C35.7893 19.0391 36 18.5304 36 18C35.9947 13.2277 34.0966 8.65243 30.7221 5.27792C27.3476 1.90342 22.7723 0.00529371 18 0V0Z" fill="#00AAFF"/>
</svg>
