<svg width="128" height="40" viewBox="0 0 128 40" fill="none" xmlns="http://www.w3.org/2000/svg">
<path d="M81.13 10.105C72.595 10.2 65.86 14.27 60.13 20.055C55.095 25.155 49.51 29.555 43.88 33.91C35.205 40.615 25.28 41.16 16.075 35.195C12.17 32.665 8.60999 29.555 5.07499 26.52C-1.00001 21.33 -0.885012 21.355 4.83499 15.435C6.60499 13.605 7.78999 13.185 9.76499 15.01C12.0482 17.0369 14.4348 18.9445 16.915 20.725C27.14 28.345 36.54 28 46.245 19.6C50.09 16.27 53.67 12.6 57.55 9.33499C70.69 -1.81001 85.075 -2.66501 100.155 4.77999C108.721 9.06807 116.756 14.344 124.095 20.5C126.095 22.14 129.695 23.705 125.63 26.875C123.065 28.875 121.905 33.99 116.76 29.12C109.14 21.905 101.51 14.335 90.715 11.62C87.5916 10.7356 84.3739 10.227 81.13 10.105Z" fill="#93BBA0"/>
</svg>
