<svg width="96" height="32" viewBox="0 0 96 32" fill="none" xmlns="http://www.w3.org/2000/svg">
<path d="M95.465 20.31L87.9 21.14C87.46 19.14 87.02 17.165 86.615 15.2C85.56 10.07 84.295 8.45005 81.115 8.20005C77.375 7.88505 73.545 10.4701 72.115 14.4801C71.2655 16.8607 70.5593 19.29 70 21.755C69.62 23.42 68.835 23.83 67.145 24.045C62.505 24.645 60.145 22.84 58.805 18.35C58.09 15.95 55.965 13.895 54.185 11.945C53.63 11.34 51.87 11.1201 51.11 11.5351C48.11 13.1951 45 14.825 43.495 18.295C42.53 20.52 41.145 22.57 40.195 24.795C39.335 26.795 38.05 27.35 35.895 27.505C33.205 27.7 31.86 26.74 30.69 24.465C29.5116 22.332 28.1068 20.3322 26.5 18.5C23.5 14.8951 18.74 14.45 15.5 17.92C12.6694 21.0073 10.2078 24.4135 8.165 28.07C5.7 32.44 5.84 32.6451 0.524997 31.2601C0.304997 24.5651 2.58 18.8251 6.525 13.3701C10.685 7.59005 16.44 6.08005 22.895 5.89505C27.005 5.77505 30.63 7.10505 33.395 10.3301C34.48 11.5951 35.67 12.7751 37.09 14.2851C37.755 13.1901 38.245 12.34 38.77 11.515C42.27 6.06505 47.145 2.86005 53.645 2.27005C58 1.87505 60.985 3.95005 63.02 7.63005C63.82 9.07505 64.585 10.54 65.485 12.215C66.635 10.37 67.355 8.39005 68.74 7.17005C71.5 4.74005 74.385 2.20505 77.665 0.670048C82.02 -1.37495 89.05 1.67005 91.405 6.73505C93.345 10.8451 94.095 15.5 95.465 20.31Z" fill="#93BBA0"/>
</svg>
