<svg width="21" height="14" viewBox="0 0 21 14" fill="none" xmlns="http://www.w3.org/2000/svg">
<path d="M16.6 0.600028L8.22398 9.00003L3.73598 4.32003C3.55587 4.1231 3.33817 3.96421 3.0957 3.85272C2.85324 3.74123 2.59091 3.67939 2.32417 3.67085C2.05744 3.66231 1.79169 3.70724 1.54259 3.80299C1.29349 3.89874 1.06607 4.04337 0.873726 4.22837C0.681384 4.41337 0.528013 4.635 0.422646 4.88019C0.31728 5.12538 0.26205 5.38917 0.26021 5.65604C0.25837 5.9229 0.309958 6.18744 0.411934 6.43406C0.513909 6.68068 0.66421 6.90439 0.853983 7.09203L5.46598 11.892C5.80993 12.2635 6.22566 12.5614 6.68802 12.7677C7.15038 12.9739 7.64976 13.0843 8.15598 13.092H8.22198C8.71809 13.0937 9.20959 12.9967 9.66794 12.8069C10.1263 12.617 10.5423 12.338 10.892 11.986L19.436 3.44203C19.6226 3.25581 19.7707 3.03467 19.8718 2.79122C19.973 2.54776 20.0252 2.28677 20.0255 2.02315C20.0257 1.75952 19.9741 1.49842 19.8735 1.25476C19.7728 1.0111 19.6252 0.789637 19.439 0.603029C19.2528 0.41642 19.0316 0.268315 18.7882 0.167173C18.5447 0.0660301 18.2837 0.0138295 18.0201 0.0135509C17.7565 0.0132723 17.4954 0.0649217 17.2517 0.165549C17.0081 0.266177 16.7866 0.413814 16.6 0.600028Z" fill="#00AAFF"/>
</svg>
