<svg width="10" height="9" viewBox="0 0 10 9" fill="none" xmlns="http://www.w3.org/2000/svg">
<path d="M3.76663 8.65625C3.46242 8.65625 3.17429 8.54024 2.98966 8.34022L0.4909 5.64225C0.413645 5.55893 0.357245 5.46399 0.324922 5.36284C0.2926 5.2617 0.284989 5.15634 0.302525 5.05279C0.320062 4.94924 0.362401 4.84954 0.427123 4.75937C0.491845 4.6692 0.577681 4.59034 0.679723 4.52729C0.781728 4.46399 0.898019 4.41775 1.02193 4.39124C1.14584 4.36473 1.27494 4.35846 1.40182 4.37279C1.52871 4.38713 1.65088 4.42178 1.76134 4.47477C1.8718 4.52776 1.96838 4.59805 2.04554 4.68159L3.6897 6.45547L7.82353 1.03097C7.96063 0.851865 8.17905 0.724508 8.43091 0.676833C8.68276 0.629159 8.94747 0.665058 9.16697 0.776658C9.62364 1.00868 9.76421 1.50015 9.47888 1.8739L4.59465 8.28022C4.51128 8.39007 4.39635 8.48163 4.25986 8.54696C4.12336 8.61229 3.96942 8.64941 3.81139 8.65511C3.796 8.65625 3.78202 8.65625 3.76663 8.65625Z" fill="#00AAFF"/>
</svg>
