<svg width="48" height="37" viewBox="0 0 48 37" fill="none" xmlns="http://www.w3.org/2000/svg">
<path d="M42.014 13L37.434 17.58C37.395 17.6327 37.3589 17.6874 37.326 17.744C37.0032 18.1375 36.844 18.64 36.8813 19.1476C36.9186 19.6551 37.1495 20.129 37.5263 20.4711C37.9031 20.8132 38.3969 20.9974 38.9057 20.9857C39.4145 20.974 39.8993 20.7672 40.26 20.408L43.672 17L46.844 13.83C47.3802 13.2896 47.7511 12.6072 47.913 11.8632C48.0749 11.1193 48.0211 10.3445 47.758 9.63004C47.5637 9.08314 47.2509 8.58594 46.842 8.17404L40.26 1.60004C40.0774 1.40166 39.8566 1.24225 39.6108 1.13138C39.365 1.02051 39.0994 0.960482 38.8298 0.954897C38.5603 0.949312 38.2923 0.998288 38.0422 1.09888C37.792 1.19947 37.5648 1.34961 37.3742 1.54025C37.1835 1.7309 37.0334 1.95813 36.9328 2.20828C36.8322 2.45843 36.7832 2.72634 36.7888 2.9959C36.7944 3.26545 36.8544 3.5311 36.9653 3.77687C37.0762 4.02264 37.2356 4.24345 37.434 4.42604L42.02 9.01004C32.154 9.03404 26.746 14.358 21.842 19.958C17.338 14.874 12 9.80004 2.97396 9.09204L2.01196 9.00004C1.48153 9.00004 0.972822 9.21076 0.597749 9.58583C0.222677 9.9609 0.0119629 10.4696 0.0119629 11C0.0222032 11.5273 0.236204 12.03 0.60908 12.4029C0.981956 12.7758 1.48474 12.9898 2.01196 13C2.15596 13 2.58596 13.066 2.58596 13.066C10.378 13.656 14.85 18.044 19.2 23C14.876 27.932 10.434 32.4 2.70596 32.92L1.90596 32.962C1.37951 32.9949 0.88768 33.2356 0.538675 33.6311C0.189669 34.0266 0.012076 34.5446 0.0449629 35.071C0.0778497 35.5975 0.318523 36.0893 0.714037 36.4383C1.10955 36.7873 1.62751 36.9649 2.15396 36.932C2.46596 36.918 2.97396 36.906 3.22396 36.886C13.264 36.112 18.71 29.686 23.566 24.068C28.47 18.4 33.102 13.036 42.014 13Z" fill="#00AAFF"/>
</svg>
