<svg width="22" height="22" viewBox="0 0 22 22" fill="none" xmlns="http://www.w3.org/2000/svg">
<path d="M14 0H8C5.87827 0 3.84344 0.842855 2.34315 2.34315C0.842855 3.84344 0 5.87827 0 8L0 14C0 16.1217 0.842855 18.1566 2.34315 19.6569C3.84344 21.1571 5.87827 22 8 22H14C16.1217 22 18.1566 21.1571 19.6569 19.6569C21.1571 18.1566 22 16.1217 22 14V8C22 5.87827 21.1571 3.84344 19.6569 2.34315C18.1566 0.842855 16.1217 0 14 0V0ZM18 14C18 15.0609 17.5786 16.0783 16.8284 16.8284C16.0783 17.5786 15.0609 18 14 18H8C6.93913 18 5.92172 17.5786 5.17157 16.8284C4.42143 16.0783 4 15.0609 4 14V8C4 6.93913 4.42143 5.92172 5.17157 5.17157C5.92172 4.42143 6.93913 4 8 4H14C15.0609 4 16.0783 4.42143 16.8284 5.17157C17.5786 5.92172 18 6.93913 18 8V14Z" fill="#00AAFF"/>
</svg>
