<svg width="48" height="44" viewBox="0 0 48 44" fill="none" xmlns="http://www.w3.org/2000/svg">
<path d="M35.584 12.424C34.6953 8.60261 32.4334 5.24094 29.2283 2.97801C26.0233 0.715092 22.0984 -0.29132 18.1999 0.150078C14.3014 0.591475 10.701 2.44991 8.08296 5.37213C5.46496 8.29435 4.01193 12.0766 4.00004 16C3.99832 18.5568 4.61593 21.076 5.80004 23.342C3.6423 24.4983 1.93284 26.3425 0.943282 28.5816C-0.0462795 30.8208 -0.259187 33.3263 0.338387 35.7003C0.93596 38.0743 2.30974 40.1805 4.24145 41.6843C6.17317 43.188 8.55202 44.0031 11 44H32C35.9182 43.9819 39.6935 42.5266 42.6101 39.9101C45.5267 37.2936 47.3818 33.6979 47.8237 29.8047C48.2656 25.9115 47.2636 21.9915 45.0076 18.7879C42.7516 15.5843 39.3985 13.3199 35.584 12.424V12.424ZM32 40H11C9.29689 40.0051 7.65061 39.3875 6.37108 38.2634C5.09154 37.1394 4.26701 35.5864 4.05267 33.8967C3.83834 32.2071 4.24898 30.4974 5.20731 29.0895C6.16564 27.6815 7.60557 26.6724 9.25604 26.252C9.57314 26.1702 9.86528 26.0117 10.1068 25.7906C10.3483 25.5694 10.5319 25.2923 10.6413 24.9837C10.7507 24.675 10.7826 24.3442 10.7343 24.0203C10.6859 23.6964 10.5588 23.3893 10.364 23.126C8.82658 21.0686 7.99716 18.5685 8.00004 16C8.02286 12.972 9.18961 10.0646 11.2663 7.86075C13.343 5.65695 16.1761 4.31974 19.1975 4.11731C22.2188 3.91487 25.205 4.86218 27.5571 6.76924C29.9093 8.67631 31.4535 11.4021 31.88 14.4C31.9376 14.8354 32.1368 15.2396 32.4469 15.5505C32.7571 15.8613 33.1609 16.0615 33.596 16.12C36.5937 16.5465 39.3193 18.0904 41.2264 20.4421C43.1334 22.7939 44.081 25.7796 43.8791 28.8006C43.6772 31.8217 42.3407 34.6548 40.1377 36.7318C37.9346 38.8088 35.0278 39.9763 32 40V40Z" fill="#00AAFF"/>
</svg>
