<svg width="38" height="38" viewBox="0 0 38 38" fill="none" xmlns="http://www.w3.org/2000/svg">
<path d="M27.312 1.86002L2.92804 26.244C1.99672 27.1703 1.2584 28.2721 0.755804 29.4857C0.253209 30.6993 -0.00366912 32.0005 3.95926e-05 33.314V36C3.95926e-05 36.5305 0.210754 37.0392 0.585826 37.4142C0.960899 37.7893 1.46961 38 2.00004 38H4.68604C5.99956 38.0037 7.30078 37.7468 8.51435 37.2443C9.72793 36.7417 10.8298 36.0033 11.756 35.072L36.14 10.688C37.3088 9.51636 37.9652 7.92897 37.9652 6.27402C37.9652 4.61907 37.3088 3.03168 36.14 1.86002C34.9514 0.72381 33.3704 0.0897217 31.726 0.0897217C30.0817 0.0897217 28.5007 0.72381 27.312 1.86002V1.86002ZM33.312 7.86002L8.92804 32.244C7.80029 33.3649 6.27605 33.9959 4.68604 34H4.00004V33.314C4.00421 31.724 4.63517 30.1998 5.75604 29.072L30.14 4.68802C30.5672 4.27993 31.1353 4.05221 31.726 4.05221C32.3168 4.05221 32.8849 4.27993 33.312 4.68802C33.7319 5.10905 33.9677 5.6794 33.9677 6.27402C33.9677 6.86864 33.7319 7.43899 33.312 7.86002V7.86002Z" fill="#00AAFF"/>
</svg>
